<?xml version="1.0" encoding="UTF-8"?>
<svg width="648px" height="202px" viewBox="0 0 648 202" version="1.1" xmlns="http://www.w3.org/2000/svg" xmlns:xlink="http://www.w3.org/1999/xlink">
    <!-- Generator: Sketch 46.2 (44496) - http://www.bohemiancoding.com/sketch -->
    <title>cdp_logo</title>
    <desc>Created with Sketch.</desc>
    <defs/>
    <g id="Page-1" stroke="none" stroke-width="1" fill="none" fill-rule="evenodd">
        <g id="Artboard-3" fill-rule="nonzero" fill="#CFD8C8">
            <g id="cdp_logo">
                <path d="M207.503502,100.832595 C207.503502,118.526072 214.66786,127.37281 228.996576,127.37281 C231.446079,127.386033 233.890277,127.135231 236.28979,126.624445 C239.135642,125.959848 241.941016,125.120922 244.691159,124.112079 C247.308621,129.989889 249.096572,136.227875 250,142.634102 C247.663423,143.560648 245.490062,144.309013 243.479919,144.879196 C241.574397,145.436924 239.638011,145.874273 237.681428,146.188834 C235.82591,146.473925 233.996164,146.678834 232.192189,146.803562 C230.388214,146.928289 228.515516,146.990653 226.574095,146.990653 C220.397943,147.117889 214.261044,145.944983 208.534345,143.54283 C203.552879,141.403911 199.09696,138.134327 195.494182,133.974455 C191.89992,129.718645 189.204839,124.729378 187.582463,119.327891 C185.792575,113.332154 184.922918,107.081806 185.005356,100.805867 C184.939343,94.4535306 185.879612,88.1330638 187.788632,82.0967529 C189.489238,76.651688 192.213293,71.6100543 195.803435,67.2630979 C199.342895,63.0548207 203.745696,59.7215188 208.688971,57.5076311 C214.224383,55.0939429 220.18361,53.9015643 226.187529,54.006354 C229.863922,53.9941047 233.535291,54.2890593 237.166006,54.8883551 C241.150597,55.63063 245.04707,56.8133769 248.78876,58.4163595 C248.634261,61.8011901 248.027134,65.1473546 246.984785,68.3589175 C246.062303,71.241313 244.969252,74.061946 243.711858,76.8047463 C242.096871,76.2167455 240.62792,75.7178358 239.305005,75.3080171 C237.98209,74.8981984 236.710717,74.6131072 235.490886,74.4527433 C234.288236,74.2032885 233.085586,74.0161973 231.882936,73.8914699 C230.680286,73.7667425 229.391733,73.7043787 228.017275,73.7043787 C222.2351,73.3844878 216.643468,75.8980948 212.915427,80.4931146 C209.324658,85.0367566 207.537863,91.8165834 207.555044,100.832595" id="Shape"/>
                <path d="M282.870614,54 C297.965643,54 309.427632,57.9473987 317.256579,65.842196 C325.085526,73.7369934 329,85.4633515 329,101.02127 C329,116.88215 325.008772,128.465938 317.026316,135.772636 C309.04386,143.079333 297.215156,146.821788 281.540205,147 C277.548977,147 273.694201,146.812877 269.975877,146.438632 C266.257554,146.064386 262.598928,145.627767 259,145.128773 L259,55.7375683 L263.554094,55.1762001 C265.396199,54.9623455 267.391813,54.7752228 269.540936,54.6148318 L276.192982,54.1871227 C278.478558,54.0623742 280.695906,54 282.845029,54 L282.870614,54 Z M280.619152,126.924404 C281.257957,126.972109 281.899207,126.972109 282.538012,126.924404 L284.815058,126.924404 C287.787259,126.939645 290.747791,126.535003 293.616228,125.721472 C296.297057,124.975835 298.753039,123.531834 300.754386,121.524576 C302.904323,119.269701 304.524492,116.524612 305.487573,113.50503 C306.762962,109.252485 307.350943,104.807546 307.227339,100.352975 C307.346088,95.8947069 306.740528,91.4476706 305.436404,87.2009198 C304.466184,84.0982567 302.849668,81.2589307 300.703216,78.8873239 C298.782734,76.8652475 296.420936,75.3607867 293.820906,74.5033055 C291.147799,73.6222767 288.359941,73.1803901 285.557018,73.1934464 C283.953704,73.1934464 282.79386,73.1934464 282.077485,73.1934464 L280.644737,73.1934464 L280.619152,126.924404 Z" id="Shape"/>
                <path d="M341,55.7656794 L349.292449,54.6991085 C353.958942,54.1907777 358.648543,53.9593271 363.339356,54.0058375 C367.554751,54.0153219 371.760454,54.4348173 375.903673,55.2590583 C380.023778,56.0092729 383.966895,57.6032102 387.513102,59.9519701 C391.024382,62.3570976 393.882846,65.6935604 395.805551,69.6311009 C398.105926,74.6843811 399.19358,80.262639 398.971759,85.8696425 C399.13142,90.9097653 398.274687,95.9279396 396.458896,100.588321 C394.962825,104.23426 392.661538,107.444427 389.74955,109.94748 C386.934676,112.291521 383.691568,113.98947 380.225798,114.933699 C376.633361,115.934677 372.933671,116.436604 369.219456,116.426898 C367.728491,116.426898 366.220773,116.364682 364.696302,116.240248 C363.60736,116.182741 362.523894,116.040145 361.454708,115.81362 L361.454708,144.877677 C359.410913,145.286529 357.568146,145.579836 355.926409,145.757598 C354.284671,145.935359 352.751825,146.015352 351.327869,145.997576 C347.895358,145.926284 344.47441,145.551688 341.100515,144.877677 L341,55.7656794 Z M361.354194,97.7619079 C362.005246,97.9824579 362.681539,98.1080417 363.364484,98.1352077 C364.30262,98.1352077 365.282637,98.1352077 366.304535,98.1352077 C369.488199,98.4086889 372.618997,97.1485254 374.830795,94.7033401 C377.042594,92.2581548 378.100901,88.8871854 377.712935,85.523007 C377.766282,83.3760504 377.424872,81.2386339 376.707789,79.2302388 C376.118963,77.6333552 375.169824,76.2142001 373.943639,75.0972766 C372.744553,74.0453242 371.33509,73.297526 369.822543,72.9108063 C368.177854,72.4854107 366.489575,72.2793938 364.796817,72.2975281 L363.138327,72.2975281 C362.510711,72.2563063 361.881294,72.2563063 361.253679,72.2975281 L361.354194,97.7619079 Z" id="Shape"/>
                <path d="M467.363774,84.122616 C467.363774,84.122616 468.065046,83.9404962 468.714372,83.9404962 C469.479172,83.9558943 470.242388,84.0167076 471,84.122616 L471,94.0871708 C469.923879,94.4262354 468.820115,94.6699978 467.701424,94.81565 C466.779188,94.9284452 465.851354,94.9892476 464.922309,94.9977698 C463.439184,95.0273689 461.964921,94.7620818 460.584811,94.2172564 C459.401867,93.7340138 458.344725,92.9865298 457.494019,92.0318188 C456.646368,91.0738899 456.009236,89.9481526 455.62396,88.7276453 C455.19752,87.3729282 454.987148,85.9592933 455.000607,84.5388899 C454.986961,83.1164671 455.206314,81.7014327 455.649933,80.3501344 C456.043668,79.1176966 456.67949,77.9765828 457.519992,76.9939267 C458.346826,76.0406604 459.376317,75.2850118 460.532865,74.782472 C461.822867,74.2401549 463.211899,73.9742843 464.610632,74.0019586 C465.479703,73.9982868 466.347851,74.0591602 467.207936,74.1840784 C468.048321,74.3130391 468.868796,74.5491073 469.649402,74.8865404 C469.610478,75.445559 469.496917,75.9968279 469.311752,76.5256186 C469.121283,77.0633057 468.913499,77.6009927 468.688399,78.1386797 C468.120398,77.9406489 467.538808,77.7841358 466.948206,77.6703717 C466.355917,77.5733655 465.756129,77.5298289 465.156066,77.5402861 C463.574021,77.4645535 462.043916,78.1159516 461.000379,79.3094499 C459.932675,80.8247998 459.418999,82.6624686 459.545889,84.5128727 C459.389268,86.3623153 459.895734,88.2071353 460.974406,89.7162956 C462.045219,90.9127759 463.607824,91.546561 465.208012,91.4334251 L466.065122,91.4334251 C466.514868,91.4047987 466.965975,91.4047987 467.41572,91.4334251 L467.363774,84.122616 Z" id="Shape"/>
                <path d="M478.31791,75 L479.408955,75 L480.576119,75 L481.641791,75 L482.808955,75 L489,95.8132147 C488.269467,95.9317522 487.531694,95.994179 486.792537,96 C486.112195,95.9963703 485.43329,95.933898 484.762687,95.8132147 L483.671642,91.6505718 L477.125373,91.6505718 L475.907463,95.8132147 C475.279118,95.9305621 474.642619,95.9930369 474.004478,96 C473.332568,95.9958728 472.662131,95.9333987 472,95.8132147 L478.31791,75 Z M482.732836,87.888183 L480.449254,79.1359593 L478.064179,87.888183 L482.732836,87.888183 Z" id="Shape"/>
                <path d="M491.757979,74.1849136 C492.460024,74.0680182 493.169451,74.0062104 493.880319,74.000008 C494.591316,74.0031916 495.300965,74.0650186 496.00266,74.1849136 L500.525266,85.9924563 L505.174202,74.1849136 C505.798882,74.0610978 506.433343,73.9991882 507.069149,74.000008 C507.738286,74.0026132 508.40601,74.0644695 509.06516,74.1849136 L510,94.7886793 C509.348719,94.9040875 508.689784,94.9659123 508.029255,94.9735849 C507.410332,94.9711256 506.792933,94.9092303 506.18484,94.7886793 L505.679521,80.8150998 L501.6875,90.5094357 L500.904255,90.5094357 L500.070479,90.5094357 L499.363032,90.5094357 L498.630319,90.5094357 L494.890957,80.6301942 L494.511968,94.8150944 C493.954332,94.9310048 493.387659,94.9929022 492.819149,95 C492.208767,94.993976 491.600061,94.9321047 491,94.8150944 L491.757979,74.1849136 Z" id="Shape"/>
                <path d="M515,74.1851385 C515.916726,74.076527 516.838841,74.0147267 517.762431,74 C518.512164,74.0062435 519.260263,74.0681419 520,74.1851385 L520,94.8148615 C519.269466,94.9312343 518.530598,94.9931331 517.790055,95 C516.866477,94.9850247 515.944375,94.9232253 515.027624,94.8148615 L515,74.1851385 Z" id="Shape"/>
                <path d="M522.098765,74.1851385 C522.603262,74.0808138 523.115819,74.0276819 523.62963,74.0264484 C524.176258,74.0251063 524.721818,74.0782319 525.259259,74.1851385 L532.518519,87.0125945 L532.518519,74.1851385 C533.130025,74.0691832 533.749394,74.0072619 534.37037,74 C534.918074,74.0016097 535.464166,74.06365 536,74.1851385 L536,94.6561713 C535.503485,94.7579664 534.999343,94.8110828 534.493827,94.8148615 C533.955491,94.8135577 533.418352,94.7604475 532.888889,94.6561713 L525.481481,81.8551637 L525.481481,94.8148615 C524.903708,94.9344126 524.31684,94.9963901 523.728395,95 C523.148066,94.9975511 522.56929,94.9355551 522,94.8148615 L522.098765,74.1851385 Z" id="Shape"/>
                <path d="M550.64869,84.122616 C551.277444,84.0098513 551.913052,83.9489732 552.550142,83.9404962 C553.039111,83.9191527 553.528159,83.9805831 554,84.122616 L554,94.0871708 C553.265791,94.5169589 552.45453,94.7656051 551.623184,94.81565 C550.779238,94.9284452 549.930169,94.9892476 549.079992,94.9977698 C547.722771,95.0273689 546.37366,94.7620818 545.110709,94.2172564 C544.028187,93.7340138 543.060787,92.9865298 542.282299,92.0318188 C541.506606,91.0738899 540.923561,89.9481526 540.570991,88.7276453 C540.180752,87.3729282 539.988239,85.9592933 540.000556,84.5388899 C539.988068,83.1164671 540.1888,81.7014327 540.59476,80.3501344 C540.940817,79.1218257 541.506354,77.981009 542.258531,76.9939267 C543.015173,76.0406604 543.95727,75.2850118 545.015637,74.782472 C546.196129,74.2401549 547.467244,73.9742843 548.747237,74.0019586 C549.542532,73.9982868 550.336981,74.0591602 551.124053,74.1840784 C551.893153,74.3127597 552.644008,74.548838 553.35826,74.8865404 C553.323213,75.445645 553.219276,75.9969972 553.049274,76.5256186 C552.874974,77.0633057 552.684829,77.6009927 552.478838,78.1386797 C551.959055,77.9406489 551.426837,77.7841358 550.886371,77.6703717 C550.344363,77.5733655 549.795491,77.5298289 549.246369,77.5402861 C547.798625,77.4645535 546.398413,78.1159516 545.443464,79.3094499 C544.466397,80.8247998 543.996328,82.6624686 544.112447,84.5128727 C543.969121,86.3623153 544.432593,88.2071353 545.419695,89.7162956 C546.399605,90.9127759 547.829559,91.546561 549.293905,91.4334251 L550.078254,91.4334251 L550.64869,91.4334251 L550.64869,84.122616 Z" id="Shape"/>
                <path d="M459.652678,109.705882 L455.157807,109.705882 C455.029529,109.227638 454.978874,108.730034 455.007978,108.234043 C455.020691,107.487113 455.070703,106.741403 455.157807,106 L468.842193,106 C468.929435,106.741389 468.979448,107.487106 468.992022,108.234043 C469.021126,108.730034 468.970471,109.227638 468.842193,109.705882 L463.997721,109.705882 L463.997721,127 L462.973889,127 L462.024972,127 L461.026111,127 L459.602735,127 L459.652678,109.705882 Z" id="Shape"/>
                <path d="M470,106 L481.647727,106 C481.743708,106.765702 481.802488,107.536304 481.823827,108.308642 C481.845474,108.822752 481.785924,109.337091 481.647727,109.82963 L474.427646,109.82963 L474.427646,114.609877 L480.314402,114.609877 C480.427428,115.236379 480.48638,115.872851 480.490502,116.511111 C480.489007,117.158508 480.430038,117.804259 480.314402,118.439506 L474.427646,118.439506 L474.427646,124.17037 L481.823827,124.17037 C481.943282,124.722328 482.002385,125.287503 481.999926,125.854321 C481.986958,126.573066 481.928119,127.289991 481.823827,128 L470,128 L470,106 Z" id="Shape"/>
                <path d="M499.097605,122.809034 C499.551725,123.856026 499.855914,124.969816 500,126.113162 C499.211125,126.433816 498.394057,126.669147 497.561095,126.815614 C496.753415,126.940059 495.938245,127.00093 495.122189,126.997732 C493.769072,127.027612 492.424519,126.762004 491.171162,126.217229 C490.077915,125.727154 489.102494,124.980114 488.317643,124.031821 C487.533927,123.068927 486.944479,121.944195 486.58602,120.727693 C486.184384,119.373291 485.986814,117.95947 486.000682,116.538995 C485.987868,115.116592 486.193844,113.701577 486.610409,112.350297 C486.980131,111.117876 487.577177,109.976778 488.366421,108.994136 C489.142829,108.040882 490.109536,107.285244 491.195551,106.782711 C492.406672,106.23966 493.711141,105.973763 495.024633,106.002208 C495.840135,105.988255 496.655451,106.040439 497.463538,106.158309 C498.25897,106.294914 499.036614,106.530679 499.780499,106.860761 C499.744536,107.419858 499.637885,107.971203 499.463441,108.499817 C499.284588,109.037497 499.089475,109.575177 498.878103,110.112856 C498.344717,109.914915 497.798602,109.758406 497.244037,109.644555 C496.687823,109.547964 496.124649,109.504431 495.561192,109.514471 C494.075629,109.438739 492.638838,110.090128 491.658943,111.28361 C490.656353,112.798939 490.174004,114.636583 490.293156,116.486962 C490.293156,121.083256 492.122335,123.381402 495.780694,123.381402 C496.360351,123.391934 496.939763,123.348407 497.512316,123.251319 C498.075265,123.139345 498.629616,122.982811 499.170772,122.783017" id="Shape"/>
                <path d="M503.07947,106.185139 C503.761981,106.067103 504.453041,106.005183 505.145695,106 C505.834437,106 506.549669,106 507.794702,106.185139 L507.794702,114.119647 L514.311258,114.119647 L514.311258,106.185139 C514.984538,106.064722 515.667002,106.002777 516.350993,106 C517.039735,106 517.754967,106 519,106.185139 L519,126.814861 C517.781457,126.814861 517.066225,127 516.350993,127 C515.658196,126.997822 514.966883,126.935879 514.284768,126.814861 L514.284768,117.79597 L507.768212,117.79597 L507.768212,126.814861 C506.576159,126.814861 505.887417,127 505.119205,127 C504.408892,126.996884 503.700061,126.934959 503,126.814861 L503.07947,106.185139 Z" id="Shape"/>
                <path d="M522.098765,106.343829 C522.603262,106.239504 523.115819,106.186372 523.62963,106.185139 C524.176258,106.183796 524.721818,106.236922 525.259259,106.343829 L532.518519,119.171285 L532.518519,106.185139 C533.130025,106.069183 533.749394,106.007262 534.37037,106 C534.918074,106.00161 535.464166,106.06365 536,106.185139 L536,126.656171 C535.503485,126.757966 534.999343,126.811083 534.493827,126.814861 C533.955491,126.813558 533.418352,126.760447 532.888889,126.656171 L525.481481,113.855164 L525.481481,126.814861 C524.903708,126.934413 524.31684,126.99639 523.728395,127 C523.148066,126.997551 522.56929,126.935555 522,126.814861 L522.098765,106.343829 Z" id="Shape"/>
                <path d="M548.55059,126.996498 C547.228444,127.034202 545.914825,126.767059 544.705725,126.214592 C543.663593,125.713537 542.752917,124.962867 542.049733,124.025256 C541.331648,123.035623 540.807551,121.911326 540.506728,120.715188 C540.156759,119.354919 539.986589,117.952201 540.000825,116.545024 C539.988878,115.129399 540.158992,113.718382 540.506728,112.348796 C540.804462,111.13552 541.328542,109.993555 542.049733,108.986601 C542.747785,108.037313 543.659268,107.277032 544.705725,106.771201 C547.136813,105.742933 549.863187,105.742933 552.294275,106.771201 C553.341275,107.276139 554.25295,108.03658 554.950267,108.986601 C555.672577,109.992865 556.196765,111.135066 556.493272,112.348796 C556.841008,113.718382 557.011122,115.129399 556.999175,116.545024 C557.013411,117.952201 556.843241,119.354919 556.493272,120.715188 C556.193676,121.911788 555.669469,123.036321 554.950267,124.025256 C554.24779,124.963582 553.33693,125.714404 552.294275,126.214592 C551.085175,126.767059 549.771556,127.034202 548.44941,126.996498 M548.44941,123.556112 C551.282468,123.556112 552.698997,121.219083 552.698997,116.545024 C552.796715,114.744273 552.439375,112.948203 551.661896,111.332318 C551.000824,110.181046 549.770686,109.507056 548.474705,109.586062 C545.607919,109.586062 544.174527,111.923091 544.174527,116.597151 C544.174527,121.27121 545.599488,123.608239 548.44941,123.608239" id="Shape"/>
                <path d="M561,106.190123 C561.591497,106.070203 562.192194,106.006568 562.794704,106 C563.414473,106.005809 564.032506,106.069436 564.641429,106.190123 L564.641429,124.197531 L570.987918,124.197531 C571.00389,124.523243 571.00389,124.849596 570.987918,125.175309 C570.987918,125.501235 570.987918,125.8 570.987918,126.071605 C570.987918,126.34321 570.987918,126.723457 570.987918,127.022222 C571.004027,127.347931 571.004027,127.674291 570.987918,128 L561,128 L561,106.190123 Z" id="Shape"/>
                <path d="M581.55059,126.996498 C580.228444,127.034202 578.914825,126.767059 577.705725,126.214592 C576.663593,125.713537 575.752917,124.962867 575.049733,124.025256 C574.332201,123.035277 573.808159,121.911097 573.506728,120.715188 C573.156759,119.354919 572.986589,117.952201 573.000825,116.545024 C572.989175,115.129417 573.159284,113.71844 573.506728,112.348796 C573.804462,111.13552 574.328542,109.993555 575.049733,108.986601 C575.747785,108.037313 576.659268,107.277032 577.705725,106.771201 C580.136813,105.742933 582.863187,105.742933 585.294275,106.771201 C586.341275,107.276139 587.25295,108.03658 587.950267,108.986601 C588.672577,109.992865 589.196765,111.135066 589.493272,112.348796 C589.841008,113.718382 590.011122,115.129399 589.999175,116.545024 C590.013411,117.952201 589.843241,119.354919 589.493272,120.715188 C589.193676,121.911788 588.669469,123.036321 587.950267,124.025256 C587.24779,124.963582 586.33693,125.714404 585.294275,126.214592 C584.085175,126.767059 582.771556,127.034202 581.44941,126.996498 M581.44941,123.556112 C584.282468,123.556112 585.698997,121.219083 585.698997,116.545024 C585.796715,114.744273 585.439375,112.948203 584.661896,111.332318 C584.000824,110.181046 582.770686,109.507056 581.474705,109.586062 C578.607919,109.586062 577.174527,111.923091 577.174527,116.597151 C577.174527,121.27121 578.599488,123.608239 581.44941,123.608239" id="Shape"/>
                <path d="M606.277371,116.122616 C606.811388,115.985233 607.362614,115.923905 607.914272,115.940496 C608.613311,115.946685 609.310747,116.007583 610,116.122616 L610,126.087171 C609.003842,126.451625 607.966673,126.696222 606.91101,126.81565 C605.973557,126.928445 605.030413,126.989248 604.086037,126.99777 C602.578439,127.027369 601.079849,126.762082 599.676966,126.217256 C598.474502,125.734014 597.399917,124.98653 596.535173,124.031819 C595.673535,123.07389 595.02589,121.948153 594.634256,120.727645 C594.200779,119.372928 593.986936,117.959293 594.000617,116.53889 C593.986746,115.116467 594.209719,113.701433 594.660658,112.350134 C595.06089,111.117697 595.707203,109.976583 596.561575,108.993927 C597.402052,108.04066 598.44853,107.285012 599.624163,106.782472 C600.935451,106.240155 602.347404,105.974284 603.769217,106.001959 C604.652629,105.998287 605.535102,106.05916 606.409379,106.184078 C607.263632,106.313039 608.097645,106.549107 608.891132,106.88654 C608.851566,107.445559 608.736131,107.996828 608.547911,108.525619 C608.354299,109.063306 608.143086,109.600993 607.914272,110.13868 C607.336897,109.940649 606.745711,109.784136 606.145363,109.670372 C605.543301,109.573366 604.933616,109.529829 604.323651,109.540286 C602.715501,109.464554 601.160147,110.115952 600.099392,111.30945 C599.014069,112.8248 598.491917,114.662469 598.620901,116.512873 C598.461695,118.362315 598.976519,120.207135 600.07299,121.716296 C601.161472,122.912776 602.749862,123.546561 604.376455,123.433425 L605.247708,123.433425 L606.356576,123.433425 L606.277371,116.122616 Z" id="Shape"/>
                <path d="M612.027933,106.185139 C612.747382,106.065401 613.476235,106.003468 614.206704,106 C614.932961,106 615.687151,106 617,106.185139 L617,126.814861 C615.743017,126.814861 614.988827,127 614.206704,127 C613.466947,126.997139 612.728763,126.935207 612,126.814861 L612.027933,106.185139 Z" id="Shape"/>
                <path d="M621.133332,106 L632.759923,106 C632.861663,106.765702 632.92397,107.536304 632.946589,108.308642 C632.969535,108.822752 632.906413,109.337091 632.759923,109.82963 L625.693303,109.82963 L625.693303,114.609877 L631.933262,114.609877 C632.053069,115.236379 632.115559,115.872851 632.119928,116.511111 C632.118344,117.158508 632.055836,117.804259 631.933262,118.439506 L625.693303,118.439506 L625.693303,124.17037 L632.813256,124.17037 C632.939879,124.722328 633.002528,125.287503 632.999922,125.854321 C632.986176,126.573066 632.923806,127.289991 632.813256,128 L621,128 L621.133332,106 Z" id="Shape"/>
                <path d="M638.836162,117.204154 C638.22444,116.97924 637.631578,116.708568 637.062902,116.394571 C636.560298,116.118751 636.106693,115.766024 635.719524,115.349948 C635.336169,114.92258 635.043931,114.425478 634.859762,113.887475 C634.410909,112.400335 634.486568,110.810008 635.074703,109.369479 C635.408542,108.653124 635.904492,108.019292 636.525551,107.515272 C637.192393,106.99708 637.960028,106.615122 638.782426,106.392302 C639.742609,106.122165 640.738322,105.990186 641.737859,106.000568 C642.639992,106.003586 643.539731,106.091041 644.424615,106.261724 C645.335861,106.447411 646.23342,106.691693 647.111372,106.99296 C646.987287,108.116086 646.669381,109.210857 646.171007,110.231293 L645.284377,109.89179 L644.317145,109.604519 L643.134972,109.369479 C642.651741,109.34296 642.167355,109.34296 641.684123,109.369479 C641.353324,109.342832 641.020823,109.342832 640.690024,109.369479 C640.368505,109.41928 640.058976,109.525468 639.776526,109.682866 C639.496529,109.838114 639.264556,110.063594 639.104837,110.335755 C638.914057,110.689577 638.821454,111.085625 638.836162,111.484841 C638.829465,111.810423 638.903172,112.13282 639.051102,112.425002 C639.187568,112.680265 639.380204,112.903176 639.615321,113.077892 C639.854007,113.25828 640.11595,113.407535 640.39448,113.521857 L641.28111,113.887475 L643.134972,114.592596 C643.869352,114.871162 644.541041,115.167139 645.150039,115.480526 C645.725688,115.762531 646.244437,116.142914 646.68149,116.603496 C647.112339,117.074716 647.441273,117.625358 647.648723,118.222662 C647.899027,118.972767 648.017115,119.758594 647.998001,120.546949 C648.006164,121.444181 647.823211,122.333346 647.46065,123.158508 C647.106358,123.943313 646.573553,124.639789 645.902331,125.195524 C645.15826,125.795855 644.300187,126.248375 643.37678,126.527419 C642.254826,126.863506 641.084613,127.022222 639.910864,126.997499 L638.19134,126.997499 C637.704572,126.96313 637.220186,126.902097 636.740492,126.81469 L635.397113,126.501303 L634,126.031223 C634.064823,125.44991 634.172571,124.873881 634.322411,124.307594 C634.483616,123.715641 634.671689,123.114982 634.88663,122.505618 C635.635652,122.808571 636.408296,123.053089 637.19724,123.236855 C637.955697,123.400627 638.730944,123.479487 639.507851,123.471895 C640.510044,123.519427 641.50591,123.29326 642.38268,122.819005 C643.086501,122.375245 643.487577,121.595543 643.430515,120.78199 C643.443332,120.394267 643.360416,120.009201 643.188707,119.65902 C643.025029,119.369168 642.806212,119.112165 642.543886,118.901668 C642.273977,118.689426 641.975719,118.513723 641.657256,118.379356 L640.636288,117.961506 L638.836162,117.204154 Z" id="Shape"/>
                <path d="M427.513091,149.968572 C426.860691,150.012657 426.221085,149.751719 425.745677,149.247524 C425.27027,148.74333 425.001323,148.040701 425.0025,147.305962 L425.0025,54.8335249 C424.953316,53.6257648 425.634152,52.5323577 426.660437,52.1709151 C427.401313,51.8655092 428.227153,51.9735075 428.885884,52.4619452 C429.544614,52.9503828 429.95805,53.7612872 429.999996,54.6471422 L429.999996,147.332588 C430.001174,148.067327 429.732226,148.769957 429.256819,149.274151 C428.781411,149.778345 428.141805,150.039283 427.489406,149.995198" id="Shape"/>
                <path d="M102,130 C88.745166,130 78,118.807119 78,105 C78,91.1928813 88.745166,80 102,80 C115.254834,80 126,91.1928813 126,105 C125.985943,118.801049 115.249007,129.985357 102,130" id="Shape"/>
                <path d="M58.5521301,106.255201 L58.5521301,106.255201 C58.4998559,89.8922548 67.1518079,74.877839 80.9538807,67.3796736 C94.7559536,59.8815082 111.381126,61.1637796 124,70.699748 L124,48.2831878 C97.3212894,36.016631 66.1355863,45.6964115 50.0271215,71.2437485 C33.9186567,96.7910855 37.5341103,130.836543 58.6030227,152 L58.5521301,106.255201 Z" id="Shape"/>
                <path d="M141.421794,60 L141.421794,118.827801 C141.170094,123.923824 139.212277,128.762936 135.89355,132.491895 C114.621277,153.830342 91.2854658,152.947925 76,141.369545 L76,163.750849 C94.3170832,172.17392 117.449088,171.291503 140.020626,154.980158 C142.800203,152.972013 145.194258,150.431948 147.077416,147.492984 C168.222311,114.522675 161.343851,80.2955913 141.396318,60.294139" id="Shape"/>
                <path d="M22.3946301,105.690266 C22.3964494,79.33434 34.5100833,54.5655155 54.9928863,39.036404 C75.4756893,23.5072926 101.862198,19.0870937 126,27.1414785 L126,3.10410724 C74.9613818,-10.0113032 22.7289336,19.5203942 5.57778505,71.1896086 C-11.5733635,122.858823 12.0225186,179.597083 59.9782294,202 L59.9782294,175.772557 C36.6351639,160.741822 22.4210285,134.236665 22.3946301,105.690266" id="Shape"/>
            </g>
        </g>
    </g>
</svg>