<svg xmlns="http://www.w3.org/2000/svg" viewBox="0 0 193.27 45.83"><defs><style>.cls-1{fill:#cfd8c8;}</style></defs><title>Asset 3</title><g id="Layer_2" data-name="Layer 2"><g id="Layer_1-2" data-name="Layer 1"><path class="cls-1" d="M167.56,45.83H147.19a3.16,3.16,0,0,1-2.71-1.3,3,3,0,0,1-.34-2.74,3.46,3.46,0,0,1,1.13-1.52l23.36-21.06H157a3,3,0,0,1-2.59-1.27,2.89,2.89,0,0,1-.33-2.68,3.24,3.24,0,0,1,3.16-2.12h18.91a3.14,3.14,0,0,1,2.69,1.3,3,3,0,0,1,.34,2.77,3.42,3.42,0,0,1-.92,1.35l-23.55,21.2h13.11A3,3,0,0,1,170.35,41a2.87,2.87,0,0,1,.34,2.64,3.22,3.22,0,0,1-3.14,2.13"/><path class="cls-1" d="M123.34,45.77A18.83,18.83,0,0,1,114,43.53a12.3,12.3,0,0,1-5.75-6.66,13.09,13.09,0,0,1,.2-9A21.06,21.06,0,0,1,114,19.74a30.06,30.06,0,0,1,9.1-5.75,27.9,27.9,0,0,1,10.48-2.1,18.28,18.28,0,0,1,10,2.63,11.85,11.85,0,0,1,5.49,7.65,12.65,12.65,0,0,1-.47,7.18,3.58,3.58,0,0,1-3.55,2.36H117.4a3,3,0,0,1-2.55-1.26,2.84,2.84,0,0,1-.44-1l-.1.27a7.2,7.2,0,0,0-.16,5,6.58,6.58,0,0,0,3.15,3.57c2.89,1.66,7,2,11.77.68a21.66,21.66,0,0,0,5.27-2.12,3.84,3.84,0,0,1,1.92-.6,3,3,0,0,1,2.46,1.23,2.89,2.89,0,0,1,.33,2.67c-.44,1.23-1.53,1.82-3.25,2.64a28.21,28.21,0,0,1-12.46,3m10-27.86a21.47,21.47,0,0,0-8,1.63,22.78,22.78,0,0,0-7,4.46,18.83,18.83,0,0,0-1.76,1.86,3.72,3.72,0,0,1,1.08-.16h25.54a6.58,6.58,0,0,0-.07-1.93,6.07,6.07,0,0,0-2.62-3.9,11.82,11.82,0,0,0-7.12-2"/><path class="cls-1" d="M88.24,45.74a2.91,2.91,0,0,1-2.79-4l8.09-22.56h-.9A3,3,0,0,1,90.08,18a2.86,2.86,0,0,1-.34-2.64,3.21,3.21,0,0,1,3.13-2.12h2.82l1-2.7a3.24,3.24,0,0,1,3.08-2.17,2.93,2.93,0,0,1,2.43,1.22,3,3,0,0,1,.33,2.74l-.32.9H112a3,3,0,0,1,2.54,1.25,2.89,2.89,0,0,1,.34,2.67,3.2,3.2,0,0,1-3.12,2.09H100L91.29,43.57a3.22,3.22,0,0,1-3,2.17"/><path class="cls-1" d="M76.09,45.78a2.92,2.92,0,0,1-2.8-4l5.35-14.93a32.72,32.72,0,0,0,1.27-4,4.45,4.45,0,0,0,.07-1.6,2.6,2.6,0,0,0-1.3-1.76A6.53,6.53,0,0,0,75,18.56a12.63,12.63,0,0,0-5.29,1.2,11.91,11.91,0,0,0-4.23,3.14,11.39,11.39,0,0,0-1.3,2,37.49,37.49,0,0,0-1.52,3.79l-5.36,15a3.22,3.22,0,0,1-3.05,2.17,2.92,2.92,0,0,1-2.8-4L61,15.35a3.25,3.25,0,0,1,3.09-2.17,2.93,2.93,0,0,1,2.44,1.23l.15.24q.82-.41,1.69-.75C73,12.07,78,12.08,81.52,14a8.69,8.69,0,0,1,4.07,4.51,8.38,8.38,0,0,1,.55,4.24,24.17,24.17,0,0,1-1.35,5.09L79.14,43.61a3.22,3.22,0,0,1-3.05,2.17"/><path class="cls-1" d="M14.56,45.81a17.34,17.34,0,0,1-8.21-1.86A11.77,11.77,0,0,1,.91,38a10.47,10.47,0,0,1-.28-7.85,3.39,3.39,0,0,1,3.26-2.3,3.06,3.06,0,0,1,2.48,1.2A3.2,3.2,0,0,1,6.82,32,5.19,5.19,0,0,0,9.5,38.28a11.37,11.37,0,0,0,5.57,1.23A18.34,18.34,0,0,0,25.61,36a13.92,13.92,0,0,0,5.58-6.62,6.08,6.08,0,0,0,.17-4.15,5.47,5.47,0,0,0-2.58-2.94,10.13,10.13,0,0,0-5-1.22h-.55a3.07,3.07,0,0,1-2.62-1.28,3,3,0,0,1-.34-2.75,3.53,3.53,0,0,1,3.58-2.26,16.9,16.9,0,0,1,8.43,2.09,11.6,11.6,0,0,1,4.81,5,11.81,11.81,0,0,1,.28,9.41A18.49,18.49,0,0,1,33,37.93a26.24,26.24,0,0,1-6.9,5,25.66,25.66,0,0,1-11.58,2.85"/><path class="cls-1" d="M20.46,26.94a13.89,13.89,0,0,1-6.92-1.74,9.71,9.71,0,0,1-4.15-4.26A9.93,9.93,0,0,1,9,12.68a17.73,17.73,0,0,1,7.68-8.91A22,22,0,0,1,28.54.23,14.57,14.57,0,0,1,35.91,2a10.06,10.06,0,0,1,4.61,5.35,8.69,8.69,0,0,1,.16,5.94,3.31,3.31,0,0,1-3.17,2.18A3.09,3.09,0,0,1,35,14.36a3.26,3.26,0,0,1-.57-2.84,3.1,3.1,0,0,0-.13-1.81c-.48-1.33-1.65-3.13-6.16-3.2A15,15,0,0,0,19.59,9.3a10.75,10.75,0,0,0-4.36,5.18c-.81,2.25-.13,3.46.55,4.27,1.12,1.3,2.82,1.94,5.2,1.94A3.07,3.07,0,0,1,23.59,22a3,3,0,0,1,.35,2.75,3.48,3.48,0,0,1-3.47,2.23"/><path class="cls-1" d="M57.62,1.64a4.93,4.93,0,0,0-4-1.64h0a8.2,8.2,0,0,0-4.22,1.28,6.47,6.47,0,0,0-2.76,3.29,4.07,4.07,0,0,0,.66,4.21,5,5,0,0,0,4,1.59,7.77,7.77,0,0,0,4.19-1.25,6.47,6.47,0,0,0,2.78-3.27A4.12,4.12,0,0,0,57.62,1.64Zm-5,4.69c-3.38,1-3.82-2-.82-2.68S56,5.33,52.63,6.33Z"/><path class="cls-1" d="M39.47,45.78A2.94,2.94,0,0,1,37,44.55a3,3,0,0,1-.33-2.76l9.94-27.71a3.25,3.25,0,0,1,3.08-2.19,2.93,2.93,0,0,1,2.81,4l-9.93,27.7a3.27,3.27,0,0,1-3.11,2.19"/><polygon class="cls-1" points="184.94 13.06 184.94 8.33 183.24 8.33 183.24 7.7 187.48 7.7 187.48 8.33 185.64 8.33 185.64 13.06 184.94 13.06"/><path class="cls-1" d="M188.11,13.06V7.7h1l1.31,3.8c.12.35.21.62.26.8.06-.2.16-.48.3-.86l1.32-3.73h1v5.37h-.71V8.57L191,13.06h-.54l-1.6-4.57v4.57Z"/></g></g></svg>