<svg xmlns="http://www.w3.org/2000/svg" viewBox="0 0 863.35 387.32"><defs><style>.cls-1{fill:#cfd8c8;}</style></defs><title>Asset 1</title><g id="Layer_2" data-name="Layer 2"><g id="Layer_1-2" data-name="Layer 1"><path class="cls-1" d="M316.16,71.48a3.66,3.66,0,0,0-4.08-5.82l-213.75,83a1.52,1.52,0,0,1-1.78-2.33l18.56-25.12a3.66,3.66,0,0,0-.81-5.15L5.8,38.5A3.66,3.66,0,0,0,.24,42.73L87.32,220.57,84.64,357.72a3.65,3.65,0,0,0,6.36,3L202,171.88Z"/><circle class="cls-1" cx="156.57" cy="49.35" r="49.35"/><path class="cls-1" d="M257.14,267.36l-5.07,26.26c-1.79,8.65.9,11.34,4.48,11.34,5.37,0,7.46-3,9.55-12.23l1.76-8.16a3.66,3.66,0,0,1,3.58-2.89H309a3.66,3.66,0,0,1,3.61,4.24l-.52,3.23c-6.27,31.33-20,50.43-59.68,50.43-43.27,0-51.62-23.87-43.86-60.87l10.74-51c7.46-34.61,22.68-54,60.87-54,43.27,0,51.32,22.68,43.87,58.48l-6.85,32.31a3.66,3.66,0,0,1-3.58,2.9Zm20.29-29.54L280.12,225c2.69-12.23,3.28-17.91-3.28-17.91-6,0-7.46,3.58-10.44,18.8L264,237.82Z"/><path class="cls-1" d="M469.27,141.06a3.66,3.66,0,0,1,3.58-2.9h49c41.77,0,50.43,25.06,43.86,56.4l-4.18,19.69c-7.16,33.72-18.8,49.53-56.7,49.53H489.58L475,334a3.66,3.66,0,0,1-3.58,2.91H432.33a3.66,3.66,0,0,1-3.58-4.42Zm28.36,86h4.48c7.46,0,10.44-3.58,12.53-13.73l5.67-27.75c2.09-10.44-.3-13.73-6.86-13.73h-4.18Z"/><path class="cls-1" d="M546,332.48l42.32-200.37a3.66,3.66,0,0,1,3.58-2.9h38.77a3.66,3.66,0,0,1,3.58,4.41L591.94,334a3.66,3.66,0,0,1-3.58,2.9H549.59A3.66,3.66,0,0,1,546,332.48Z"/><path class="cls-1" d="M720.83,293.32c-1.84,7.89-6.23,31.06-7.86,40.54a3.64,3.64,0,0,1-3.6,3H671.5a3.65,3.65,0,0,1-3.64-4.1c.3-2.39.68-4.91,1.05-7.54-9.25,11-18.8,14.32-29.84,14.32-21.78,0-31.33-18.2-23.87-53.41,7.76-36.7,26-48.64,71.91-51.62l3.28-15.82c2.09-10.14.6-12.83-4.18-12.83-4.48,0-6.86,2.39-9,11.64l-1.14,4.92a3.66,3.66,0,0,1-3.56,2.84H637a3.66,3.66,0,0,1-3.58-4.41l.26-1.26c7.46-35.21,23.57-46,55.8-46,33.12,0,54.61,10.44,46,51Zm-40.28-28.05c-11.34,1.79-15.81,4.18-19.1,21.19-2.09,11,0,15.22,4.78,15.22,5.67,0,7.76-4.77,9-9.85Z"/><path class="cls-1" d="M794.36,176.06a3.65,3.65,0,0,1,3.64,4c-3.39,32.82-9.57,87-12.72,108.17h2.39c5.84-22.77,17.11-68.69,28.21-109.51a3.65,3.65,0,0,1,3.53-2.69h40.28a3.66,3.66,0,0,1,3.43,4.93l-57.84,155.6c-12.23,32.53-22.68,50.73-64.75,50.73a138.06,138.06,0,0,1-17.27-.94A3.66,3.66,0,0,1,720.1,382l6.34-31.45a3.66,3.66,0,0,1,3.94-2.92,47.2,47.2,0,0,0,4.77.28c7.76,0,12.53-2.09,13.73-6l.88-162.27a3.66,3.66,0,0,1,3.66-3.64Z"/><path class="cls-1" d="M408.55,175.75,411,158.59a3.92,3.92,0,0,0-3.88-4.48H378.25a3.92,3.92,0,0,0-3.88,3.36l-2.66,18.3c-19.79,5-29.35,18.84-33.11,37.89-4.77,23.87.89,36.7,24.77,56.1,14.62,11.94,14.32,19.4,12.53,28.05-1.49,7.16-4.48,9.55-8.06,9.55-4.48,0-6-3.88-4.18-12.24l1.09-5.11a3.92,3.92,0,0,0-3.84-4.73H327.19a3.92,3.92,0,0,0-3.84,3.15l-.27,1.32c-3.79,19.19-2.65,41.59,25.09,48l-2.45,16.9a3.92,3.92,0,0,0,3.88,4.48h28.92a3.92,3.92,0,0,0,3.88-3.36L385,337.7c24.36-5.4,33.18-21.8,36.83-40.79,5.07-27.15-1.49-39.69-29.54-62.66-10.15-8.35-11.64-12.83-9.55-21.78,1.19-5.07,3-7.76,6.86-7.76,5.37,0,5.37,4.77,3.28,14.32l-.73,3.29a3.92,3.92,0,0,0,3.83,4.77h32.81a3.92,3.92,0,0,0,3.84-3.11l.54-2.56C436.69,204.69,435.15,182.55,408.55,175.75Z"/></g></g></svg>