<?xml version="1.0" encoding="windows-1252"?>
<!-- Generator: Adobe Illustrator 19.0.0, SVG Export Plug-In . SVG Version: 6.00 Build 0)  -->
<svg version="1.1" id="Layer_1" xmlns="http://www.w3.org/2000/svg" xmlns:xlink="http://www.w3.org/1999/xlink" x="0px" y="0px" width="100px" height="100px" viewBox="-399 401 100 100" style="enable-background:new -399 401 100 100;" xml:space="preserve">
<style type="text/css">
	.st0{fill:#415275;}
	.st1{fill:#F7882F;}
</style>
<path id="XMLID_1662_" class="st0" d="M-299,444.6c0-0.8-0.5-1.6-1.3-1.8l-10.2-3.3l-3.2-7.6l4.8-9.6c0.4-0.7,0.2-1.6-0.4-2.2  l-9-8.9c-0.6-0.6-1.5-0.7-2.2-0.4l-9.5,4.8l-7.6-3.1l-3.3-10.2c-0.3-0.8-1-1.3-1.8-1.3l0,0h-12.7c-0.8,0-1.6,0.5-1.8,1.3l-3.3,10.2  l-7.6,3.2l-9.6-4.8c-0.7-0.4-1.6-0.2-2.2,0.4l-8.9,9c-0.6,0.6-0.7,1.5-0.4,2.2l4.9,9.5l-3.1,7.6l-10.3,3.3c-0.8,0.3-1.3,1-1.3,1.8  v12.7c0,0.8,0.5,1.6,1.3,1.8l10.2,3.3l3.2,7.6l-4.8,9.6c-0.4,0.7-0.2,1.6,0.4,2.2l9,8.9c0.6,0.6,1.5,0.7,2.2,0.3l9.5-4.9l7.6,3.1  l3.3,10.2c0.3,0.8,1,1.3,1.8,1.3l0,0h12.7c0.8,0,1.6-0.5,1.8-1.3l3.3-10.2l7.6-3.2l9.6,4.8c0.7,0.4,1.6,0.2,2.2-0.4l8.9-9  c0.6-0.6,0.7-1.5,0.4-2.2l-4.8-9.3l3.1-7.6l10.2-3.3c0.8-0.3,1.3-1,1.3-1.8V444.6z M-312.5,459c-0.5,0.2-1,0.6-1.2,1.1l-3.8,9.3  c-0.2,0.5-0.2,1.1,0.1,1.6l4.6,9.1l-7,7l-9.1-4.6c-0.5-0.3-1.1-0.3-1.6-0.1l-9.2,3.8c-0.5,0.2-0.9,0.6-1.1,1.2l-3.2,9.7h-9.9  l-3.1-9.6c-0.2-0.5-0.6-1-1.1-1.2l-9.3-3.8c-0.2-0.1-0.5-0.1-0.7-0.1c-0.3,0-0.6,0.1-0.9,0.2l-9.1,4.6l-7-7l4.6-9.1  c0.3-0.5,0.3-1.1,0.1-1.6l-3.8-9.2c-0.2-0.5-0.6-0.9-1.2-1.1l-9.7-3.2v-9.9l9.7-3.2c0.5-0.2,1-0.6,1.2-1.1l3.8-9.3  c0.2-0.5,0.2-1.1-0.1-1.6l-4.6-9.1l7-7l9.1,4.6c0.5,0.3,1.1,0.3,1.6,0.1l9.2-3.8c0.5-0.2,0.9-0.6,1.1-1.2l3.1-9.6h9.9l3.2,9.7  c0.2,0.5,0.6,1,1.1,1.2l9.3,3.8c0.5,0.2,1.1,0.2,1.6-0.1l9.1-4.6l7,7l-4.6,9.1c-0.3,0.5-0.3,1.1-0.1,1.6l3.8,9.2  c0.2,0.5,0.6,0.9,1.2,1.1l9.7,3.1v9.9L-312.5,459z"/>
<path id="XMLID_1653_" class="st1" d="M-338,445.5c0.7,0.8,0.7,2,0,2.7c-4.4,4.4-10.6,10.5-16,15.9l-5.6,5.6  c-0.4,0.4-0.9,0.6-1.4,0.6s-1-0.2-1.4-0.6c-0.8-0.8-0.8-2,0-2.7l5.6-5.6c5.4-5.4,11.5-11.5,16-15.9  C-340,444.7-338.8,444.7-338,445.5z M-322.4,460.9c1.1,1.8,0.8,3.9-0.6,5.3c-3.6,3.6-7.2,7.3-10.8,10.8c-1.5,1.5-3.9,1.6-5.6,0.4  c-0.4-0.3-2-1.8-9.1-8.9c-3.6,3.6-6.6,6.6-7.2,7.2c-1.5,1.5-3.6,2.5-5.8,2.5c-1.7,0-3.4-0.6-4.8-2c-2.4-2.2-4.7-4.6-7.3-7.4  c0,0,0-0.1-0.1-0.1c-0.1-0.1-0.2-0.3-0.3-0.4c-0.5-0.6-1.2-1.3-1.5-2.4c-0.9-2.9-0.2-5.7,2.2-8.1c0.6-0.6,3.5-3.5,7.1-7.2  c-2.9-2.8-5.7-5.7-8.4-8.3c-1.1-1.1-1.6-2.3-1.6-3.6c0-1.3,0.6-2.5,1.7-3.6c3.3-3.2,6.6-6.5,9.8-9.8c1-1,2.2-1.6,3.5-1.6  c0,0,0,0,0.1,0c1.2,0,2.4,0.5,3.4,1.5c0.7,0.7,1.5,1.4,2.2,2.2c2.1,2.1,4.2,4.2,6.3,6.3c1.6-1.6,2.7-2.7,3.2-3.1  c1.1-1.1,3.7-1.7,9.7-2.9c1.2-0.2,2.2-0.4,2.7-0.6l0,0c0.2-0.1,0.5-0.2,0.8-0.3c2.6-0.7,4.5-1.1,7.7-1.8c0.7-0.2,1.4,0.1,1.9,0.6  s0.7,1.2,0.5,1.9l0,0c-0.3,1.4-0.9,3.9-1.3,5.8c-0.4,2-0.5,2.4-0.6,2.7l-0.1,0.7c-1,6.4-1.5,9.7-4.1,12.4c-0.2,0.2-1.1,1.2-2.5,2.5  l7.4,7.4C-323.5,459.5-322.9,460.1-322.4,460.9z M-330.7,430.1c0.9,0.9,1.8,1.8,2.7,2.7c0-0.1,0.1-0.3,0.1-0.5  c0.2-0.9,0.4-2,0.7-3.1C-328.4,429.6-329.5,429.9-330.7,430.1z M-341.3,432.6c2.9,3,8.3,8.5,11.1,11.3c0.6-1.5,0.9-3.6,1.4-6.7  c-0.3-0.1-0.5-0.3-0.8-0.6c-1.7-1.6-3.4-3.3-4.9-4.9c-0.2-0.2-0.3-0.4-0.5-0.6c-0.3,0.1-0.5,0.1-0.8,0.2  C-337.1,431.7-339.5,432.2-341.3,432.6z M-363.5,448c3.9-3.9,8.1-8.2,11.5-11.5c-2-2.1-4.1-4.2-6.2-6.3c-0.7-0.7-1.5-1.5-2.2-2.2  c-0.2-0.2-0.4-0.4-0.7-0.4l0,0c-0.2,0-0.5,0.2-0.8,0.4c-3.2,3.4-6.6,6.7-9.9,9.9c-0.4,0.4-0.6,0.7-0.6,0.9c0,0.2,0.2,0.5,0.5,0.8  C-369.2,442.3-366.4,445.1-363.5,448z M-347.7,462.4c5.8-5.8,12.9-12.8,15.3-15.2c-2.8-2.8-9.4-9.6-12.3-12.6  c-5.4,5.4-24.1,24.2-25.9,26c-1.4,1.4-1.8,2.7-1.4,4.2c0.1,0.3,0.4,0.6,0.7,1c0.1,0.1,0.3,0.3,0.4,0.4c2.5,2.7,4.8,5,7.1,7.2  c1.8,1.7,4.2,0.6,5.3-0.5C-357.6,472.2-353,467.6-347.7,462.4z M-325.7,462.8c-0.2-0.4-0.6-0.7-1-1.2l-7.4-7.4  c-3.1,3.1-7.1,7.1-10.9,10.8c-0.2,0.2-0.5,0.5-0.7,0.7c2.8,2.8,8,8,8.7,8.6c0.1,0.1,0.5,0,0.6-0.1c3.5-3.5,7.1-7.1,10.7-10.7  C-325.5,463.3-325.6,463-325.7,462.8z M-358.7,437.4c0-2.1-1.7-3.9-3.9-3.9c-2.2,0-3.9,1.7-3.9,3.9c0,2.1,1.7,3.9,3.9,3.9  C-360.4,441.3-358.7,439.5-358.7,437.4z"/>
</svg>