<?xml version="1.0" encoding="windows-1252"?>
<!-- Generator: Adobe Illustrator 19.0.0, SVG Export Plug-In . SVG Version: 6.00 Build 0)  -->
<svg version="1.1" id="Layer_1" xmlns="http://www.w3.org/2000/svg" xmlns:xlink="http://www.w3.org/1999/xlink" x="0px" y="0px" width="100px" height="100px" viewBox="-399 401 100 100" style="enable-background:new -399 401 100 100;" xml:space="preserve">
<style type="text/css">
	.st0{fill:#415275;}
	.st1{fill:#F7882F;}
</style>
<path id="XMLID_1699_" class="st0" d="M-306.1,455.7v-0.4v-14.9c0-5.1-4.2-9.3-9.3-9.3h-2.5c-1.1,0-1.9,0.9-1.9,1.9  c0,1.1,0.9,1.9,1.9,1.9h2.5c3,0,5.5,2.5,5.5,5.5v7.3c-1.5-1.1-3.4-1.8-5.5-1.8h-73.9c-1.1,0-1.9,0.9-1.9,1.9c0,1.1,0.9,1.9,1.9,1.9  h73.9c2.7,0,4.9,2,5.4,4.5c-0.8-0.1-1.6-0.2-2.4-0.2h-14.2c-7.4,0-13.5,6-13.5,13.5v3c0,7.4,6,13.5,13.5,13.5h14.2  c0.9,0,1.7-0.1,2.5-0.2v6.1c0,3-2.5,5.5-5.5,5.5h-74.3c-3,0-5.5-2.5-5.5-5.5v-11.7v-26v-11.8c0-3,2.5-5.5,5.5-5.5h4.4  c1.1,0,1.9-0.9,1.9-1.9c0-1.1-0.9-1.9-1.9-1.9h-4.4c-5.1,0-9.3,4.2-9.3,9.3v11.7v26v11.7c0,5.1,4.2,9.3,9.3,9.3h74.3  c5.1,0,9.3-4.2,9.3-9.3v-7.5c4.2-2.3,7.1-6.7,7.1-11.8v-3C-299,462.4-301.9,457.9-306.1,455.7z M-302.8,470.5c0,4-2.4,7.4-5.9,8.8  h-0.1c-1.1,0.5-2.4,0.7-3.7,0.7h-14.1c-5.3,0-9.6-4.3-9.6-9.6v-3c0-5.3,4.3-9.6,9.6-9.6h14.2c5.3,0,9.6,4.3,9.6,9.6V470.5z"/>
<path id="XMLID_1696_" class="st0" d="M-326.3,462.1c-3.8,0-6.9,3.1-6.9,6.9s3.1,6.9,6.9,6.9c3.8,0,6.9-3.1,6.9-6.9  S-322.5,462.1-326.3,462.1z M-326.3,472.1c-1.7,0-3.1-1.4-3.1-3.1s1.4-3,3.1-3c1.7,0,3.1,1.4,3.1,3.1  C-323.2,470.8-324.6,472.1-326.3,472.1z"/>
<path id="XMLID_1692_" class="st1" d="M-315.7,438.7c0,2.4-0.2,4.8-0.7,7.2h-4c0.5-2.4,0.8-4.8,0.8-7.2c0-17.6-14.4-32-32-32  c-17.6,0-32,14.4-32,32c0,2.4,0.3,4.9,0.8,7.2h-4c-0.5-2.4-0.7-4.8-0.7-7.2c0-19.8,16.1-35.8,35.8-35.8  C-331.8,402.8-315.7,418.9-315.7,438.7z M-327,440.2c0-0.1,0-0.1,0-0.2s0-0.1,0-0.2c0-0.1,0-0.1-0.1-0.2c0-0.1-0.1-0.1-0.1-0.2  s-0.1-0.1-0.1-0.2c0-0.1-0.1-0.1-0.1-0.2l-0.1-0.1l-0.1-0.1l-0.1-0.1c-0.1,0-0.1-0.1-0.2-0.1s-0.1-0.1-0.2-0.1c-0.1,0-0.1,0-0.2-0.1  c-0.1,0-0.1,0-0.2-0.1c-0.1,0-0.1,0-0.2,0s-0.1,0-0.2,0l0,0l0,0H-372c0-0.1,0-0.3,0-0.4c0-1,0.1-2,0.2-2.9h42.5  c1.1,0,1.9-0.9,1.9-1.9c0-1.1-0.9-1.9-1.9-1.9h-41.5c2.8-7.9,10.3-13.6,19.2-13.6c7.4,0,14.3,4.1,17.8,10.6c0.5,0.9,1.7,1.3,2.6,0.8  c0.9-0.5,1.3-1.7,0.8-2.6c-4.3-7.8-12.4-12.6-21.2-12.6c-11,0-20.3,7.4-23.2,17.4h-2.2c-1.1,0-1.9,0.9-1.9,1.9  c0,1.1,0.9,1.9,1.9,1.9h1.5c-0.1,1-0.2,1.9-0.2,2.9c0,0.1,0,0.3,0,0.4h-1.3c-1.1,0-1.9,0.9-1.9,1.9c0,1.1,0.9,1.9,1.9,1.9h1.6  c0.2,1.2,0.5,2.4,0.9,3.6h4.1c0-0.1,0-0.2-0.1-0.3c-0.4-1.1-0.7-2.2-1-3.3h40.5c-0.1,1.2-0.3,2.2-0.8,3.5c0,0.1,0,0.1,0,0.2h4  c0.5-1.7,0.7-3.2,0.8-5.5l0,0l0,0C-327,440.3-327,440.2-327,440.2z"/>
</svg>