<?xml version="1.0" encoding="windows-1252"?>
<!-- Generator: Adobe Illustrator 19.0.0, SVG Export Plug-In . SVG Version: 6.00 Build 0)  -->
<svg version="1.1" id="Layer_1" xmlns="http://www.w3.org/2000/svg" xmlns:xlink="http://www.w3.org/1999/xlink" x="0px" y="0px" width="100px" height="100px" viewBox="-399 401 100 100" style="enable-background:new -399 401 100 100;" xml:space="preserve">
<style type="text/css">
	.st0{fill:#415275;}
	.st1{fill:#F7882F;}
</style>
<path id="XMLID_1688_" class="st0" d="M-315.1,442.6c0-5.6-2.6-9.7-6.9-10.6c-0.9-0.2-1.7-0.2-2.6-0.1c0.1-0.3,0.1-0.5,0.1-0.8  c0.1-4.3,0-10.2,0-14.9c-0.1-4.9-4.4-7.9-8.3-7.9h-0.1c-2.1,0-4.4,1-6,2.6c0-0.4,0-0.9,0-1.3c0-2.7-2.4-8.1-7.8-8.5  c-2.2-0.2-4.3,0.6-6.1,2.1c-1,0.9-1.8,2.1-2.3,3.3c-1.6-1.8-4-2.9-6.3-3s-4.5,0.7-6.1,2.2c-1.4,1.3-2.3,3-2.3,4.9  c0,1.3-0.1,4.4-0.1,8.3c-1.3-1.4-3.1-2.2-5.2-2.2h-0.1c-2.1,0-4,0.8-5.4,2.2c-1.5,1.5-2.3,3.6-2.3,5.9c0,10.1,0,43.8,0,47.7  c-0.2,11.3,3.5,18.6,11.9,23.6c5.6,3.3,12.8,4.9,20.2,4.9c10.5,0,21.3-3.2,27.4-9.3c5.4-5.3,8.2-11.8,8.2-19.2  C-315.1,459.9-315.1,455.2-315.1,442.6z M-319,472.5c0,6.3-2.4,11.8-7.1,16.4c-9.2,9.1-30.9,11.1-42.9,3.9  c-7.2-4.3-10.2-10.3-10-20.2c0.1-6.4,0.1-10.5,0.1-15.2c0-2.4,0-4.9,0-8c0,0,0-14.5,0-24.6c0-1.3,0.4-2.4,1.2-3.2  c0.7-0.7,1.7-1.1,2.7-1.1l0,0c2.2,0,3.5,1.6,3.6,4.1c0.1,3.6,0.1,5.7,0.1,7.8s0,4.3,0.1,7.9c0,1.7,1.2,2.9,2.8,2.9l0,0  c1.5,0,2.6-1.2,2.6-2.6c0-2.6,0-7,0-11.6c0-7.6-0.1-16.2,0-18.4c0-0.8,0.4-1.5,1.1-2.2c0.9-0.8,2.1-1.2,3.3-1.2  c1.9,0.1,4.2,1.6,4.4,3.4c0,0.5,0,1.1,0,1.7c0,0.2,0,0.5,0,0.7c0,4.9,0,8.4,0,11.9c0,3.6,0,7.2,0,12.2c0,0.8,0.2,1.4,0.5,1.9  c0.5,0.7,1.2,1.1,2.1,1.1c1.5,0,2.7-1.3,2.7-3c0-1.1,0-1.4,0-1.7c0-0.3,0-0.7,0-1.9v-7.2c0-5.8,0-11.6,0-17.4c0-0.8,0.5-2,1.5-2.9  c0.6-0.6,1.7-1.3,3.1-1.1c3.1,0.3,4.3,4,4.3,4.7c0.1,6.9,0.1,12.6,0.1,18.6c0,2.9,0,5.8,0,9.1c0,1.6,1.1,2.8,2.7,2.8l0,0  c1.5,0,2.7-1.3,2.7-2.9c0-3.5,0-6.4,0-9.3c0-3.7,0-7.2,0-11.6c0-2.6,2.3-4.2,4.4-4.2l0,0c2.1,0,4.4,1.6,4.5,4.1  c0.1,4.7,0.1,10.5,0,14.7c0,0.1,0,0.2-0.3,0.4c-3,2.3-4.3,5.1-4.2,9.2c0.1,2.9,0.1,15.3,0.1,18.9c0,1,0.5,1.8,1.3,2.3s1.7,0.5,2.5,0  s1.3-1.3,1.3-2.3v-6.5c0-5.2,0-11.4,0.1-13.3c0-1.2,0.5-2.3,1.5-3.1c0.9-0.7,2.1-1,3.3-0.8c3.6,0.8,3.8,5.4,3.8,6.8  C-319,455.2-318.9,459.9-319,472.5z"/>
<path id="XMLID_1684_" class="st1" d="M-341.2,476.3c-0.7-0.8-0.6-2,0.2-2.7l5-4.2c0.8-0.7,2-0.6,2.7,0.2c0.7,0.8,0.6,2-0.2,2.7  l-5,4.2c-0.4,0.3-0.8,0.4-1.2,0.4C-340.3,477-340.9,476.8-341.2,476.3z M-328.2,475.8c0.7,0.8,0.6,2-0.2,2.7l-10.9,9.2l-12.5-14.9  c-2.1,1.3-4.6,2-7.1,2c-0.4,0-0.8,0-1.2-0.1c-3.6-0.3-6.9-2-9.2-4.8c-4.8-5.7-4-14.3,1.7-19c5.7-4.8,14.3-4,19.1,1.7  c2.3,2.8,3.4,6.3,3.1,9.9c-0.3,3-1.5,5.7-3.4,7.8l10,11.9l8-6.7C-330.1,474.9-328.9,475-328.2,475.8z M-351.5,455.1  c-3.4-4.1-9.5-4.6-13.6-1.2s-4.6,9.5-1.2,13.6c1.7,2,4,3.2,6.6,3.4c2.6,0.2,5.1-0.6,7.1-2.2c2-1.7,3.2-4,3.4-6.6  C-349,459.5-349.9,457.1-351.5,455.1z"/>
</svg>