<?xml version="1.0" encoding="windows-1252"?>
<!-- Generator: Adobe Illustrator 19.0.0, SVG Export Plug-In . SVG Version: 6.00 Build 0)  -->
<svg version="1.1" id="Layer_1" xmlns="http://www.w3.org/2000/svg" xmlns:xlink="http://www.w3.org/1999/xlink" x="0px" y="0px" width="100px" height="100px" viewBox="-399 401 100 100" style="enable-background:new -399 401 100 100;" xml:space="preserve">
<style type="text/css">
	.st0{fill:#415275;}
	.st1{fill:#F7882F;}
</style>
<path id="XMLID_350_" class="st0" d="M-337.9,434.3c-3.3-1.9-6.7-3.9-10-6.9l-1.4-1.3l-1.4,1.3c-3.3,3-6.7,5-10,6.9  c-6.3,3.7-12.3,7.2-12.3,16.3c0,4.1,2.1,7.8,5.6,9.9s7.8,2.1,11.7-0.1c0.7-0.4,1.6-0.2,2,0.5c0.7,1.1,0.2,4.3-6.4,8.9  c-1.6,1.1-2.2,2.3-1.8,3.6c0.7,2.3,3.6,2.5,8.6,2.7c1.4,0.1,2.8,0.1,4.1,0.1c1.4,0,2.7,0,4.1-0.1c5.1-0.2,8-0.4,8.6-2.7  c0.4-1.3-0.2-2.5-1.8-3.6c-6.6-4.5-7.1-7.8-6.4-8.9c0.4-0.7,1.3-0.9,2-0.5c3.9,2.1,8.1,2.2,11.7,0.1c3.5-2.1,5.6-5.7,5.6-9.9  C-325.5,441.5-331.5,438-337.9,434.3z M-333.2,456.9c-2.2,1.3-5,1.3-7.5-0.1c-2.7-1.5-6-0.6-7.6,1.9c-0.9,1.4-2.9,6.4,5.7,13.1  c-1,0.1-2,0.1-2.7,0.1c-1.3,0.1-2.7,0.1-4,0.1s-2.6,0-4-0.1c-0.7,0-1.7-0.1-2.7-0.1c8.6-6.7,6.6-11.7,5.7-13.1  c-1.6-2.6-4.9-3.4-7.6-1.9c-2.5,1.4-5.3,1.5-7.5,0.1c-2.2-1.3-3.5-3.7-3.5-6.3c0-6.7,4.1-9.1,10.3-12.7c2.9-1.7,6.1-3.6,9.3-6.2  c3.1,2.6,6.4,4.5,9.3,6.2c6.2,3.6,10.3,6,10.3,12.7C-329.7,453.3-331,455.6-333.2,456.9z"/>
<path id="XMLID_353_" class="st1" d="M-306.9,440.5l-0.7-0.5c-1-0.6-1.7-0.4-6.5,0.7c-0.9,0.2-2.1,0.5-3,0.7c-1.1-3.3-2.6-6-3.7-8.1  c0.8-0.6,2-1.4,2.9-2c3.9-2.7,4.4-3,4.6-4.1l0.1-0.9l-0.5-0.7c-3.3-4.6-7.4-8.4-12.2-11.4l-0.8-0.5l-0.9,0.2  c-1.2,0.3-1.6,1.1-3.9,5.4c-0.4,0.8-1,1.9-1.5,2.7c-2.5-1.3-5.1-2.2-8.2-3c0.2-1,0.4-2.2,0.6-3.2c1.1-5.1,1.2-5.8,0.6-6.8l-0.5-0.7  l-0.9-0.2c-5.7-1-11.5-0.9-17.3,0.4l-0.9,0.3l-0.5,0.8c-0.7,1.1-0.4,2.4,0.7,6.5c0.2,0.9,0.5,2.1,0.7,2.9c-2.7,0.9-5.4,2.1-7.9,3.5  c-0.5-0.7-1.3-1.8-1.8-2.5c-2.4-3.4-3.2-4.5-4.5-4.8c-0.6-0.1-1.2,0-1.7,0.4c-4.4,3.3-8.2,7.4-11.2,12.1l-0.5,0.8l0.2,0.8  c0.3,1.1,0.9,1.6,5.5,4.4c0.9,0.6,2.1,1.3,3,1.9c-1.4,2.6-2.3,4.9-3,7.7c-1-0.2-2.3-0.5-3.3-0.8c-5-1.2-5.9-1.4-7-0.7l-0.8,0.5  l-0.2,0.9c-1,5.7-0.9,11.5,0.4,17.3c0.5,2.1,2.6,1.7,4.1,1.5c1-0.2,2.4-0.5,3.7-0.7c1-0.2,2.3-0.5,3.3-0.7c0.8,3,1.3,5.2,2.9,8  c-0.8,0.6-1.7,1.2-2.5,1.8c-4.1,2.9-4.6,3.3-4.8,4.4l-0.1,0.9l0.5,0.7c3.3,4.6,7.4,8.4,12.1,11.4l0.8,0.5l0.9-0.2  c1.2-0.3,1.6-1.1,3.8-5.2c0.4-0.8,0.9-1.7,1.4-2.5c2.7,1.3,5.3,2.1,8.3,2.8c-0.2,0.9-0.4,2.2-0.6,3.1c-0.9,4.7-1.1,5.7-0.4,6.7  l0.5,0.8l0.9,0.2c5.7,1,11.5,0.9,17.3-0.4l0.9-0.2l0.5-0.8c0.7-1.1,0.4-2.2-0.7-6.5c-0.2-0.9-0.5-2-0.7-2.9c2.9-1,5.7-2.2,8.3-3.7  c0.5,0.7,1.1,1.7,1.6,2.5c2.3,3.7,3,4.7,4.2,4.9l1,0.2l0.7-0.5c4.6-3.3,8.4-7.4,11.4-12.1l0.5-0.8l-0.2-0.8  c-0.3-1.2-1.1-1.7-5.2-4.3c-0.8-0.5-1.9-1.2-2.8-1.8c1.3-2.5,1.9-4.6,2.6-7.3c1,0.1,2.4,0.4,3.4,0.5c5.5,0.9,7.3,1.2,7.8-1.1  c1-5.7,0.9-11.5-0.4-17.3L-306.9,440.5z M-310.1,456.1c-1-0.1-2.3-0.4-3.3-0.5c-5.4-0.9-7.2-1.2-7.7,1c-0.9,3.7-1.4,6-3.3,9.2  c-1.1,2,0.4,3,5,5.8c0.8,0.5,1.8,1.1,2.6,1.7c-2.2,3.2-4.8,6-7.9,8.4c-0.5-0.7-1-1.6-1.4-2.3c-2.3-3.7-3-4.7-4.2-5l-0.9-0.2  l-0.8,0.6c-3.2,2-6.7,3.6-10.3,4.6c-2.3,0.7-1.8,2.8-0.5,7.4c0.2,0.8,0.5,1.9,0.7,2.7c-4,0.7-8,0.8-12,0.3c0.2-0.9,0.4-2.1,0.6-3  c1.1-5.3,1.4-7.1-0.9-7.6c-4.1-0.9-7.3-1.7-10.5-3.6l-0.8-0.4l-0.8,0.2c-1.1,0.3-1.6,1.1-3.8,5.2c-0.4,0.7-0.8,1.6-1.3,2.3  c-3.1-2.2-5.9-4.8-8.2-7.7c0.7-0.5,1.6-1.2,2.3-1.7c1.1-0.7,2.1-1.5,2.9-2c1.1-0.8,2.8-2.1,1.7-3.9c-1.9-2.9-2.4-4.8-3.3-8.3  c-0.1-0.5-0.3-1-0.4-1.6c-0.5-2-2.7-1.6-4.1-1.4c-1,0.2-2.3,0.5-3.7,0.7c-1,0.2-2.3,0.5-3.3,0.7c-0.7-4-0.8-8-0.3-11.9  c1,0.2,2.2,0.5,3.1,0.7c5,1.2,5.9,1.4,6.9,0.7l0.8-0.5l0.2-0.8c0.9-3.8,1.9-6.4,3.8-9.8c1.1-2-0.2-2.8-5.2-6c-0.9-0.5-2-1.2-2.9-1.8  c2.2-3.2,4.9-6,8-8.4c0.5,0.7,1.2,1.6,1.7,2.4c2.7,3.9,4,5.8,6.1,4.5c3-1.9,6.3-3.3,9.8-4.3c2.3-0.7,1.8-2.8,0.5-7.5  c-0.2-0.8-0.5-1.9-0.7-2.8c2.9-1,8.8-1.1,12-0.3c-0.2,0.9-0.4,2.1-0.6,3.1c-0.3,1.3-0.5,2.6-0.7,3.6c-0.2,1.3-0.6,3.6,1.5,4  c4.3,0.9,7.3,2,10.5,3.8l0.8,0.4l0.8-0.2c1.2-0.3,1.6-1.1,3.9-5.4c0.4-0.8,0.9-1.7,1.4-2.5c3.1,2.2,5.8,4.8,8.2,7.7  c-0.6,0.5-1.4,1-2.1,1.4c-4.9,3.4-6.1,4.2-5,6.1l0.1,0.2c1.3,2.2,3.5,5.8,4.6,10.1c0.5,2.1,2.7,1.6,4,1.3c0.9-0.2,2.2-0.5,3.4-0.8  c0.8-0.2,1.9-0.5,2.8-0.7C-309.7,448.1-309.6,452.1-310.1,456.1z"/>
<path id="XMLID_356_" class="st0" d="M-349,401c-27.6,0-50,22.4-50,50s22.4,50,50,50s50-22.4,50-50S-321.4,401-349,401z M-349,496.8  c-25.3,0-45.8-20.5-45.8-45.8s20.5-45.8,45.8-45.8s45.8,20.5,45.8,45.8S-323.7,496.8-349,496.8z"/>
</svg>