<?xml version="1.0" encoding="utf-8"?>
<!-- Generator: Adobe Illustrator 15.0.0, SVG Export Plug-In . SVG Version: 6.00 Build 0)  -->
<!DOCTYPE svg PUBLIC "-//W3C//DTD SVG 1.1//EN" "http://www.w3.org/Graphics/SVG/1.1/DTD/svg11.dtd">
<svg version="1.1" id="Layer_1" xmlns="http://www.w3.org/2000/svg" xmlns:xlink="http://www.w3.org/1999/xlink" x="0px" y="0px"
	 width="73.701px" height="73.701px" viewBox="0 0 73.701 73.701" enable-background="new 0 0 73.701 73.701" xml:space="preserve">
<g id="Layer_x0020_1">
	<g id="_367639456">
		<g>
			<path id="_367583736" fill="#F7882F" d="M35.905,31.723h32.131c0.877,0,1.594,0.717,1.594,1.594l0,0
				c0,0.877-0.717,1.595-1.594,1.595H35.905c-0.877,0-1.594-0.718-1.594-1.595l0,0C34.313,32.439,35.028,31.723,35.905,31.723z"/>
			<path id="_367583624" fill="#F7882F" d="M53.659,13.601c0.193-0.511,0.427-1.147,0.427-1.617c0-0.885-3.103-0.716-3.793-0.31
				c-0.538,0.317,0.175,1.582,0.345,1.892C51.644,13.479,52.657,13.491,53.659,13.601z M56.707,14.249
				c2.247,0.724,4.271,1.946,5.938,3.54c3.704,3.537,4.623,7.203,4.846,12.087H36.45c0.222-4.884,1.141-8.551,4.846-12.087
				c1.736-1.659,3.857-2.917,6.217-3.627c-0.77-1.857-0.768-3.969,1.213-5.139c2.568-1.518,8.445-1.241,8.445,2.96
				C57.171,12.804,56.942,13.586,56.707,14.249L56.707,14.249z M60.524,20.018c-4.756-4.541-12.352-4.541-17.106,0.001
				c-1.863,1.777-3.172,4.131-3.642,6.771h24.391C63.696,24.149,62.387,21.797,60.524,20.018L60.524,20.018z"/>
		</g>
		<path id="_367644720" fill="#415275" d="M29.651,65.52H5.799H4.071l0.197-1.717l3.279-28.547l0.158-1.366h1.373h18.23h0.527
			l0.43,0.343c0.023,0.02,7.036,5.643,9.686,7.778c2.656-1.828,9.341-6.619,9.361-6.636l0.59-0.42l0.693,0.187
			c0.014,0.004,4.736,1.204,3.432,5.771C51.052,44.329,40.002,55.62,39.97,55.651l-0.798,0.813l-1.011-0.53l-7.676-4.029
			l0.699,11.988l0.096,1.627L29.651,65.52L29.651,65.52z M18.308,8.197c3.395,0,6.467,1.376,8.69,3.6
			c2.223,2.225,3.6,5.298,3.6,8.69s-1.376,6.467-3.6,8.69c-2.224,2.225-5.298,3.6-8.69,3.6s-6.467-1.375-8.689-3.6
			c-2.225-2.225-3.6-5.298-3.6-8.69s1.375-6.467,3.6-8.69C11.842,9.574,14.914,8.197,18.308,8.197z M24.817,13.979
			c-1.666-1.666-3.967-2.696-6.51-2.696c-2.541,0-4.844,1.03-6.509,2.696c-1.666,1.665-2.696,3.967-2.696,6.509
			s1.03,4.844,2.696,6.509c1.665,1.666,3.968,2.696,6.509,2.696c2.543,0,4.844-1.03,6.51-2.696c1.666-1.665,2.695-3.967,2.695-6.509
			S26.483,15.644,24.817,13.979z M7.526,62.434h20.492l-0.763-13.068l-0.158-2.709l2.405,1.262l9.064,4.759
			c2.461-2.558,9.857-10.373,10.496-12.605c0.258-0.9-0.223-1.418-0.66-1.691c-2.129,1.523-8.489,6.068-9.719,6.843l-0.935,0.59
			l-0.854-0.697c-1.179-0.963-8.291-6.674-10.117-8.139H10.452L7.526,62.434L7.526,62.434z"/>
	</g>
</g>
</svg>
