<?xml version="1.0" encoding="utf-8"?>
<!-- Generator: Adobe Illustrator 15.0.0, SVG Export Plug-In . SVG Version: 6.00 Build 0)  -->
<!DOCTYPE svg PUBLIC "-//W3C//DTD SVG 1.1//EN" "http://www.w3.org/Graphics/SVG/1.1/DTD/svg11.dtd">
<svg version="1.1" id="Layer_1" xmlns="http://www.w3.org/2000/svg" xmlns:xlink="http://www.w3.org/1999/xlink" x="0px" y="0px"
	 width="73.701px" height="73.701px" viewBox="0 0 73.701 73.701" enable-background="new 0 0 73.701 73.701" xml:space="preserve">
<g id="Layer_x0020_1">
	<g id="_538284336">
		<path id="_538286464" fill="#415275" d="M36.39,1.1c3.395,0,6.467,1.376,8.69,3.601c2.226,2.225,3.601,5.297,3.601,8.689
			c0,3.396-1.375,6.468-3.601,8.69c-2.226,2.225-5.297,3.601-8.69,3.601s-6.467-1.376-8.69-3.601s-3.601-5.297-3.601-8.69
			c0-3.393,1.375-6.466,3.601-8.689C29.923,2.476,32.996,1.1,36.39,1.1z M42.899,6.881c-1.666-1.666-3.967-2.696-6.51-2.696
			c-2.541,0-4.844,1.03-6.508,2.696c-1.666,1.666-2.697,3.967-2.697,6.509s1.031,4.845,2.697,6.511
			c1.666,1.664,3.967,2.694,6.508,2.694c2.543,0,4.844-1.03,6.51-2.694c1.666-1.666,2.695-3.969,2.695-6.511
			S44.565,8.547,42.899,6.881z M47.052,31.784H27.106c-0.278,0-0.536,0.08-0.727,0.21c-0.089,0.062-0.146,0.105-0.147,0.12
			l-1.997,13.208l-1.732,11.449l29.129,0.146c-1.229-8.27-2.455-16.535-3.682-24.803c-0.002-0.011-0.061-0.056-0.154-0.118
			C47.603,31.865,47.339,31.784,47.052,31.784z M27.106,28.699h19.945c0.914,0,1.795,0.288,2.479,0.755
			c0.781,0.532,1.333,1.313,1.468,2.216c1.287,8.679,2.576,17.359,3.865,26.041l0.078,0.529l0.264,1.77l-1.793-0.01l-32.707-0.164
			l-1.784-0.008l0.266-1.758l1.998-13.207l1.998-13.207c0.135-0.896,0.685-1.672,1.461-2.205
			C25.323,28.986,26.199,28.698,27.106,28.699L27.106,28.699z"/>
		<path id="_538283832" fill="#F7882F" d="M56.171,27.881l4.248-2.886c1.508,2.211,2.711,4.64,3.549,7.224
			c0.896,2.764,1.381,5.721,1.381,8.801c0,7.869-3.189,14.994-8.347,20.15c-1.103,1.102-2.295,2.115-3.565,3.025
			c-4.672,3.35-10.397,5.32-16.584,5.32c-7.87,0-14.994-3.189-20.15-8.346S8.354,48.89,8.354,41.021c0-3.08,0.486-6.038,1.382-8.801
			c0.928-2.86,2.303-5.53,4.043-7.927l-2.495-1.808c-1.92,2.644-3.441,5.604-4.477,8.795c-0.998,3.075-1.539,6.35-1.539,9.739
			c0,8.723,3.535,16.617,9.25,22.332c5.715,5.717,13.611,9.25,22.332,9.25c8.722,0,16.617-3.533,22.332-9.25
			c5.716-5.715,9.25-13.609,9.25-22.332c0-3.391-0.539-6.664-1.537-9.739c-0.934-2.881-2.266-5.573-3.928-8.016l3.793-2.578
			l-9.836-3.006L56.171,27.881z"/>
	</g>
</g>
<path fill="#FFFFFF" d="M613.351,310.351"/>
</svg>
