<svg version="1" xmlns="http://www.w3.org/2000/svg" width="346.667" height="346.667" viewBox="0 0 260.000000 260.000000"><path d="M129 6.9c0 .4-1 .7-2.1.6-3.5-.2-20.8 3.3-29.2 6C62.9 24.7 33 53.7 20.7 88c-2.5 7-1.9 6.7-11.4 6.9l-4.1.1-1.6 6.8c-.9 3.8-1.8 9.8-2.2 13.4l-.6 6.6 4.2.4c2.3.2 4.4 0 4.6-.4.3-.5 1.3-.4 2.2.1 1.4.7 1.6 2.1 1.4 8l-.4 7.1H7c-3.5 0-6 .5-6.2 1.2-.2.6.1 4.5.8 8.7.7 4.2 1.5 9.4 1.8 11.6.4 2.2 1.1 4.4 1.6 4.9.6.6 3.6 1 6.7 1.1 6.4 0 6-.4 10.3 11 7.7 20.7 24.3 41.6 43.6 55.2 15.2 10.6 36.3 19.1 52.3 21 2.5.3 5.2 1 5.9 1.5.8.7 1.2.7 1.2-.2 0-.9.4-.9 1.3-.2 1.6 1.3 17.6 1.3 20.1 0 1-.6 1.6-.6 1.3-.1-.4.5 0 1 .8 1s1.2-.3 1-.7c-.2-.4 2.8-1.2 6.8-1.8 10.3-1.6 11.6-1.9 21.4-5.3 28.9-10.1 54.6-32.5 68.1-59.4 5.7-11.2 10.1-23.9 11.7-33.2 1.4-8.4 2.1-15.3 1.7-15.8-.3-.3-49-.5-108.3-.5-85.2 0-107.8-.3-108.1-1.2-.4-1.1-.3-10.5.1-13.1 0-.5 3.3-.7 7.1-.6 3.9.1 7.2 0 7.4-.2.3-.2 3.9-.2 8.1.1 4.2.3 7.8.3 8 0 .2-.3 3.8-.3 8 0s7.8.3 8 0c.2-.3 3.8-.3 8 0s7.8.3 8 0c.2-.3 3.8-.3 8 0s7.8.4 7.9.2c.2-.1 31.4-.2 69.4-.2H260l-.5-5.6c-.6-6.6-3.4-19.5-4.5-20.7-.4-.4-46.7-.8-102.9-.8l-102.2-.1.7-2.1c2.3-7.4 11-20.4 19.5-28.9 9-9 21.9-17.2 34.1-21.8 16.7-6.1 37.5-7.1 55.2-2.6 8.5 2.2 24.7 9 28 11.7.6.5 3.4 2.6 6.1 4.7 5.7 4.2 15.4 14 18.7 18.8l2.2 3.3h16.1c8.9.1 16.4-.1 16.7-.4.8-.8-5-11.1-10.7-19-17.9-25.1-46.7-43.5-76.8-48.9-4.5-.9-9.3-1.7-10.7-1.8-1.4-.2-3-.7-3.7-1.1-.6-.4-1.4-.3-1.8.3-.3.5-1.2 1-1.8 1-.7 0-.6-.4.3-1.1 1.2-.8.8-.9-1.5-.7-1.6.1-3.6.7-4.4 1.3-1.1.7-1.3.7-.8-.2.5-.7-.4-1.1-2.8-1.1-1.9 0-3.5.3-3.5.7zm94.3 158c.4 0-.7 2.9-2.4 6.3-14 27.8-40.1 46.8-70.8 51.7-7.5 1.2-25.6.7-32.6-.8-11.3-2.6-23.5-7.5-30.8-12.5-2.1-1.4-4-2.6-4.2-2.6-1.7 0-17-14.8-21.1-20.5-1.6-2.2-3.1-4.2-3.4-4.5-1.6-1.6-8.9-16.3-8.5-17 .3-.5 171.4-.6 173.8-.1z"/></svg>