<?xml version="1.0" encoding="utf-8"?>
<!-- Generator: Adobe Illustrator 15.0.0, SVG Export Plug-In . SVG Version: 6.00 Build 0)  -->
<!DOCTYPE svg PUBLIC "-//W3C//DTD SVG 1.1//EN" "http://www.w3.org/Graphics/SVG/1.1/DTD/svg11.dtd">
<svg version="1.1" id="Layer_2" xmlns="http://www.w3.org/2000/svg" xmlns:xlink="http://www.w3.org/1999/xlink" x="0px" y="0px"
	 width="460.98px" height="463.81px" viewBox="0 0 460.98 463.81" enable-background="new 0 0 460.98 463.81" xml:space="preserve">
<g>
	<polygon fill-rule="evenodd" clip-rule="evenodd" fill="#9FB3D2" points="46.063,238.05 67.855,216.125 106.077,254.583 
		84.218,276.508 	"/>
	<polygon fill-rule="evenodd" clip-rule="evenodd" fill="#9FB3D2" points="85.644,211.888 116.332,215.236 110.49,269.337 
		79.805,265.921 	"/>
	<polygon fill="#9FB3D2" points="399.712,129.511 406.703,158.405 396.18,153.078 357.279,213.324 332.904,198.16 314.371,223.298 
		302.489,215.169 329.104,179.308 354.155,193.925 384.639,148.773 374.794,143.308 	"/>
	<path fill-rule="evenodd" clip-rule="evenodd" fill="#FFFFFF" d="M200.651,389.831l83.305-25.546l2.647-47.201l33.606,4.373
		l2.104-1.026c59.066-32.786,60.287-40.37,60.967-43.307c2.036-10.177-8.011-17.419-17.721-20.767l-2.239-0.886l-44.538,11.679
		l-51.258-37.84l-54.447,16.734L200.651,389.831z M269.833,352.74l-51.937,15.918l9.642-111.206l37.543-11.544l50.784,37.568
		l46.709-12.295c1.899,1.025,3.733,1.979,4.82,2.868c-6.857,6.079-29.738,20.22-50.309,31.694l-44.74-5.737L269.833,352.74z
		 M244.308,224.666c27.021-8.268,42.296-37.162,34.08-64.417c-8.283-27.185-36.933-42.556-64.022-34.29
		c-27.021,8.265-42.362,37.161-34.081,64.414C188.839,217.492,217.557,232.859,244.308,224.666L244.308,224.666z M218.777,140.442
		c19.146-5.809,39.38,4.983,45.15,24.247c5.837,19.266-4.957,39.618-24.033,45.492c-19.146,5.809-39.377-4.985-45.218-24.247
		C189.245,166.604,200.042,146.246,218.777,140.442L218.777,140.442z"/>
	<path fill-rule="evenodd" clip-rule="evenodd" fill="#FFFFFF" d="M261.347,389.831l-83.305-25.546l-2.645-47.201l-33.677,4.373
		l-2.036-1.026c-59.066-32.786-60.354-40.37-61.033-43.307c-2.036-10.177,8.077-17.419,17.719-20.767l2.239-0.886l44.606,11.679
		l51.258-37.84l54.45,16.734L261.347,389.831z M192.165,352.74l51.938,15.918l-9.639-111.206l-37.546-11.544l-50.784,37.568
		l-46.709-12.295c-1.9,1.025-3.8,1.979-4.818,2.868c6.789,6.079,29.736,20.22,50.307,31.694l44.672-5.737L192.165,352.74z"/>
	<path fill-rule="evenodd" clip-rule="evenodd" fill="#9FB3D2" d="M230.456,0c127.297,0,230.492,103.827,230.492,231.904
		S357.753,463.809,230.456,463.809S0.032,359.982,0.032,231.905S103.159,0,230.456,0L230.456,0z M230.456,19.331
		c116.705,0,211.349,95.152,211.349,212.574c0,117.419-94.644,212.571-211.349,212.571c-116.637,0-211.279-95.152-211.279-212.571
		C19.177,114.483,113.819,19.331,230.456,19.331L230.456,19.331z"/>
	<path fill-rule="evenodd" clip-rule="evenodd" fill="#9FB3D2" d="M274.043,151.029c4.208,12.566,3.464,39.275-4.48,54.44
		c-1.358,2.459,10.794-3.073,11.202-6.353c17.788-6.422,19.62-30.193,3.326-39.071C284.091,160.045,283.956,154.101,274.043,151.029
		L274.043,151.029z"/>
	<path fill-rule="evenodd" clip-rule="evenodd" fill="#9FB3D2" d="M183.95,151.029c-4.21,12.566-3.461,39.275,4.481,54.44
		c1.358,2.459-10.729-3.073-11.202-6.353c-17.786-6.422-19.62-30.193-3.26-39.071C173.97,160.045,174.04,154.101,183.95,151.029
		L183.95,151.029z"/>
	<path fill="#9FB3D2" d="M180.079,195.359c0,0-6.109,6.285-13.373,14.21c-3.189,3.55-8.691,9.222,0.068,9.767
		c0.882,0.068,1.834,0.068,2.918,0.068c1.088-1.367,2.785-2.322,4.688-2.322l10.862-0.342c3.395-0.068,6.245,2.527,6.379,5.807
		v0.342c0.071,3.348-2.579,6.079-5.974,6.216l-10.863,0.271c-2.375,0.071-4.479-1.16-5.567-3.003
		c-6.11-0.137-10.523-1.094-12.966-3.348c-4.073-3.758-2.852-9.428,5.092-18.103c7.129-7.786,13.441-14.345,13.441-14.413
		L180.079,195.359z"/>
</g>
</svg>
