<?xml version="1.0" encoding="utf-8"?>
<!-- Generator: Adobe Illustrator 15.0.0, SVG Export Plug-In . SVG Version: 6.00 Build 0)  -->
<!DOCTYPE svg PUBLIC "-//W3C//DTD SVG 1.1//EN" "http://www.w3.org/Graphics/SVG/1.1/DTD/svg11.dtd">
<svg version="1.1" id="Layer_5" xmlns="http://www.w3.org/2000/svg" xmlns:xlink="http://www.w3.org/1999/xlink" x="0px" y="0px"
	 width="460.98px" height="463.81px" viewBox="0 0 460.98 463.81" enable-background="new 0 0 460.98 463.81" xml:space="preserve">
<g>
	<path fill-rule="evenodd" clip-rule="evenodd" fill="#9FB3D2" d="M374.352,316.198c-43.926,0-79.5,0-123.494,0
		c-4.344-7.241-4.82-14.413,0-21.791l106.93,0.137c10.998-30.669,21.996-61.136,32.928-91.805
		c6.924-5.262,20.707-3.348,25.119,4.028L374.352,316.198z"/>
	<polygon fill-rule="evenodd" clip-rule="evenodd" fill="#FFFFFF" points="317.525,202.329 317.525,214.143 350.521,192.355 
		317.525,170.566 317.525,182.315 335.246,192.355 	"/>
	<polygon fill-rule="evenodd" clip-rule="evenodd" fill="#FFFFFF" points="286.635,158.065 286.635,169.882 253.643,148.09 
		286.635,126.301 286.635,138.05 268.918,148.09 	"/>
	<polygon fill-rule="evenodd" clip-rule="evenodd" fill="#9FB3D2" points="311.961,134.429 279.033,207.041 290.506,214.214 
		323.502,141.533 	"/>
	<path fill-rule="evenodd" clip-rule="evenodd" fill="#FFFFFF" d="M69.655,346.73h87.104l16.226-44.332l30.959,14.003l2.239-0.34
		c65.993-14.073,69.387-20.905,70.881-23.568c4.887-9.086-2.65-18.988-10.932-25l-1.902-1.572l-45.96-1.844l-38.088-51.229h-56.961
		L69.655,346.73z M146.576,331.566H92.262l41.482-103.554h39.24l37.748,50.819l48.203,1.912c1.561,1.504,3.057,3.008,3.803,4.168
		c-8.283,3.825-34.285,10.655-57.299,15.572l-41.144-18.578L146.576,331.566z M156.759,209.773
		c28.312,0,51.326-23.088,51.326-51.571c0-28.484-23.015-51.572-51.326-51.572c-28.243,0-51.258,23.088-51.258,51.572
		C105.84,186.685,128.855,209.773,156.759,209.773L156.759,209.773z M156.759,121.792c20.028,0,36.186,16.327,36.186,36.41
		c0,20.082-16.157,36.409-36.186,36.409c-19.96,0-36.186-16.327-36.186-36.409C120.98,138.119,137.139,121.792,156.759,121.792
		L156.759,121.792z"/>
	<path fill-rule="evenodd" clip-rule="evenodd" fill="#9FB3D2" d="M230.49,0.001c127.297,0,230.493,103.827,230.493,231.902
		c0,128.077-103.195,231.904-230.493,231.904c-127.297,0-230.492-103.827-230.492-231.904
		C-0.002,103.829,103.193,0.001,230.49,0.001L230.49,0.001z M230.49,19.263c116.637,0,211.278,95.221,211.278,212.641
		c0,117.354-94.641,212.574-211.278,212.574c-116.705,0-211.279-95.221-211.279-212.574C19.21,114.484,113.785,19.263,230.49,19.263
		L230.49,19.263z"/>
</g>
</svg>
