<?xml version="1.0" encoding="utf-8"?>
<!-- Generator: Adobe Illustrator 15.0.0, SVG Export Plug-In . SVG Version: 6.00 Build 0)  -->
<!DOCTYPE svg PUBLIC "-//W3C//DTD SVG 1.1//EN" "http://www.w3.org/Graphics/SVG/1.1/DTD/svg11.dtd">
<svg version="1.1" id="Layer_4" xmlns="http://www.w3.org/2000/svg" xmlns:xlink="http://www.w3.org/1999/xlink" x="0px" y="0px"
	 width="460.98px" height="463.81px" viewBox="0 0 460.98 463.81" enable-background="new 0 0 460.98 463.81" xml:space="preserve">
<g>
	<path fill-rule="evenodd" clip-rule="evenodd" fill="#9FB3D2" d="M125.7,348.437H38.186L92.16,214.488h56.895l38.088,51.229
		l65.99,2.664l-19.621,12.911c-2.239,1.502-4.889,4.166-5.634,5.67c0.405,0.339,1.495,1.159,3.395,1.501l19.62,7.242l-19.62,6.829
		c-18.873,6.422-54.653,14.413-56.213,14.755l-2.242,0.41l-30.891-14.071L125.7,348.437z M60.863,333.207h54.245l18.126-49.66
		l41.074,18.578c6.45-1.502,24.512-5.327,39.65-9.835c-0.407-1.162-0.815-2.322-0.815-3.416c-0.339-2.663,0-4.985,1.155-6.831
		l-34.285-1.57l-37.749-50.822h-39.172L60.863,333.207z M125.7,211.482c-28.312,0-51.327-23.156-51.327-51.64
		c0-28.418,23.015-51.574,51.327-51.574c28.241,0,51.258,23.156,51.258,51.574C176.619,188.326,153.602,211.482,125.7,211.482
		L125.7,211.482z M125.7,123.432c-20.028,0-36.186,16.325-36.186,36.41c0,20.15,16.157,36.406,36.186,36.406
		c19.959,0,36.185-16.256,36.185-36.406C161.546,139.757,145.32,123.432,125.7,123.432L125.7,123.432z"/>
	<path fill-rule="evenodd" clip-rule="evenodd" fill="#FFFFFF" d="M422.115,348.437h-87.174l-16.158-44.398l-30.959,14.003
		l-2.239-0.342c-65.991-14.071-69.386-20.902-70.881-23.566c-4.955-9.086,2.649-18.92,10.934-25l1.9-1.504l45.961-1.912
		l38.088-51.229h56.96L422.115,348.437z M345.125,333.207h54.313l-41.48-103.557h-39.175l-37.748,50.822l-48.269,1.912
		c-1.495,1.504-2.989,3.074-3.734,4.168c8.281,3.823,34.283,10.655,57.3,15.572l41.075-18.578L345.125,333.207z M334.941,211.482
		c-28.241,0-51.259-23.156-51.259-51.64c0-28.418,23.018-51.574,51.259-51.574c28.312,0,51.326,23.156,51.326,51.574
		C385.859,188.326,362.913,211.482,334.941,211.482L334.941,211.482z M334.941,123.432c-19.96,0-36.186,16.325-36.186,36.41
		c0,20.15,16.226,36.406,36.186,36.406c20.027,0,36.256-16.256,36.256-36.406C370.789,139.757,354.563,123.432,334.941,123.432
		L334.941,123.432z"/>
	<path fill-rule="evenodd" clip-rule="evenodd" fill="#9FB3D2" d="M353.816,361.69l-39.988-6.079l7.195,13.66
		c-4.14,2.322-34.691,17.829-102.925,18.991c-70.947,1.16-105.977-29.236-106.724-29.578c-4.142-3.825-10.931-3.415-14.731,0.752
		c-3.734,4.166-3.395,10.997,0.745,14.753c1.495,1.572,39.58,34.905,116.911,34.905c1.155,0,2.647,0,3.8,0
		c70.474-1.092,104.827-17.419,112.363-21.242l6.382,12.157L353.816,361.69z"/>
	<path fill-rule="evenodd" clip-rule="evenodd" fill="#FFFFFF" d="M125.7,101.439l39.988,5.669l-7.537-13.663
		c4.142-2.254,26.341-23.496,81.81-23.496c55.061,0,77.262,30.737,77.668,31.08c4.142,3.825,10.931,3.415,14.733-1.095
		c3.733-4.165,3.395-10.996-1.155-14.822c-1.492-1.502-22.268-35.655-96.948-36.407c-1.087,0-46.372-0.41-86.291,25.752
		l-6.45-11.749L125.7,101.439z"/>
	<path fill-rule="evenodd" clip-rule="evenodd" fill="#9FB3D2" d="M230.456,0.001c127.297,0,230.492,103.827,230.492,231.904
		c0,128.075-103.195,231.902-230.492,231.902S0.032,359.981,0.032,231.906C0.032,103.829,103.159,0.001,230.456,0.001L230.456,0.001
		z M230.456,19.333c116.705,0,211.349,95.22,211.349,212.573c0,117.42-94.644,212.572-211.349,212.572
		c-116.637,0-211.28-95.152-211.28-212.572C19.176,114.552,113.819,19.333,230.456,19.333L230.456,19.333z"/>
</g>
</svg>
