<?xml version="1.0" encoding="utf-8"?>
<!-- Generator: Adobe Illustrator 15.0.0, SVG Export Plug-In . SVG Version: 6.00 Build 0)  -->
<!DOCTYPE svg PUBLIC "-//W3C//DTD SVG 1.1//EN" "http://www.w3.org/Graphics/SVG/1.1/DTD/svg11.dtd">
<svg version="1.1" id="Layer_9" xmlns="http://www.w3.org/2000/svg" xmlns:xlink="http://www.w3.org/1999/xlink" x="0px" y="0px"
	 width="460.98px" height="463.81px" viewBox="0 0 460.98 463.81" enable-background="new 0 0 460.98 463.81" xml:space="preserve">
<g>
	<g>
		<path fill-rule="evenodd" clip-rule="evenodd" fill="#FFFFFF" d="M226.516,214.434c28.218-8.63,44.239-38.803,35.591-67.262
			c-8.578-28.391-38.569-44.438-66.856-35.808c-28.215,8.7-44.167,38.8-35.588,67.263
			C168.665,206.945,198.656,222.996,226.516,214.434L226.516,214.434z M199.858,126.558c19.994-6.135,41.12,5.206,47.217,25.249
			c6.026,20.114-5.175,41.374-25.165,47.507c-19.994,6.061-41.119-5.208-47.22-25.323
			C169.018,153.804,180.293,132.549,199.858,126.558L199.858,126.558z"/>
		<path fill-rule="evenodd" clip-rule="evenodd" fill="#FFFFFF" d="M271.698,385.916l-2.431-76.396l57.71-32.813
			c11.837-18.975,23.889-62.844,24.953-82.315c-3.613-10.202-11.556-11.126-22.047-8.845l-2.48,0.428l-31.126,43.158l-44.805-7.42
			l-88.691,0.428l-66.357,53.64l-9.076,21.256c0,0,32.683,56.565,43.884,59.419c12.761,3.281,17.581-1.282,20.985-7.132
			l-2.786,37.447C187.642,386.556,271.698,385.916,271.698,385.916z M250.763,236.977l51.756,6.919l30.624-45.653
			c2.199-0.071,7.232,1.214,8.652,1.426c-2.838,9.13-14.037,43.299-26.161,64.77l-59.059,28.674l1.938,80.961l-95.462,0.426
			l3.069-90.589l-39.56,19.262c0,0,14.923,34.163,15.492,37.517c0.634,3.351-3.604,5.848-6.014,7.415
			c-2.34,1.643-36.498-49.711-35.081-52.921l4.255-9.559l62.743-48.507L250.763,236.977z M152.078,304.809l0.139,33.741
			c-3.331-5.85-6.98-20.682-10.242-27.459L152.078,304.809z"/>
		<path fill="#9FB3D2" d="M384.842,208.709l-5.84-9.892l-22.344,13.19l-3.52-6.708l14.791-8.209l-5.574-10.044l-14.555,8.078
			l-9.319-17.766c13.398-10.992,17.742-30.766,9.448-46.574c-6.047-11.529-17.706-18.691-30.426-18.691
			c-6.101,0-12.161,1.676-17.527,4.845c-16.856,9.951-23.116,32.257-13.954,49.724c6.047,11.529,17.705,18.691,30.427,18.691
			c4.111,0,8.201-0.778,12.077-2.245l23.569,44.931L384.842,208.709z M296.194,161.326c-6.363-12.132-2.047-27.607,9.623-34.497
			c3.599-2.125,7.641-3.249,11.687-3.249c8.437,0,16.195,4.805,20.254,12.54c6.364,12.131,2.047,27.608-9.621,34.499
			c-3.6,2.124-7.642,3.247-11.688,3.247C308.012,173.865,300.252,169.061,296.194,161.326z"/>
	</g>
	<path fill-rule="evenodd" clip-rule="evenodd" fill="#9FB3D2" d="M230.488,0.002c127.299,0,230.495,103.828,230.495,231.904
		c0,128.075-103.195,231.901-230.495,231.901c-127.294,0-230.489-103.826-230.489-231.901
		C-0.001,103.831,103.194,0.002,230.488,0.002L230.488,0.002z M230.488,19.333c116.708,0,211.28,95.152,211.28,212.573
		c0,117.419-94.572,212.571-211.28,212.571c-116.705,0-211.277-95.152-211.277-212.571C19.21,114.486,113.783,19.333,230.488,19.333
		L230.488,19.333z"/>
</g>
</svg>
