<?xml version="1.0" encoding="utf-8"?>
<!-- Generator: Adobe Illustrator 15.0.0, SVG Export Plug-In . SVG Version: 6.00 Build 0)  -->
<!DOCTYPE svg PUBLIC "-//W3C//DTD SVG 1.1//EN" "http://www.w3.org/Graphics/SVG/1.1/DTD/svg11.dtd">
<svg version="1.1" id="Layer_1" xmlns="http://www.w3.org/2000/svg" xmlns:xlink="http://www.w3.org/1999/xlink" x="0px" y="0px"
	 width="460.98px" height="463.81px" viewBox="0 0 460.98 463.81" enable-background="new 0 0 460.98 463.81" xml:space="preserve">
<g>
	<path fill-rule="evenodd" clip-rule="evenodd" fill="#FFFFFF" d="M69.721,346.8h87.106l16.16-44.4l57.503-10.248l1.832-1.365
		c55.129-24.66,57.166-31.968,58.184-34.904c3.055-9.836-6.176-18.103-15.479-22.473l-2.105-1.162l-52.344,6.489l-40.396-25.82
		h-56.961L69.721,346.8z M146.644,331.635H92.331l41.482-103.556h39.174l47.251,27.324l50.24-7.65
		c1.766,1.23,3.531,2.459,4.48,3.414c-7.399,5.262-31.703,16.941-50.105,25.959l-60.49,4.78L146.644,331.635z M156.828,209.843
		c28.244,0,51.258-23.156,51.258-51.572c0-28.484-23.015-51.643-51.258-51.643c-28.31,0-51.327,23.158-51.327,51.643
		C105.909,186.687,128.924,209.843,156.828,209.843L156.828,209.843z M156.828,121.861c19.96,0,36.188,16.259,36.188,36.41
		c0,20.082-16.228,36.406-36.188,36.406c-20.028,0-36.253-16.324-36.253-36.406C120.979,138.12,137.208,121.861,156.828,121.861
		L156.828,121.861z"/>
	<path fill-rule="evenodd" clip-rule="evenodd" fill="#9FB3D2" d="M230.49,0c127.297,0,230.492,103.827,230.492,231.907
		c0,128.074-103.195,231.902-230.492,231.902S-0.002,359.982-0.002,231.908C-0.002,103.828,103.193,0,230.49,0L230.49,0z
		 M230.49,19.333c116.705,0,211.277,95.22,211.277,212.574c0,117.42-94.572,212.571-211.277,212.571
		c-116.706,0-211.278-95.151-211.278-212.571C19.212,114.553,113.785,19.333,230.49,19.333L230.49,19.333z"/>
	<polygon fill="#9FB3D2" points="243.411,356.703 223.411,356.703 223.411,326.273 316.393,293.359 315.701,130.442 
		433.895,130.442 433.895,150.442 335.786,150.442 336.453,307.474 243.411,340.41 	"/>
	<path fill-rule="evenodd" clip-rule="evenodd" fill="#FFFFFF" d="M381.076,315.583c20.367,0,36.93-16.668,36.93-37.16
		c0-20.49-16.563-37.16-36.93-37.16c-20.368,0-36.936,16.67-36.936,37.16C344.414,298.916,360.977,315.583,381.076,315.583
		L381.076,315.583z M381.076,252.195c14.391,0,26.066,11.746,26.066,26.229c0,14.48-11.676,26.229-26.066,26.229
		c-14.395,0-26.072-11.749-26.072-26.229C355.277,263.941,366.953,252.195,381.076,252.195L381.076,252.195z"/>
	<path fill-rule="evenodd" clip-rule="evenodd" fill="#9FB3D2" d="M252.081,205.335c8.96-4.441,19.688-0.684,24.102,8.33
		c1.561,3.146,2.103,6.355,1.9,9.633l92.737,40.916c1.02-0.954,2.242-1.774,3.601-2.458c9.03-4.441,19.757-0.684,24.17,8.401
		c4.345,9.018,0.745,20.014-8.147,24.385c-8.963,4.441-19.757,0.617-24.238-8.266c-1.697-3.823-2.174-7.648-1.561-11.338
		l-91.654-40.504c-1.357,1.501-3.123,2.729-4.955,3.687c-8.962,4.44-19.688,0.684-24.102-8.47
		C239.385,220.703,243.051,209.775,252.081,205.335L252.081,205.335z"/>
	<rect x="223.77" y="336.007" fill-rule="evenodd" clip-rule="evenodd" fill="#9FB3D2" width="194.236" height="21.037"/>
</g>
</svg>
