<?xml version="1.0" encoding="utf-8"?>
<!-- Generator: Adobe Illustrator 15.0.0, SVG Export Plug-In . SVG Version: 6.00 Build 0)  -->
<!DOCTYPE svg PUBLIC "-//W3C//DTD SVG 1.1//EN" "http://www.w3.org/Graphics/SVG/1.1/DTD/svg11.dtd">
<svg version="1.1" id="Layer_3" xmlns="http://www.w3.org/2000/svg" xmlns:xlink="http://www.w3.org/1999/xlink" x="0px" y="0px"
	 width="460.98px" height="463.81px" viewBox="0 0 460.98 463.81" enable-background="new 0 0 460.98 463.81" xml:space="preserve">
<g>
	<path fill="#9FB3D2" d="M291.524,251.032v55.669c0,9.77-6.652,17.761-14.8,17.761c-8.146,0-14.87-7.991-14.87-17.761v-55.669
		c-6.379-0.137-10.317-5.398-10.317-11.341c0-6.009,4.005-11.339,10.522-11.339h29.263c6.516,0,10.522,5.193,10.522,11.339
		C301.845,245.633,297.975,250.895,291.524,251.032L291.524,251.032z M267.696,251.032v55.669c0,5.943,4.073,10.795,9.028,10.795
		c4.89,0,8.963-4.852,8.963-10.795v-55.669H267.696z M291.322,234.774H262.06c-2.85,0-4.142,2.39-4.142,4.917
		c0,2.461,1.292,4.92,4.142,4.92h29.263c2.852,0,4.139-2.459,4.139-4.92C295.461,237.164,294.174,234.774,291.322,234.774
		L291.322,234.774z"/>
	<path fill="#FFFFFF" d="M347.13,251.032v55.669c0,9.77-6.724,17.761-14.87,17.761c-8.147,0-14.8-7.991-14.8-17.761v-55.669
		c-6.449-0.137-10.32-5.398-10.32-11.341c0-6.009,3.937-11.339,10.523-11.339h29.262c6.449,0,10.523,5.193,10.523,11.339
		C357.448,245.633,353.509,250.895,347.13,251.032L347.13,251.032z M323.297,251.032v55.669c0,5.943,4.008,10.795,8.963,10.795
		s8.963-4.852,8.963-10.795v-55.669H323.297z M346.925,234.774h-29.262c-2.853,0-4.14,2.39-4.14,4.917c0,2.461,1.287,4.92,4.14,4.92
		h29.262c2.85,0,4.142-2.459,4.142-4.92C351.066,237.164,349.709,234.774,346.925,234.774L346.925,234.774z"/>
	<path fill="#9FB3D2" d="M404.088,251.032v55.669c0,9.77-6.652,17.761-14.799,17.761c-8.147,0-14.8-7.991-14.8-17.761v-55.669
		c-6.45-0.137-10.32-5.398-10.32-11.341c0-6.009,3.937-11.339,10.457-11.339h29.328c6.449,0,10.454,5.193,10.454,11.339
		C414.408,245.633,410.538,250.895,404.088,251.032L404.088,251.032z M380.326,251.032v55.669c0,5.943,4.007,10.795,8.963,10.795
		c4.955,0,8.962-4.852,8.962-10.795v-55.669H380.326z M403.954,234.774h-29.328c-2.853,0-4.073,2.39-4.073,4.917
		c0,2.461,1.221,4.92,4.073,4.92h29.328c2.85,0,4.073-2.459,4.073-4.92C408.027,237.164,406.737,234.774,403.954,234.774
		L403.954,234.774z"/>
	<path fill-rule="evenodd" clip-rule="evenodd" fill="#FFFFFF" d="M65.784,348.165h87.104l16.229-44.4l30.891,14.002l2.239-0.339
		c65.991-14.074,69.386-20.903,70.946-23.566c4.89-9.086-2.646-18.923-10.929-25.003l-1.902-1.501l-46.031-1.912l-38.086-51.232
		h-56.893L65.784,348.165z M142.705,332.931H88.392l41.484-103.554h39.241l37.68,50.819l48.269,1.915
		c1.495,1.501,3.056,3.073,3.805,4.165c-8.352,3.826-34.355,10.657-57.368,15.575l-41.074-18.581L142.705,332.931z M152.889,211.207
		c28.246,0,51.258-23.156,51.258-51.64c0-28.416-23.012-51.572-51.258-51.572c-28.31,0-51.324,23.156-51.324,51.572
		C101.97,188.05,124.987,211.207,152.889,211.207L152.889,211.207z M152.889,123.16c19.962,0,36.188,16.325,36.188,36.407
		c0,20.15-16.226,36.409-36.188,36.409c-20.028,0-36.186-16.259-36.186-36.409C117.043,139.485,133.271,123.16,152.889,123.16
		L152.889,123.16z"/>
	<path fill-rule="evenodd" clip-rule="evenodd" fill="#9FB3D2" d="M230.49,0c127.297,0,230.492,103.827,230.492,231.904
		S357.787,463.809,230.49,463.809S-0.002,359.982-0.002,231.905S103.193,0,230.49,0L230.49,0z M230.49,19.333
		c116.705,0,211.277,95.152,211.277,212.572c0,117.422-94.572,212.574-211.277,212.574c-116.64,0-211.277-95.152-211.277-212.574
		C19.213,114.485,113.851,19.333,230.49,19.333L230.49,19.333z"/>
</g>
</svg>
