<?xml version="1.0" encoding="utf-8"?>
<!-- Generator: Adobe Illustrator 15.0.0, SVG Export Plug-In . SVG Version: 6.00 Build 0)  -->
<!DOCTYPE svg PUBLIC "-//W3C//DTD SVG 1.1//EN" "http://www.w3.org/Graphics/SVG/1.1/DTD/svg11.dtd">
<svg version="1.1" id="Layer_8" xmlns="http://www.w3.org/2000/svg" xmlns:xlink="http://www.w3.org/1999/xlink" x="0px" y="0px"
	 width="460.98px" height="463.81px" viewBox="0 0 460.98 463.81" enable-background="new 0 0 460.98 463.81" xml:space="preserve">
<g>
	<rect x="337.42" y="93.036" fill-rule="evenodd" clip-rule="evenodd" fill="#9FB3D2" width="35.777" height="131.767"/>
	<rect x="301.776" y="142.149" fill-rule="evenodd" clip-rule="evenodd" fill="#FFFFFF" width="35.712" height="82.653"/>
	<rect x="265.996" y="174.117" fill-rule="evenodd" clip-rule="evenodd" fill="#9FB3D2" width="35.78" height="50.686"/>
	<path fill-rule="evenodd" clip-rule="evenodd" fill="#9FB3D2" d="M399.27,230.814l-27.973,20.831l12.831,3.826
		c-1.152,3.895-2.037,30.535-36.051,64.278c-33.81,33.538-65.989,28.21-66.397,28.21c-4.82,0.137-8.757,4.51-8.35,9.633
		c0.203,4.849,4.548,8.812,9.571,8.401c1.834,0,35.101,8.333,81.404-36.681c0.679-0.684,28.717-28.008,37.475-68.377l10.999,3.279
		L399.27,230.814z"/>
	<path fill-rule="evenodd" clip-rule="evenodd" fill="#9FB3D2" d="M230.49,0c127.297,0,230.492,103.827,230.492,231.904
		S357.787,463.809,230.49,463.809S-0.002,359.982-0.002,231.905S103.193,0,230.49,0L230.49,0z M230.49,19.333
		c116.705,0,211.277,95.221,211.277,212.571c0,117.422-94.572,212.574-211.277,212.574c-116.706,0-211.28-95.152-211.28-212.574
		C19.21,114.554,113.784,19.333,230.49,19.333L230.49,19.333z"/>
	<path fill-rule="evenodd" clip-rule="evenodd" fill="#FFFFFF" d="M176.04,189.077c28.312,0,51.258-23.156,51.258-51.64
		c0-28.416-22.946-51.572-51.258-51.572c-28.243,0-51.258,23.156-51.258,51.572C125.121,165.92,148.136,189.077,176.04,189.077
		L176.04,189.077z M220.985,374.395l-6.994-91.326l33.201,13.661c60.354,11.407,66.058,6.421,68.502,4.575
		c9.573-7.854,2.85-21.037-1.834-29.509l-54.653-27.049l-40.938-49.796l-48.203,0.41l-37.069-0.342l-52.276,77.392
		c0,0-17.244,68.99-13.715,81.56c3.531,12.569,17.925,16.393,21.251,13.524c3.258-2.801,10.318-19.399,10.318-19.399l12.765-34.905
		l16.157-20.629l-5.362,81.833H220.985z M133.539,361.416l5.297-99.317l-36.526,39.754l-17.855,50.275l-6.381-4.988l9.912-63.32
		l52.072-74.455l73.934-0.684l37.68,50.891l51.734,23.906c0.815,1.982,1.629,3.963,1.9,5.262
		c-9.098,0.339-35.777-3.279-58.861-7.584l-43.722-19.74l6.924,100.001H133.539z M176.04,101.028
		c19.96,0,36.188,16.327,36.188,36.409c0,20.15-16.228,36.475-36.188,36.475s-36.186-16.324-36.186-36.475
		C140.194,117.355,156.42,101.028,176.04,101.028L176.04,101.028z"/>
</g>
</svg>
