<?xml version="1.0" encoding="utf-8"?>
<!-- Generator: Adobe Illustrator 15.0.0, SVG Export Plug-In . SVG Version: 6.00 Build 0)  -->
<!DOCTYPE svg PUBLIC "-//W3C//DTD SVG 1.1//EN" "http://www.w3.org/Graphics/SVG/1.1/DTD/svg11.dtd">
<svg version="1.1" id="Layer_6" xmlns="http://www.w3.org/2000/svg" xmlns:xlink="http://www.w3.org/1999/xlink" x="0px" y="0px"
	 width="460.98px" height="463.81px" viewBox="0 0 460.98 463.81" enable-background="new 0 0 460.98 463.81" xml:space="preserve">
<g>
	<path fill-rule="evenodd" clip-rule="evenodd" fill="#9FB3D2" d="M230.49,0c127.297,0,230.492,103.827,230.492,231.905
		c0,128.077-103.195,231.905-230.492,231.905S-0.002,359.982-0.002,231.905C-0.002,103.828,103.193,0,230.49,0L230.49,0z
		 M230.49,19.333c116.705,0,211.28,95.152,211.28,212.572c0,117.354-94.575,212.575-211.28,212.575
		c-116.708,0-211.28-95.221-211.28-212.575C19.21,114.485,113.782,19.333,230.49,19.333L230.49,19.333z"/>
	<path fill="#9FB3D2" d="M406.467,313.669l-23.899-40.164c5.092-1.502,7.534-7.105,6.042-10.518
		c-2.171-4.441-5.771,9.424-10.184,0.273c-4.413-9.154-11.542-20.492-23.693-24.113c-8.826-2.596-23.286-0.41-30.552,1.025v-50.344
		h-9.1v50.276c-7.331-1.436-21.588-3.553-30.277-0.957c-12.084,3.621-19.283,14.959-23.696,24.113
		c-4.413,9.15-7.941-4.715-10.184-0.273c-1.627,3.348,0.613,8.947,5.842,10.518l-24.238,40.164h-3.329
		c0,18.035,14.597,32.721,32.454,32.721c17.923,0,32.52-14.686,32.52-32.721h-3.937l-24.375-41.531h-0.066
		c6.042-3.688,7.266-12.498,14.597-19.398c9.571-9.018,26.544,2.254,34.69,8.744v22.541h9.1v-22.336
		c8.079-6.422,25.323-18.104,34.964-8.949c7.469,6.832,8.826,15.438,14.395,19.195l-0.07,0.203l-24.781,41.531h-3.597
		c0,18.035,14.597,32.721,32.521,32.721c18.126,0,32.723-14.686,32.723-32.721H406.467z M359.89,313.669l17.723-29.645
		l17.581,29.645H359.89z M243.729,313.669l17.923-29.645l17.446,29.645H243.729z"/>
	<path fill-rule="evenodd" clip-rule="evenodd" fill="#FFFFFF" d="M168.572,170.02c28.312,0,51.258-23.156,51.258-51.572
		c0-28.486-22.946-51.574-51.258-51.574c-28.313,0-51.259,23.088-51.259,51.574C117.653,146.864,140.671,170.02,168.572,170.02
		L168.572,170.02z M216.37,355.339l-2.716-101.369l58.452-8.676c50.648-31.147,56.147-36.204,57.303-39.004
		c4.413-11.609-7.878-19.672-16.159-24.658l-56.484,12.566l-43.111-18.235l-51.124,0.339l-41.279-0.273l-52.343,77.395
		c0,0-17.176,68.99-13.646,81.561c3.528,12.566,17.923,16.324,21.251,13.523c3.258-2.869,10.318-19.467,10.318-19.467l12.765-34.838
		l16.157-20.697l-5.365,81.834H216.37z M121.795,342.359l5.297-99.248l-36.527,39.686L72.708,333.07l-6.379-4.986l9.91-63.32
		l52.074-74.387l81.062-0.684l48.203,21.176l52.346-13.869c1.697,1.299,3.395,2.598,4.276,3.621
		c-7.671,4.852-28.313,23.703-50.512,31.627l-61.308,10.112l2.65,100H121.795z M168.572,82.039c19.962,0,36.186,16.325,36.186,36.41
		c0,20.08-16.224,36.407-36.186,36.407c-19.96,0-36.186-16.327-36.186-36.407C132.727,98.363,148.952,82.039,168.572,82.039
		L168.572,82.039z"/>
</g>
</svg>
