<?xml version="1.0" encoding="utf-8"?>
<!-- Generator: Adobe Illustrator 15.0.0, SVG Export Plug-In . SVG Version: 6.00 Build 0)  -->
<!DOCTYPE svg PUBLIC "-//W3C//DTD SVG 1.1//EN" "http://www.w3.org/Graphics/SVG/1.1/DTD/svg11.dtd">
<svg version="1.1" id="Layer_7" xmlns="http://www.w3.org/2000/svg" xmlns:xlink="http://www.w3.org/1999/xlink" x="0px" y="0px"
	 width="460.98px" height="463.81px" viewBox="0 0 460.98 463.81" enable-background="new 0 0 460.98 463.81" xml:space="preserve">
<g>
	<polygon fill="#9FB3D2" points="397.844,199.594 404.836,170.701 394.244,175.962 355.41,115.782 330.971,130.877 312.434,105.81 
		300.553,113.938 327.168,149.8 352.219,135.182 382.701,180.264 372.857,185.797 	"/>
	<path fill-rule="evenodd" clip-rule="evenodd" fill="#FFFFFF" d="M166.806,394.819l0.205-87.366l-20.844,4.373l-2.036-1.094
		c-59.066-32.72-60.355-40.301-61.034-43.238c-2.037-10.18,8.01-17.419,17.72-20.767l2.239-0.889l44.538,11.681l51.258-37.842
		l36.525,4.03l36.596-4.03l51.258,37.842l44.535-11.681l2.242,0.889c9.707,3.348,19.758,10.587,17.721,20.767
		c-0.68,2.938-1.971,10.519-61.037,43.238l-2.037,1.094l-25.051-4.373l0.137,87.366H166.806z M235.445,239.556l-34.081-3.278
		l-50.784,37.568l-46.776-12.296c-1.834,0.957-3.734,1.98-4.821,2.869c6.857,6.08,29.804,20.219,50.377,31.694l31.841-5.737
		l-0.271,92.898h104.688l-0.271-92.898l36.119,5.737c20.57-11.476,43.52-25.614,50.375-31.694c-1.084-0.889-2.986-1.912-4.818-2.869
		l-46.779,12.296l-50.783-37.568L235.445,239.556z M248.684,215.033c27.09-8.265,42.365-37.159,34.152-64.414
		c-8.285-27.186-37.002-42.624-64.024-34.29c-27.089,8.265-42.364,37.158-34.148,64.414
		C193.284,207.793,222.003,223.229,248.684,215.033L248.684,215.033z M223.225,130.809c19.078-5.806,39.308,4.986,45.148,24.25
		c5.84,19.263-4.955,39.618-24.102,45.424c-19.079,5.875-39.309-4.985-45.148-24.182
		C193.624,156.971,204.42,136.616,223.225,130.809L223.225,130.809z"/>
	<path fill-rule="evenodd" clip-rule="evenodd" fill="#9FB3D2" d="M230.49,0c127.297,0,230.493,103.827,230.493,231.904
		S357.787,463.809,230.49,463.809c-127.297,0-230.492-103.827-230.492-231.904S103.193,0,230.49,0L230.49,0z M230.49,19.333
		c116.637,0,211.278,95.152,211.278,212.572c0,117.422-94.641,212.574-211.278,212.574c-116.705,0-211.279-95.152-211.279-212.574
		C19.21,114.485,113.785,19.333,230.49,19.333L230.49,19.333z"/>
	<path fill="#9FB3D2" d="M48.949,202.327l77.87-32.036l4.073,10.042l-77.87,32.037L48.949,202.327z M147.526,181.084
		c0.815,0.205,1.563,0.41,2.376,0.75c3.734,1.572,6.857,4.578,8.486,8.609l3.124,7.854c1.629,4.028,1.494,8.333-0.068,12.091
		c-0.34,0.817-0.68,1.502-1.153,2.254l0.95,2.321c3.463,8.538-0.679,18.444-9.165,21.857l-75.089,30.74
		c-4.21,1.774-8.758,1.569-12.763-0.068c-3.939-1.709-7.266-4.85-8.963-9.153l-20.436-50.412c-1.629-4.098-1.629-8.676,0.137-12.841
		c1.697-3.963,4.82-7.311,9.097-9.017c24.983-10.245,50.037-20.493,75.021-30.738c8.486-3.483,18.331,0.682,21.794,9.22
		L147.526,181.084z M151.464,206.153c0.475-1.162,0.543-2.459,0-3.758l-3.123-7.854c-0.545-1.229-1.494-2.186-2.647-2.664
		c-2.174-0.957-3.6-0.068-5.568,0.684l-18.193,7.513c-1.224,0.479-2.174,1.437-2.65,2.596c-0.474,1.162-0.542,2.527-0.065,3.826
		l3.189,7.854c0.545,1.23,1.494,2.186,2.647,2.664c1.155,0.479,2.513,0.547,3.802,0l19.35-7.923
		C149.63,208.475,150.717,207.997,151.464,206.153L151.464,206.153z M123.153,165.441l-75.021,30.74
		c-1.426,0.545-2.579,1.707-3.191,3.14c-0.61,1.367-0.679,3.006,0,4.51c6.789,16.804,13.578,33.606,20.367,50.41
		c0.613,1.504,1.766,2.598,3.124,3.21c1.426,0.616,2.986,0.616,4.481,0l75.088-30.737c2.784-1.094,4.276-4.236,3.395-7.173
		l-18.467,7.583c-4.006,1.639-8.35,1.502-12.084-0.068c-3.734-1.572-6.857-4.578-8.486-8.606l-3.192-7.854
		c-1.629-4.031-1.426-8.404,0.137-12.091c1.561-3.758,4.548-6.969,8.555-8.606l18.466-7.516l-5.5-13.729
		C129.603,165.646,126.14,164.213,123.153,165.441L123.153,165.441z"/>
	<path fill-rule="evenodd" clip-rule="evenodd" fill="#FFFFFF" d="M127.498,200.141c3.395-1.364,7.197,0.273,8.555,3.621
		c1.358,3.348-0.271,7.171-3.598,8.539c-3.328,1.364-7.128-0.205-8.486-3.553C122.611,205.333,124.171,201.509,127.498,200.141
		L127.498,200.141z"/>
</g>
</svg>
