<svg xmlns="http://www.w3.org/2000/svg" viewBox="0 0 34.66 51"><defs><style>.cls-1{fill:#415275;}</style></defs><title>Bitcoin</title><g id="Layer_2" data-name="Layer 2"><g id="Layer_1-2" data-name="Layer 1"><path class="cls-1" d="M20.64,39.23a12.85,12.85,0,0,1-3.08.35H16.43A19.7,19.7,0,0,1,14,39.45V28h3.14a14.72,14.72,0,0,1,3.5.38c2.82.69,4.76,2.37,4.76,5.34,0,3.13-2,4.83-4.76,5.5ZM14,12.54a20.81,20.81,0,0,1,2.43-.21c.44,0,.93,0,1.49,0a11.41,11.41,0,0,1,2.72.29c2.45.59,3.79,2.09,3.79,4.41,0,2.14-1.31,3.76-3.79,4.52A12.39,12.39,0,0,1,17,22H14V12.54ZM27,24v-.12c4.34-1.69,6.34-5.09,6.34-8.72a9,9,0,0,0-4.63-8A16,16,0,0,0,21,5V0H17V5.39c-1.24,0-2.1,0-3,0V0L10,1V6.12c-1.29.09-2.48.21-3.48.34H6.46c-.55.07-1,.15-1.46.23V6.16A17,17,0,0,0,0,7.74V10H3.17A1.85,1.85,0,0,1,5,11.45V40.9A7.12,7.12,0,0,1,3.17,43H1v1.92c.68,1.52,6,2,6,2v-.85c.87.09,1.87.18,3,.24V51h4V46.73h1l2,0V51h4V46.14c4.53-.5,7.6-1.68,9.66-3.41a11.12,11.12,0,0,0,4-8.66A10.09,10.09,0,0,0,27,24Z"/></g></g></svg>