<?xml version="1.0" encoding="utf-8"?>
<!-- Generator: Adobe Illustrator 19.0.0, SVG Export Plug-In . SVG Version: 6.00 Build 0)  -->
<svg version="1.1" id="Layer_1" xmlns="http://www.w3.org/2000/svg" xmlns:xlink="http://www.w3.org/1999/xlink" x="0px" y="0px"
	 viewBox="215.4 67.7 100 100" style="enable-background:new 215.4 67.7 100 100;" xml:space="preserve">
<style type="text/css">
	.st0{fill:none;}
	.st1{fill:#415275;}
</style>
<rect x="215.4" y="67.7" class="st0" width="100" height="100"/>
<path id="XMLID_112_" class="st1" d="M265.1,115c-0.4,0.1-1.5,0.4-2.3,0.6l-1.7-6.8c0.3-0.1,2.1-0.6,2.9-0.8
	c0.3-0.1,1.7-0.4,2.3-0.4c0.9,0,1.8,0.2,2.4,0.7c0.6,0.5,1.1,1.4,1.2,2.2c0.1,0.8,0,1.7-0.5,2.3c-0.6,0.6-1.2,1-1.9,1.4
	C266.7,114.5,265.8,114.8,265.1,115z M273.7,119.5c-0.7-1.2-2.2-1.7-3.5-1.7c-1.2,0-2.4,0.2-3.6,0.5c-0.6,0.1-2.5,0.6-3,0.8l1.8,7.4
	c0.1,0,0.2-0.1,0.2-0.1c1.3-0.4,2.7-0.7,4.1-1.1c1.3-0.4,2.7-1,3.5-2.1C274,122.1,274.3,120.6,273.7,119.5z M296.3,117.4
	c0,17.1-13.8,30.9-30.9,30.9s-30.9-13.8-30.9-30.9s13.8-30.9,30.9-30.9C282.5,86.5,296.3,100.4,296.3,117.4z M280.9,119.8
	c-0.1-1.4-0.6-2.7-1.3-3.7c-0.7-1-1.5-1.7-2.6-2c-0.8-0.3-1.6-0.4-2.4-0.4c-0.1,0-0.2,0-0.3,0c0.1-0.1,0.1-0.2,0.2-0.2
	c0.5-0.5,0.9-1.1,1.2-1.7c1.1-2.4,0.2-5.3-1.7-7.1c-1-1-2.4-1.4-3.7-1.6c-1.9-0.2-4.2,0.4-4.2,0.4l-1.3-5.4l-3.5,0.9l1.3,5.4
	c-0.9,0.2-2.1,0.6-2.5,0.7l-1.3-5.4l-3.5,0.9l1.3,5.4c-2.6,0.7-5.6,1.5-6.7,1.8c0,0.1,0,0.2,0,0.2c0.3,1.3,0.9,3.5,0.9,3.5
	c0.1,0,2-0.7,2.8-0.8c0.6-0.1,1.1,0,1.5,0.4c0.3,0.3,0.4,0.7,0.5,1c0.1,0.5,3.5,13.9,3.6,14.5c0.1,0.3,0.1,0.6,0,0.9
	c-0.1,0.2-0.1,0.3-0.3,0.5c-0.5,0.4-2.4,0.7-2.8,0.8c-0.2,0.1-0.2,0.1-0.2,0.3c0,0.4,0.3,4,0.3,4c2.3-0.6,4.7-1.1,6.7-1.6l1.4,5.6
	l3.5-0.9l-1.4-5.6c0.9-0.2,1.8-0.4,2.5-0.7l1.4,5.6l3.5-0.9l-1.4-5.6c0.5-0.1,0.9-0.2,1-0.3c2.8-0.7,5.8-2.4,6.9-5.2
	C280.9,122.3,281,121,280.9,119.8z M227.7,117.4c0-12.7,6.2-23.9,15.8-30.7h-28.1v61.5h28.1C233.9,141.3,227.7,130.1,227.7,117.4z
	 M287.3,86.7c9.6,6.8,15.8,18.1,15.8,30.7s-6.2,23.9-15.8,30.7h28.1V86.7H287.3z"/>
</svg>
