<?xml version="1.0" encoding="iso-8859-1"?>
<!-- Generator: Adobe Illustrator 19.0.0, SVG Export Plug-In . SVG Version: 6.00 Build 0)  -->
<svg version="1.1" id="Layer_1" xmlns="http://www.w3.org/2000/svg" xmlns:xlink="http://www.w3.org/1999/xlink" x="0px" y="0px"
	 viewBox="0 0 400 400" style="enable-background:new 0 0 400 400;" xml:space="preserve">
<style type="text/css">
	.st0{fill:#415275;}
</style>
<path id="XMLID_21_" class="st0" d="M320.1,294.8c7.2-9.7,11.6-21.4,13.5-33.2c2.1-13.2,1.2-27-3.3-39c-4-10.8-10.4-19.5-20.2-25.9
	c-7-4.5-14.5-7.7-22.4-10.2c-0.8-0.2-1.5-0.6-2.7-1.1c1.1-0.7,1.7-1.2,2.3-1.6c6.1-3.5,11.4-8,15.8-13.5
	c15.9-19.9,14.5-50.8,1.1-71.6c-7.5-11.6-19.4-19.4-32.2-24.1c-17.6-6.4-41.3-6.4-41.4-6.4l0-54.7l-35.4,0l0,55
	c-9.4,0.1-21.7,0.3-25.8,0.4l0-54.6l-35.4,0l0,55.2C108,70,77.2,70.4,65.5,70.4c-0.2,1-0.5,1.6-0.5,2.2c0,13.4,0.1,35.4,0.2,35.6
	c1.4,0,20.7-1.7,28.8-0.8c5.5,0.6,10.2,2.8,13.2,7.7c2.1,3.4,2.5,7.2,2.5,11.1c0.1,5.2,0.8,142.1,0.3,147.3
	c-0.3,2.9-0.7,5.7-2.2,8.2c-1,1.7-2.1,3.1-4.1,4.1c-5.6,2.7-24.9,0.8-28.9,1.5c-2.5,0.4-2.6,0.3-3,2.6c-0.7,3.5-6.6,39.2-6.3,39.2
	c23.7,0.3,47.8,0.3,68.4,0.3l0,57l35.4,0l0-57.1c9.3-0.1,17.9-0.1,25.8-0.2l0,56.5l35.4,0l0-57c5.3-0.1,9-0.1,10.7-0.2
	C270.1,328.1,302.3,318.8,320.1,294.8z M169.5,178.7l0-68.8c2.7-0.1,21.2-0.4,29.9-0.4c3.5,0,17.3,0.5,22.7,2
	c8.4,2.3,16.8,6.1,21.3,11.9c4.9,6.3,7.1,16,6.5,23.7c-0.6,8-3.7,15.8-10.5,20.3c-6.9,4.5-13.5,6.7-21.5,8.5
	c-7.6,1.7-17.1,2-24.9,2.4C188.8,178.5,177.8,178.8,169.5,178.7z M212.8,286.8c-13.8,1-27.6,0.2-41.4,1c-0.2,0-1,0.1-1.9,0.1l0-75
	c5.6-0.2,25.1-0.5,30.8-0.4c11.6,0.1,23.9,0.8,35.2,3.9c12.5,3.5,25.7,11.5,29.2,24.9c3.4,12.8-3.1,26-13.1,33.9
	C241,283.5,226,285.9,212.8,286.8z"/>
</svg>
