<?xml version="1.0" encoding="iso-8859-1"?>
<!-- Generator: Adobe Illustrator 19.0.0, SVG Export Plug-In . SVG Version: 6.00 Build 0)  -->
<svg version="1.1" id="Layer_1" xmlns="http://www.w3.org/2000/svg" xmlns:xlink="http://www.w3.org/1999/xlink" x="0px" y="0px"
	 viewBox="0 0 400 400" style="enable-background:new 0 0 400 400;" xml:space="preserve">
<style type="text/css">
	.st0{fill:#415275;}
</style>
<path id="XMLID_112_" class="st0" d="M198.4,191.2c-1.6,0.5-5.7,1.6-8.8,2.3l-6.4-25.8c1-0.3,7.9-2.1,11.2-2.9
	c1.3-0.3,6.5-1.4,8.7-1.4c3.4,0.1,6.9,0.7,9.1,2.5c2.4,1.9,4.2,5.3,4.6,8.3c0.5,3.1,0.1,6.3-2,8.6c-2.2,2.3-4.4,3.8-7.3,5.2
	C204.8,189.3,201.3,190.3,198.4,191.2z M231.2,208.1c-2.6-4.7-8.3-6.5-13.3-6.6c-4.5-0.1-9.2,0.8-13.6,1.8c-2.1,0.5-9.5,2.4-11.5,3
	l7,28.1c0.4-0.1,0.6-0.2,0.7-0.2c5.1-1.6,10.4-2.6,15.5-4.2c4.8-1.6,10.3-3.9,13.5-8C232.5,218.2,233.7,212.6,231.2,208.1z
	 M317.6,200.3c0,65.1-52.8,117.9-117.9,117.9S81.9,265.4,81.9,200.3S134.7,82.5,199.8,82.5S317.6,135.2,317.6,200.3z M258.9,209.4
	c-0.4-5.2-2.1-10.2-4.9-14.3c-2.5-3.7-5.7-6.4-10-7.8c-3-1.1-6.2-1.5-9.3-1.7c-0.3,0-0.6-0.1-1.1-0.1c0.3-0.4,0.5-0.6,0.7-0.8
	c2-1.9,3.5-4.1,4.7-6.6c4.1-9,0.7-20.4-6.3-27c-3.9-3.7-9.1-5.5-14.3-6c-7.2-0.8-16.1,1.5-16.1,1.5l-5.1-20.5l-13.3,3.3l5.1,20.6
	c-3.5,0.9-8.1,2.1-9.6,2.5l-5.1-20.5l-13.3,3.3l5.1,20.7c-9.8,2.6-21.3,5.6-25.7,6.7c0,0.4,0,0.6,0,0.9c1.2,5,3.3,13.3,3.4,13.4
	c0.5-0.1,7.6-2.6,10.7-3c2.1-0.3,4.1,0.1,5.7,1.7c1.1,1.1,1.6,2.5,2,3.9c0.5,2,13.5,53.2,13.8,55.3c0.2,1.1,0.3,2.2,0,3.3
	c-0.2,0.7-0.5,1.3-1.1,1.9c-1.8,1.5-9.3,2.6-10.7,3.2c-0.9,0.4-0.9,0.3-0.9,1.2c0.1,1.4,1.2,15.3,1.3,15.3c8.9-2.1,18-4.3,25.7-6.2
	l5.3,21.4l13.3-3.3l-5.3-21.4c3.5-0.9,6.7-1.7,9.6-2.5l5.3,21.2l13.3-3.3l-5.3-21.4c2-0.5,3.4-0.9,4-1.1c10.7-2.8,22-9.3,26.4-20
	C258.7,218.8,259.3,214,258.9,209.4z M55.7,200.3c0-48.4,23.8-91.2,60.4-117.3H8.9v234.6h107.2C79.6,291.5,55.7,248.7,55.7,200.3z
	 M283.4,83.1c36.6,26.1,60.4,68.9,60.4,117.3s-23.8,91.2-60.4,117.3h107.2V83.1H283.4z"/>
</svg>
