<?xml version="1.0" encoding="utf-8"?>
<!-- Generator: Adobe Illustrator 19.0.0, SVG Export Plug-In . SVG Version: 6.00 Build 0)  -->
<svg version="1.1" id="Layer_1" xmlns="http://www.w3.org/2000/svg" xmlns:xlink="http://www.w3.org/1999/xlink" x="0px" y="0px"
	 viewBox="-312.4 53.7 100 100" style="enable-background:new -312.4 53.7 100 100;" xml:space="preserve">
<style type="text/css">
	.st0{fill:#415275;}
	.st1{fill:none;}
</style>
<path class="st0" d="M-234.6,108.6c-0.9-2.3-2.2-4.2-4.3-5.5c-1.5-1-3.1-1.6-4.8-2.2c-0.2,0-0.3-0.1-0.6-0.2
	c0.2-0.1,0.4-0.3,0.5-0.3c1.3-0.7,2.4-1.7,3.4-2.9c3.4-4.2,3.1-10.8,0.2-15.3c-1.6-2.5-4.1-4.1-6.9-5.1c-3.8-1.4-8.8-1.4-8.8-1.4
	V64.2h-7.6v11.4c-2,0-4.6,0.1-5.5,0.1V64.2h-7.6v11.6c-5.5,0.1-12.1,0.2-14.6,0.2c0,0.2-0.1,0.3-0.1,0.5c0,2.9,0,7.6,0,7.6
	c0.3,0,4.4-0.4,6.1-0.2c1.2,0.1,2.2,0.6,2.8,1.6c0.4,0.7,0.5,1.5,0.5,2.4c0,1.1,0.2,30.3,0.1,31.4c-0.1,0.6-0.1,1.2-0.5,1.8
	c-0.2,0.4-0.4,0.7-0.9,0.9c-1.2,0.6-5.3,0.2-6.2,0.3c-0.5,0.1-0.6,0.1-0.6,0.6c-0.1,0.7-1.4,8.4-1.3,8.4c5.1,0.1,10.2,0.1,14.6,0.1
	v11.9h7.6v-11.9c2,0,3.8,0,5.5,0v12h7.6v-12.1c1.1,0,1.9,0,2.3,0c6.2-0.1,13-2,16.8-7.2c1.5-2.1,2.5-4.6,2.9-7.1
	C-233.4,114.1-233.6,111.1-234.6,108.6z M-268.9,84.5c0.6,0,4.5-0.1,6.4-0.1c0.7,0,3.7,0.1,4.8,0.4c1.8,0.5,3.6,1.3,4.5,2.5
	c1,1.3,1.5,3.4,1.4,5.1c-0.1,1.7-0.8,3.4-2.2,4.3c-1.5,1-2.9,1.4-4.6,1.8c-1.6,0.4-3.7,0.4-5.3,0.5c-0.9,0-3.2,0.1-5,0.1V84.5z
	 M-251.4,119.8c-2.3,1.8-5.5,2.3-8.3,2.5c-2.9,0.2-5.9,0-8.8,0.2c0,0-0.2,0-0.4,0v-16c1.2,0,5.4-0.1,6.6-0.1c2.5,0,5.1,0.2,7.5,0.8
	c2.7,0.7,5.5,2.5,6.2,5.3C-247.8,115.3-249.2,118.1-251.4,119.8z"/>
<rect x="-312.4" y="53.7" class="st1" width="100" height="100"/>
</svg>
