<svg xmlns="http://www.w3.org/2000/svg" viewBox="0 0 35.43 54.94"><defs><style>.cls-1{fill:#415275;}.cls-2{fill:#314466;}.cls-3{fill:#364b70;}.cls-4{fill:#2f425e;}</style></defs><title>Etherium</title><g id="Layer_2" data-name="Layer 2"><g id="Layer_1-2" data-name="Layer 1"><polyline class="cls-1" points="35.43 30.68 17.71 0 0 30.68 0.07 30.73 0 30.77 0.14 30.77 17.71 42.13 35.29 30.77 35.43 30.77 35.36 30.73 35.43 30.68"/><polyline class="cls-1" points="17.71 54.94 0 33.06 17.71 44.79 35.43 33.06 17.71 54.94"/><polyline class="cls-2" points="35.36 31.11 35.43 30.77 35.29 30.77 17.71 19.7 0.14 30.77 0 30.77 0.07 31.11 0 31.77 0.14 31.77 17.71 42.52 35.29 31.77 35.43 31.77 35.36 31.11"/><polyline class="cls-1" points="35.3 30.67 17.84 19.38 17.84 0.43 35.3 30.67"/><polyline class="cls-3" points="17.84 41.86 17.84 41.86 17.84 30.77 34.99 30.77 17.84 41.86"/><polyline class="cls-4" points="34.99 30.77 34.99 30.77 17.84 30.77 17.84 19.36 35.24 30.61 34.99 30.77"/></g></g></svg>