<?xml version="1.0" encoding="utf-8"?>
<!-- Generator: Adobe Illustrator 15.0.0, SVG Export Plug-In . SVG Version: 6.00 Build 0)  -->
<!DOCTYPE svg PUBLIC "-//W3C//DTD SVG 1.1//EN" "http://www.w3.org/Graphics/SVG/1.1/DTD/svg11.dtd">
<svg version="1.1" id="Layer_1" xmlns="http://www.w3.org/2000/svg" xmlns:xlink="http://www.w3.org/1999/xlink" x="0px" y="0px"
	 width="500px" height="500px" viewBox="0 0 500 500" enable-background="new 0 0 500 500" xml:space="preserve">
<g>
	<path fill-rule="evenodd" clip-rule="evenodd" fill="#9FB3D2" d="M137.291,375.582H43.344l57.941-143.795h61.076l40.888,54.995
		l70.84,2.859l-21.063,13.86c-2.403,1.612-5.248,4.473-6.047,6.087c0.435,0.363,1.605,1.244,3.644,1.611l21.063,7.774l-21.063,7.331
		c-20.26,6.894-58.67,15.473-60.345,15.84l-2.407,0.439l-33.161-15.105L137.291,375.582z M67.688,359.232h58.232l19.458-53.311
		l44.093,19.943c6.924-1.612,26.313-5.719,42.565-10.558c-0.438-1.248-0.875-2.493-0.875-3.667c-0.364-2.859,0-5.352,1.24-7.333
		l-36.805-1.687l-40.523-54.557h-42.051L67.688,359.232z M137.291,228.561c-30.393,0-55.1-24.858-55.1-55.436
		c0-30.507,24.707-55.365,55.1-55.365c30.316,0,55.026,24.858,55.026,55.365C191.952,203.702,167.243,228.561,137.291,228.561
		L137.291,228.561z M137.291,134.039c-21.5,0-38.845,17.525-38.845,39.086c0,21.632,17.345,39.083,38.845,39.083
		c21.426,0,38.845-17.451,38.845-39.083C175.771,151.564,158.353,134.039,137.291,134.039L137.291,134.039z"/>
	<path fill-rule="evenodd" clip-rule="evenodd" fill="#F18036" d="M455.493,375.582h-93.581l-17.347-47.662l-33.234,15.032
		l-2.403-0.367c-70.842-15.105-74.486-22.438-76.091-25.298c-5.319-9.754,2.844-20.311,11.737-26.838l2.04-1.614l49.339-2.053
		l40.888-54.995h61.146L455.493,375.582z M372.844,359.232h58.306L386.62,248.064h-42.055l-40.522,54.557l-51.816,2.053
		c-1.604,1.615-3.208,3.301-4.009,4.475c8.891,4.104,36.804,11.438,61.512,16.717l44.095-19.943L372.844,359.232z M361.912,228.561
		c-30.317,0-55.026-24.858-55.026-55.436c0-30.507,24.709-55.365,55.026-55.365c30.393,0,55.099,24.858,55.099,55.365
		C416.572,203.702,391.939,228.561,361.912,228.561L361.912,228.561z M361.912,134.039c-21.428,0-38.846,17.525-38.846,39.086
		c0,21.632,17.418,39.083,38.846,39.083c21.499,0,38.92-17.451,38.92-39.083C400.395,151.564,382.977,134.039,361.912,134.039
		L361.912,134.039z"/>
	<path fill-rule="evenodd" clip-rule="evenodd" fill="#9FB3D2" d="M382.174,389.809l-42.927-6.525l7.724,14.664
		c-4.443,2.493-37.241,19.14-110.49,20.387c-76.162,1.246-113.767-31.385-114.569-31.752c-4.446-4.106-11.734-3.666-15.813,0.808
		c-4.009,4.472-3.644,11.806,0.799,15.837c1.604,1.688,42.489,37.471,125.504,37.471c1.24,0,2.842,0,4.079,0
		c75.654-1.172,112.532-18.699,120.622-22.803l6.852,13.051L382.174,389.809z"/>
	<path fill-rule="evenodd" clip-rule="evenodd" fill="#F18036" d="M137.291,110.429l42.927,6.085l-8.09-14.667
		c4.446-2.419,28.277-25.223,87.823-25.223c59.107,0,82.94,32.997,83.377,33.365c4.445,4.106,11.733,3.666,15.816-1.175
		c4.008-4.471,3.644-11.804-1.24-15.912c-1.603-1.612-23.904-38.276-104.074-39.083c-1.167,0-49.78-0.44-92.634,27.645
		l-6.924-12.613L137.291,110.429z"/>
	<path fill-rule="evenodd" clip-rule="evenodd" fill="#9FB3D2" d="M249.747,1.536c136.654,0,247.434,111.458,247.434,248.95
		c0,137.489-110.78,248.947-247.434,248.947c-136.653,0-247.36-111.458-247.36-248.947C2.386,112.994,113.093,1.536,249.747,1.536
		L249.747,1.536z M249.747,22.288c125.283,0,226.883,102.219,226.883,228.198c0,126.051-101.601,228.197-226.883,228.197
		c-125.21,0-226.81-102.146-226.81-228.197C22.937,124.506,124.536,22.288,249.747,22.288L249.747,22.288z"/>
</g>
</svg>
