<?xml version="1.0" encoding="utf-8"?>
<!-- Generator: Adobe Illustrator 15.0.0, SVG Export Plug-In . SVG Version: 6.00 Build 0)  -->
<!DOCTYPE svg PUBLIC "-//W3C//DTD SVG 1.1//EN" "http://www.w3.org/Graphics/SVG/1.1/DTD/svg11.dtd">
<svg version="1.1" id="Layer_1" xmlns="http://www.w3.org/2000/svg" xmlns:xlink="http://www.w3.org/1999/xlink" x="0px" y="0px"
	 width="500px" height="473.623px" viewBox="0 0 500 473.623" enable-background="new 0 0 500 473.623" xml:space="preserve">
<path fill="#7A92BC" d="M76.818,250.213c-0.317-4.524-0.479-9.036-0.479-13.402c0-4.369,0.162-8.875,0.479-13.401l0.488-6.903
	h422.591c-1.23-14.405-3.772-28.679-7.596-42.59H86.784l4.384-10.329c29.485-69.488,97.303-114.39,172.776-114.39
	c63.132,0,121.198,31.171,156.146,83.587h56.646C437.107,51.752,354.796,0,263.948,0c-51.948,0-101.253,16.506-142.585,47.728
	c-39.994,30.217-69.912,73.15-84.245,120.896l-1.591,5.293H7.208c-3.392,13.945-5.649,28.218-6.736,42.59H27.87l-0.409,7.81
	c-0.216,4.19-0.325,8.389-0.325,12.494c0,4.104,0.11,8.308,0.325,12.494l0.409,7.81H0.494c1.106,14.367,3.384,28.637,6.798,42.59
	h28.233l1.591,5.293c14.334,47.746,44.251,90.68,84.245,120.896c41.331,31.221,90.637,47.729,142.583,47.729
	c123.154,0,225.32-94.766,235.919-216.482l-422.56-0.023L76.818,250.213z M441.094,299.705l-4.379,10.33
	c-29.485,69.482-97.302,114.389-172.767,114.389c-75.476,0-143.293-44.906-172.777-114.389l-4.385-10.33H441.094L441.094,299.705z"
	/>
</svg>
