<?xml version="1.0" encoding="UTF-8"?>
<svg width="519px" height="154px" viewBox="0 0 519 154" version="1.1" xmlns="http://www.w3.org/2000/svg" xmlns:xlink="http://www.w3.org/1999/xlink">
    <!-- Generator: Sketch 46.2 (44496) - http://www.bohemiancoding.com/sketch -->
    <title>Gron Digital Logo</title>
    <desc>Created with Sketch.</desc>
    <defs/>
    <g id="Page-1" stroke="none" stroke-width="1" fill="none" fill-rule="evenodd">
        <g id="Gron-Digital-Logo" fill="#474F61">
            <g>
                <path d="M29.87,97.8594682 C38.378,119.734732 59.686,135.237577 84.633,135.237577 C109.579,135.237577 130.889,119.734732 139.422,97.8594682 L29.87,97.8594682 Z M84.633,0 C115.379,0 141.912,18.01843 154.193,44.0485835 L133.487,44.0485835 C122.956,28.3549841 105.011,18.01843 84.633,18.01843 C59.987,18.01843 38.87,33.1934134 30.144,54.6851799 L158.653,54.6851799 C160.266,60.0720308 161.278,65.7052739 161.662,71.5014539 L26.123,71.5014539 C25.823,74.6727612 25.823,77.8450619 26.041,81.0173627 L161.333,81.0173627 C159.063,121.292568 125.582,153.257 84.633,153.257 C49.593,153.257 20.023,129.851719 10.805,97.8594682 L2.599,97.8594682 C1.176,92.4457924 0.301,86.8135427 0,81.0173627 L7.933,81.0173627 C7.769,77.8450619 7.769,74.7005797 7.988,71.5014539 L0.055,71.5014539 C0.411,65.7052739 1.341,60.0998492 2.79,54.6851799 L11.024,54.6851799 C20.489,23.0505952 49.866,0 84.633,0 L84.633,0 Z" id="Fill-20-Copy"/>
                <g id="Digital" transform="translate(182.000000, 97.000000)">
                    <polygon id="Fill-9" points="302.6426 0.7861 302.6426 35.7861 302.6426 36.7101 303.5666 36.7101 336.1816 36.7101 336.1816 40.8541 298.4046 40.8541 298.4046 0.7861"/>
                    <path d="M272.793,0.7861 L272.793,40.8541 L269.453,40.8541 L269.453,29.7951 L269.453,28.8711 L268.529,28.8711 L241.389,28.8711 L241.389,24.7531 L268.529,24.7531 L269.453,24.7531 L269.453,23.8281 L269.453,5.8541 L269.453,4.9301 L268.529,4.9301 L250.838,4.9301 C248.904,4.9301 247.074,5.3591 245.4,6.2071 C243.691,7.0741 242.217,8.2261 241.018,9.6331 C239.791,11.0691 238.801,12.7631 238.072,14.6751 C237.354,16.6091 236.988,18.6771 236.988,20.8211 L236.988,40.8541 L233.65,40.8541 L233.65,20.8211 C233.65,18.9331 233.859,17.1291 234.273,15.4481 C234.668,13.7651 235.256,12.1511 236.02,10.6481 C236.748,9.1971 237.656,7.8441 238.715,6.6271 C239.772,5.4111 240.951,4.3541 242.213,3.4921 C243.578,2.5761 244.914,1.9211 246.318,1.4851 C247.721,1.0211 249.24,0.7861 250.838,0.7861 L272.793,0.7861" id="Fill-11"/>
                    <polygon id="Fill-13" points="219.6699 0.7861 219.6699 4.9301 200.0589 4.9301 199.1349 4.9301 199.1349 5.8541 199.1349 40.8541 194.9219 40.8541 194.9219 5.8541 194.9219 4.9301 193.9959 4.9301 174.3829 4.9301 174.3829 0.7861"/>
                    <polygon id="Fill-15" points="62.331 40.854 66.545 40.854 66.545 0.786 62.331 0.786"/>
                    <polygon id="Fill-17" points="150.271 40.854 154.486 40.854 154.486 0.786 150.271 0.786"/>
                    <path d="M18.7974,0.7861 C24.5134,0.7861 29.8264,2.6161 33.7574,5.9391 C38.0764,9.5911 40.3594,14.7371 40.3594,20.8211 C40.3594,34.6601 29.2574,40.8541 18.2554,40.8541 L8.5294,40.8541 L8.5294,36.6871 L18.4634,36.6871 C26.9414,36.6871 36.8414,32.5321 36.8414,20.8211 C36.8414,9.1481 27.1344,4.9521 18.8164,4.9051 L4.8784,4.9301 L3.9564,4.9321 L3.9564,5.8541 L3.9564,40.8541 L0.2914,40.8541 L0.2914,0.7861 L18.7974,0.7861" id="Fill-18"/>
                    <path d="M108.6738,0.7861 C116.0858,0.7861 123.0778,5.0611 126.5058,11.5581 L122.4338,11.5581 C119.3258,7.2451 114.1018,4.5861 108.6738,4.5861 C100.6208,4.5861 91.9278,10.7891 91.9278,20.8091 C91.9278,30.8291 100.6208,37.0321 108.6738,37.0321 C114.3768,37.0321 119.8188,34.1351 122.8688,29.4711 L123.8048,28.0411 L122.0958,28.0411 L109.4568,28.0411 C109.0158,26.7061 108.6938,25.3041 108.4918,23.8561 L124.3298,23.8561 L125.4708,23.8561 L128.5258,23.8561 C127.0818,33.4671 118.5568,40.8541 108.6738,40.8541 C99.0098,40.8541 88.5788,33.1911 88.5788,20.8091 C88.5788,8.4411 99.0098,0.7861 108.6738,0.7861" id="Fill-19"/>
                </g>
                <g id="Gron" transform="translate(177.000000, 5.000000)">
                    <path d="M281.8828,71.187 L273.0688,71.187 L273.0688,3.074 L277.4628,3.074 C280.3148,3.074 283.3788,3.467 286.5858,4.308 C289.8168,5.122 293.0958,6.304 296.4458,7.879 C299.7948,9.403 303.1468,11.295 306.4958,13.501 C309.8218,15.708 313.0528,18.177 316.1658,20.961 C319.3008,23.772 322.2228,26.793 324.9788,30.078 C327.7368,33.361 330.1818,36.854 332.3668,40.558 L332.3668,3.074 L341.1818,3.074 L341.1818,71.187 L332.3668,71.187 C332.3668,66.196 331.5818,61.362 330.0158,56.739 C328.4238,52.09 326.3318,47.703 323.6968,43.604 C321.0588,39.481 318.0178,35.671 314.5738,32.204 C311.1508,28.737 307.5648,25.69 303.8108,23.062 C300.0798,20.437 296.3258,18.282 292.5488,16.576 C288.7478,14.894 285.2088,13.764 281.8828,13.187 L281.8828,71.187 Z" id="Fill-1"/>
                    <path d="M163.418,71.187 L151.998,71.187 L134.299,51.722 L108.477,51.722 L108.477,42.107 L142.352,42.107 C144.104,42.107 145.742,41.74 147.266,40.952 C148.813,40.163 150.156,39.113 151.293,37.799 C152.43,36.459 153.316,34.91 153.977,33.124 C154.637,31.338 154.977,29.42 154.977,27.398 C154.977,25.374 154.637,23.457 153.977,21.697 C153.316,19.912 152.43,18.387 151.293,17.074 C150.156,15.76 148.813,14.709 147.266,13.948 C145.742,13.187 144.104,12.792 142.352,12.792 L103.746,12.792 L103.746,71.187 L95.305,71.187 L95.305,3.074 L142.352,3.074 C145.24,3.074 147.971,3.704 150.541,4.991 C153.068,6.277 155.297,8.011 157.207,10.218 C159.119,12.398 160.621,14.999 161.734,17.941 C162.85,20.883 163.418,24.035 163.418,27.398 C163.418,30.418 162.939,33.309 162.053,36.014 C161.145,38.719 159.893,41.136 158.299,43.289 C156.707,45.418 154.842,47.204 152.68,48.597 C150.541,50.014 148.223,50.96 145.719,51.433 L163.418,71.187 Z" id="Fill-3"/>
                    <path d="M36.0918,0.4531 C49.8778,0.4531 63.0138,8.7641 68.6668,21.7301 L58.5198,21.7301 C53.5378,14.3931 44.8728,9.9821 36.0918,9.9821 C22.6318,9.9821 9.4248,20.3221 9.4248,35.8061 C9.4248,51.3171 22.6318,61.6311 36.0918,61.6311 C45.0118,61.6311 53.8158,57.1101 58.7498,49.5581 L36.2998,49.5581 C35.1668,46.3641 34.3788,42.9801 34.0528,39.3801 L62.5278,39.3801 L64.4498,39.3801 L71.3788,39.3801 C69.5248,58.2201 53.3058,71.1871 36.0918,71.1871 C17.8358,71.1871 0.6448,56.5691 0.6448,35.8061 C0.6448,15.0711 17.8358,0.4531 36.0918,0.4531" id="Fill-5"/>
                    <path d="M217.5293,9.9893 C204.0883,9.9893 190.9203,20.3103 190.9203,35.8063 C190.9203,51.3033 204.1113,61.6513 217.5293,61.6513 C230.9453,61.6513 244.1383,51.3033 244.1383,35.8063 C244.1383,20.3103 230.9453,9.9893 217.5293,9.9893 M217.5293,0.4533 C235.7543,0.4533 252.8843,15.0823 252.8843,35.8063 C252.8843,56.5573 235.7543,71.1873 217.5293,71.1873 C199.3043,71.1873 182.1503,56.5573 182.1503,35.8063 C182.1503,15.0823 199.3043,0.4533 217.5293,0.4533" id="Fill-7"/>
                </g>
            </g>
        </g>
    </g>
</svg>