<?xml version="1.0" encoding="iso-8859-1"?>
<!-- Generator: Adobe Illustrator 19.0.0, SVG Export Plug-In . SVG Version: 6.00 Build 0)  -->
<svg version="1.1" id="Layer_1" xmlns="http://www.w3.org/2000/svg" xmlns:xlink="http://www.w3.org/1999/xlink" x="0px" y="0px"
	 width="100px" height="100px" viewBox="0 0 100 100" style="enable-background:new 0 0 100 100;" xml:space="preserve">
<style type="text/css">
	.st0{fill:#415275;}
	.st1{fill:#F7882F;}
</style>
<g id="XMLID_1_">
	<path id="XMLID_330_" class="st0" d="M97.9,73.5c-0.7-0.7-1.9-1.1-3.7-1.6c-0.6-0.2-1.4-0.5-1.7-0.6c-0.9-0.6-1.7-1.4-2.3-2.2
		c-2.9-3.4-9.3-11.2-16.1-19.4C54.2,25.5,48.7,19,47.4,18c1.1,2.2,1.6,4.7,1.5,7.1c5.2,6.1,14.8,17.7,22.3,26.9
		c6.8,8.2,13.2,16,16.2,19.5c0.8,1,1.8,2,3.1,2.9c0.6,0.4,1.3,0.6,2.6,1c0.7,0.2,1.9,0.6,2.3,0.8c0.3,0.4,2.2,3.2-0.5,7.2
		c-1.7,2.6-3.7,4-5.3,4c-1.2,0-2.5-1.5-3.4-2.5c0,0,0,0,0,0c1.5-0.8,3-2.2,3.8-4.4c0.2-0.7,0-1.5-0.5-2
		c-3.5-3.2-34.7-31.7-37.5-33.8c-0.4-0.3-0.9-0.4-1.4-0.3c-0.5,0.1-0.9,0.4-1.2,0.8c-1.5,2.1-3.3,4.4-5.1,6.4
		c1.6,0.5,2.1,2.5,1.4,3.9c0.2-0.1,0.4-0.2,0.6-0.4c1.7-1.8,3.4-4,5-6c5.3,4.5,22.5,20.2,34.7,31.3c-1.3,1.8-3.8,2-4,2
		c-0.1,0-0.2,0-0.4,0.1c-8.8-2.7-36.7-11.3-50.7-15.7c-1.6,0.7-3.4,1.2-5.2,1.3c-1.6,0.1-3.1-0.1-4.5-0.4c0.1,0.1,0.2,0.1,0.3,0.1
		c1.5,0.5,13.2,4.1,26,8.1c0,0,0,0-0.1,0.1c-0.1,0.1-0.2,0.3-2.2,4c-0.6,1.1-0.7,2.4-0.2,3.6c0.5,1.2,1.4,2,2.6,2.4
		c2.3,0.7,5.7,1.6,9,2.4c2.1,0.5,4,1,5.5,1.4c0.8,0.2,1.5,0.3,2.1,0.3c1.6-0.1,2.8-0.9,3.9-2.6c0.4-0.5,1-1.7,1.6-2.6
		c0.3-0.5,0.5-0.8,0.6-1c0.1-0.2,0.2-0.5,0.3-0.7c6.2,1.9,10.9,3.3,12.3,3.8c0.2,0.2,0.4,0.4,0.6,0.6c1.2,1.4,3.2,3.8,6.1,3.8
		c0.2,0,0.4,0,0.6,0c2.8-0.2,5.7-2.1,8-5.6C102.1,79.4,98.9,74.4,97.9,73.5z M66.3,82.7c-0.5,0.8-1.2,2-1.5,2.4
		c-0.7,1.1-0.9,1.1-1.9,0.8c-1.5-0.4-3.4-0.9-5.6-1.4c-3.1-0.8-6.6-1.6-8.7-2.3c-0.1,0-0.2-0.1-0.2-0.2c0-0.1-0.1-0.2,0-0.3
		c1.7-3.1,2-3.6,2-3.7c0.2-0.3,0.3-0.7,0.3-1.1c5.6,1.7,11.2,3.5,16.1,5C66.7,82.1,66.5,82.4,66.3,82.7z"/>
	<path id="XMLID_301_" class="st1" d="M31.2,17.9c-0.7,0-1.3-0.3-1.7-0.8c-1.2-1.9-2.3-3.5-3.3-5.1l-0.2-0.3c-0.6-0.9-0.3-2,0.6-2.6
		c0.9-0.6,2-0.3,2.6,0.6l0.2,0.3c1,1.6,2,3.2,3.2,5c0.6,0.9,0.3,2-0.5,2.6C31.8,17.8,31.5,17.9,31.2,17.9z M24.2,23.8
		c0.7-0.7,0.7-1.9,0-2.7c-1.1-1.1-2.6-2.8-4-4.5c-0.9-1-1.7-2-2.5-2.8c-0.7-0.8-1.9-0.8-2.7-0.1c-0.8,0.7-0.8,1.9-0.1,2.7
		c0.7,0.8,1.6,1.8,2.4,2.8c1.4,1.7,2.9,3.4,4.2,4.6c0.4,0.4,0.9,0.6,1.5,0.6C23.4,24.3,23.9,24.2,24.2,23.8z M17.7,31.5
		c0.6-0.9,0.4-2-0.5-2.6c-1.4-1-10.2-6.8-13.1-8.8c-0.9-0.6-2-0.3-2.6,0.5c-0.6,0.9-0.3,2,0.5,2.6C5,25.2,13.7,31,15.1,32
		c0.4,0.2,0.8,0.3,1.2,0.3C16.8,32.3,17.4,32,17.7,31.5z M9.6,51.2c0.2-1-0.6-2-1.6-2.1l-1.8-0.2c-1.3-0.2-2.5-0.4-4.1-0.6
		c-1-0.2-2,0.5-2.2,1.6c-0.2,1,0.5,2,1.6,2.2c1.6,0.3,2.9,0.4,4.2,0.6l1.7,0.2c0.1,0,0.3,0,0.4,0C8.7,52.8,9.5,52.1,9.6,51.2z
		 M12.8,41c0.4-1-0.1-2.1-1.1-2.4L10.1,38c-2.2-0.8-4.7-1.7-7.2-2.8c-1-0.4-2.1,0-2.5,1c-0.4,1,0,2.1,1,2.5c2.6,1.1,5.2,2.1,7.5,2.9
		l1.6,0.6c0.3,0.1,0.5,0.1,0.8,0.1C11.8,42.2,12.5,41.7,12.8,41z M70.3,72c-0.4,0.6-1,1.4-1.2,1.5c-0.8,0.7-0.9,1.8-0.3,2.7
		c0.4,0.5,1,0.7,1.6,0.7c0.4,0,0.8-0.2,1.1-0.4c1-0.8,2-2.4,2-2.4c0.6-0.9,0.3-2-0.6-2.6C72,70.9,70.8,71.1,70.3,72z M56.1,66.2
		c1.2-1.1,2.2-2.6,3-3.9c0.6-0.9,1.7-1.1,2.6-0.6c0.9,0.6,1.1,1.7,0.6,2.6c-0.9,1.4-2,3.1-3.6,4.6c-0.3,0.3-0.8,0.5-1.2,0.5
		c-0.5,0-1.1-0.2-1.5-0.6C55.4,68.1,55.4,66.9,56.1,66.2z M38.5,69.1c0.1,0,0.1-0.1,0.2-0.1c0.1,0,6.9-3.4,13.8-12.6
		c0.6-0.8,1.8-1,2.6-0.4c0.8,0.6,1,1.8,0.4,2.6c-4.7,6.2-9.3,10-12.2,12C41.6,70.1,40,69.6,38.5,69.1z M54.9,69.7
		c0.8,0.7,0.8,1.9,0.1,2.7c-0.4,0.5-1,1-1.5,1.4c-1.6-0.5-3.2-1-4.7-1.5c0.6-0.2,2.3-1.2,3.4-2.5C52.9,69.1,54.1,69,54.9,69.7z
		 M62.6,76.6c-1.4-0.4-2.9-0.9-4.4-1.3c1.6-1,4.9-4.4,7.1-8c0.6-0.9,1.7-1.2,2.6-0.6c0.9,0.5,1.2,1.7,0.6,2.6
		C67,71.7,64.7,74.6,62.6,76.6z M45.7,55.3c0.4-0.5,0.6-1.1,0.4-1.8c-0.2-1.1-1.1-1.8-1.6-2.1c0,0-0.1,0-0.1-0.1
		c-0.3-0.2-3.4-2.2-5.2-3.3C48.9,35.2,50,27,49.3,22.3c-0.4-2.1-1.2-3.9-2.2-4.6c-4.7-3-11.3,1.1-13.9,3l0,0
		c-10.3,7.5-17.8,19.7-19.7,31.7c-0.8,5,0.1,9,2.7,12c0.8,0.9,1.7,1.7,2.7,2.4c1.2,0.8,3.6,1.6,6.8,1.4C30.9,67.9,38.2,65,45.7,55.3
		z M35.4,23.8c3-2.2,7.2-4.2,9.5-3c0.5,0.8,4.3,8.6-9.8,26.6c-0.3,0.4-0.5,1-0.4,1.5c0.1,0.5,0.4,1,0.9,1.3c0.1,0,0.7,0.5,1.6,1
		c2.5,1.6,3.9,2.5,4.7,3c-10.2,12.5-19,10.7-20.9,9.5c-0.7-0.5-1.3-1-1.9-1.7c-1.8-2.1-2.4-5.1-1.8-8.9C18.9,42,25.9,30.7,35.4,23.8
		L35.4,23.8z"/>
</g>
</svg>
