<?xml version="1.0" encoding="iso-8859-1"?>
<!-- Generator: Adobe Illustrator 19.0.0, SVG Export Plug-In . SVG Version: 6.00 Build 0)  -->
<svg version="1.1" id="Curv" xmlns="http://www.w3.org/2000/svg" xmlns:xlink="http://www.w3.org/1999/xlink" x="0px" y="0px"
	 viewBox="0 0 555.3 253" style="enable-background:new 0 0 555.3 253;" xml:space="preserve">
<style type="text/css">
	.st0{fill:#9FB3D2;}
	.st1{fill-rule:evenodd;clip-rule:evenodd;fill:#3E4E71;}
	.st2{fill-rule:evenodd;clip-rule:evenodd;fill:#EB812D;}
	.st3{fill-rule:evenodd;clip-rule:evenodd;fill:#9FB3D2;}
	.st4{fill-rule:evenodd;clip-rule:evenodd;fill:#65799C;}
	.st5{fill:#EB812D;}
	.st6{fill:#6B7A8F;}
</style>
<g>
	<path class="st0" d="M136.1,221.7l0-5.7l2.3,0l0,5.7L136.1,221.7z M136.1,210.3l0-5.7l2.3,0l0,5.7L136.1,210.3z M136.1,199l0-5.7
		l2.3,0l0,5.7L136.1,199z M136.1,187.6l0-5.7l2.3,0l0,5.7L136.1,187.6z M136.1,176.2l0-5.7l2.3,0l0,5.7L136.1,176.2z M136.1,164.9
		l0-5.7l2.3,0l0,5.7L136.1,164.9z M136.1,153.5l0-5.7l2.3,0l0,5.7L136.1,153.5z M136.1,142.2l0-5.7l2.3,0l0,5.7L136.1,142.2z
		 M136.1,130.8l0-5.7l2.3,0l0,5.7L136.1,130.8z M136.1,119.4l0-5.7l2.3,0l0,5.7L136.1,119.4z M136.1,108.1l0-5.7l2.3,0l0,5.7
		L136.1,108.1z M136,96.7l0-5.7l2.3,0l0,5.7L136,96.7z M136,85.4l0-5.7l2.3,0l0,5.7L136,85.4z M136,74l0-5.7l2.3,0l0,5.7L136,74z
		 M136,62.7l0-5.7l2.3,0l0,5.7L136,62.7z M136,51.3l0-5.7l2.3,0l0,5.7L136,51.3z M136,39.9l0-5.7l2.3,0l0,5.7L136,39.9z"/>
	<path class="st0" d="M246.1,84.2l-5.2-2.3l0.9-2.1l5.2,2.3L246.1,84.2z M235.8,79.5l-5.2-2.3l0.9-2.1l5.2,2.3L235.8,79.5z
		 M225.4,74.9l-5.2-2.3l0.9-2.1l5.2,2.3L225.4,74.9z M215.1,70.2l-5.2-2.3l0.9-2.1l5.2,2.3L215.1,70.2z M204.7,65.5l-5.2-2.3
		l0.9-2.1l5.2,2.3L204.7,65.5z M194.4,60.8l-5.2-2.3l0.9-2.1l5.2,2.3L194.4,60.8z M184,56.2l-5.2-2.3l0.9-2.1l5.2,2.3L184,56.2z
		 M173.7,51.5l-5.2-2.3l0.9-2.1l5.2,2.3L173.7,51.5z M163.3,46.8l-5.2-2.3l0.9-2.1l5.2,2.3L163.3,46.8z M152.9,42.1l-5.2-2.3
		l0.9-2.1l5.2,2.3L152.9,42.1z M142.6,37.5l-5.2-2.3l0.9-2.1l5.2,2.3L142.6,37.5z"/>
	<path class="st0" d="M288.7,82.7l-0.9-2.1l5.2-2.3l0.9,2.1L288.7,82.7z M299,78l-0.9-2.1l5.2-2.3l0.9,2.1L299,78z M309.4,73.3
		l-0.9-2.1l5.2-2.3l0.9,2.1L309.4,73.3z M319.7,68.6l-0.9-2.1l5.2-2.3l0.9,2.1L319.7,68.6z M330.1,64l-0.9-2.1l5.2-2.3l0.9,2.1
		L330.1,64z M340.4,59.3l-0.9-2.1l5.2-2.3l0.9,2.1L340.4,59.3z M350.8,54.6l-0.9-2.1l5.2-2.3l0.9,2.1L350.8,54.6z M361.1,49.9
		l-0.9-2.1l5.2-2.3l0.9,2.1L361.1,49.9z M371.5,45.2l-0.9-2.1l5.2-2.3l0.9,2.1L371.5,45.2z M381.8,40.6l-0.9-2.1l5.2-2.3l0.9,2.1
		L381.8,40.6z M392.2,35.9l-0.9-2.1l3.4-1.6l0.9,2.1L392.2,35.9z"/>
	<path class="st0" d="M153.6,95.1l-5.4-1.8l0.7-2.2l5.4,1.8L153.6,95.1z M142.8,91.5l-5.4-1.8l0.7-2.2l5.4,1.8L142.8,91.5z
		 M132,87.8l-5.4-1.8l0.7-2.2l5.4,1.8L132,87.8z"/>
	<path class="st0" d="M218.5,117.1l-5.4-1.8l0.7-2.2l5.4,1.8L218.5,117.1z M207.8,113.4l-3.1-1l0.7-2.2l3.1,1L207.8,113.4z"/>
	<path class="st0" d="M316.9,113l-0.6-2.2l5.5-1.5l0.6,2.2L316.9,113z M327.9,110.1l-0.6-2.2l5.5-1.5l0.6,2.2L327.9,110.1z
		 M338.8,107.2l-0.6-2.2l5.5-1.5l0.6,2.2L338.8,107.2z M349.8,104.3l-0.6-2.2l5.5-1.5l0.6,2.2L349.8,104.3z M360.8,101.4l-0.6-2.2
		l5.5-1.5l0.6,2.2L360.8,101.4z M371.8,98.5l-0.6-2.2l5.5-1.5l0.6,2.2L371.8,98.5z M382.8,95.6l-0.6-2.2l5.5-1.5l0.6,2.2L382.8,95.6
		z M393.8,92.7l-0.6-2.2l5.5-1.5l0.6,2.2L393.8,92.7z M404.7,89.8l-0.6-2.2l5.5-1.5l0.6,2.2L404.7,89.8z"/>
	<path class="st0" d="M333.5,147.4l-5.6-0.8l0.3-2.2l5.6,0.8L333.5,147.4z M322.2,145.7l-4.9-0.7l0.3-2.2l4.9,0.7L322.2,145.7z"/>
	<path class="st0" d="M458.4,166.1l-5.6-0.8l0.3-2.2l5.6,0.8L458.4,166.1z M447.2,164.4l-5.6-0.8l0.3-2.2l5.6,0.8L447.2,164.4z
		 M435.9,162.7l-5.6-0.8l0.3-2.2l5.6,0.8L435.9,162.7z M424.7,161.1l-5.6-0.8l0.3-2.2l5.6,0.8L424.7,161.1z M413.5,159.4l-5.6-0.8
		l0.3-2.2l5.6,0.8L413.5,159.4z M402.2,157.7l-5.6-0.8l0.3-2.2l5.6,0.8L402.2,157.7z M391,156l-5.6-0.8l0.3-2.2l5.6,0.8L391,156z"/>
	<path class="st0" d="M136.2,223.1l-1.9-5.3l2.1-0.8l1.9,5.3L136.2,223.1z M132.4,212.4l-1.9-5.3l2.1-0.8l1.9,5.3L132.4,212.4z
		 M128.5,201.7l-1.9-5.3l2.1-0.8l1.9,5.3L128.5,201.7z M124.7,191l-1.9-5.3l2.1-0.8l1.9,5.3L124.7,191z M120.8,180.3l-1.9-5.3
		l2.1-0.8l1.9,5.3L120.8,180.3z M117,169.6l-1.9-5.3l2.1-0.8l1.9,5.3L117,169.6z M113.2,158.9l-1.9-5.3l2.1-0.8l1.9,5.3L113.2,158.9
		z M109.3,148.2l-1.9-5.3l2.1-0.8l1.9,5.3L109.3,148.2z M105.5,137.6l-1.9-5.3l2.1-0.8l1.9,5.3L105.5,137.6z M101.6,126.9l-1.9-5.3
		l2.1-0.8l1.9,5.3L101.6,126.9z M97.8,116.2l-1.9-5.3l2.1-0.8l1.9,5.3L97.8,116.2z M94,105.5l-1.9-5.3l2.1-0.8l1.9,5.3L94,105.5z"/>
	<path class="st0" d="M397.7,223.6l-0.1-5.7l2.3,0l0.1,5.7L397.7,223.6z M397.5,212.2l-0.1-5.7l2.3,0l0.1,5.7L397.5,212.2z
		 M397.4,200.9l-0.1-5.7l2.3,0l0.1,5.7L397.4,200.9z M397.2,189.5l-0.1-5.7l2.3,0l0.1,5.7L397.2,189.5z M397.1,178.2l-0.1-5.7l2.3,0
		l0.1,5.7L397.1,178.2z M397,166.8l-0.1-5.7l2.3,0l0.1,5.7L397,166.8z M396.8,155.5l-0.1-5.7l2.3,0l0.1,5.7L396.8,155.5z
		 M396.7,144.1l-0.1-5.7l2.3,0l0.1,5.7L396.7,144.1z M396.5,132.7l-0.1-5.7l2.3,0l0.1,5.7L396.5,132.7z M396.4,121.4l-0.1-5.7l2.3,0
		l0.1,5.7L396.4,121.4z M396.2,110l-0.1-5.7l2.3,0l0.1,5.7L396.2,110z M396.1,98.7L396,93l2.3,0l0.1,5.7L396.1,98.7z M395.9,87.3
		l-0.1-5.7l2.3,0l0.1,5.7L395.9,87.3z M395.8,76l-0.1-5.7l2.3,0l0.1,5.7L395.8,76z M395.6,64.6l-0.1-5.7l2.3,0l0.1,5.7L395.6,64.6z
		 M395.5,53.2l-0.1-5.7l2.3,0l0.1,5.7L395.5,53.2z M395.3,41.9l-0.1-5.7l2.3,0l0.1,5.7L395.3,41.9z"/>
	<path class="st0" d="M399.9,224.1l-2.1-0.9l2.3-5.2l2.1,0.9L399.9,224.1z M404.5,213.7l-2.1-0.9l2.3-5.2l2.1,0.9L404.5,213.7z
		 M409.2,203.3l-2.1-0.9l2.3-5.2l2.1,0.9L409.2,203.3z M413.8,193l-2.1-0.9l2.3-5.2l2.1,0.9L413.8,193z M418.5,182.6l-2.1-0.9
		l2.3-5.2l2.1,0.9L418.5,182.6z M423.1,172.2l-2.1-0.9l2.3-5.2l2.1,0.9L423.1,172.2z M427.7,161.9l-2.1-0.9l2.3-5.2l2.1,0.9
		L427.7,161.9z M432.4,151.5l-2.1-0.9l2.3-5.2l2.1,0.9L432.4,151.5z M437,141.1l-2.1-0.9l2.3-5.2l2.1,0.9L437,141.1z M441.7,130.8
		l-2.1-0.9l2.3-5.2l2.1,0.9L441.7,130.8z M446.3,120.4l-2.1-0.9l2.3-5.2l2.1,0.9L446.3,120.4z"/>
	<path class="st0" d="M138,222.6l-1.4-1.8l4.5-3.4l1.4,1.8L138,222.6z M147,215.8l-1.4-1.8l4.5-3.4l1.4,1.8L147,215.8z M156.1,209
		l-1.4-1.8l4.5-3.4l1.4,1.8L156.1,209z M165.2,202.2l-1.4-1.8l4.5-3.4l1.4,1.8L165.2,202.2z M174.3,195.3l-1.4-1.8l4.5-3.4l1.4,1.8
		L174.3,195.3z M183.4,188.5l-1.4-1.8l4.5-3.4l1.4,1.8L183.4,188.5z M192.5,181.7l-1.4-1.8l4.5-3.4l1.4,1.8L192.5,181.7z
		 M201.6,174.9l-1.4-1.8l4.5-3.4l1.4,1.8L201.6,174.9z M210.7,168.1l-1.4-1.8l4.5-3.4l1.4,1.8L210.7,168.1z M219.8,161.3l-1.4-1.8
		l4.5-3.4l1.4,1.8L219.8,161.3z"/>
	<path class="st0" d="M351.8,223.5l-3.8-4.2l1.7-1.5l3.8,4.2L351.8,223.5z M344.1,215.1l-3.8-4.2l1.7-1.5l3.8,4.2L344.1,215.1z
		 M336.4,206.7l-3.8-4.2l1.7-1.5l3.8,4.2L336.4,206.7z M328.8,198.3l-3.8-4.2l1.7-1.5l3.8,4.2L328.8,198.3z M321.1,189.9l-3.8-4.2
		l1.7-1.5l3.8,4.2L321.1,189.9z M313.4,181.6l-3.8-4.2l1.7-1.5l3.8,4.2L313.4,181.6z M305.8,173.2l-3.8-4.2l1.7-1.5l3.8,4.2
		L305.8,173.2z"/>
	<path id="GRO_1_" class="st1" d="M238.4,129.1c0-0.7-0.1-1.5-0.1-2.2c0-0.7,0.1-1.4,0.1-2.2l0.1-1.1h69.2c-0.2-2.4-0.6-4.7-1.2-7
		h-66.4l0.7-1.7c4.8-11.5,15.9-18.8,28.3-18.8c10.4,0,19.9,5.1,25.6,13.7h9.3c-6.5-13.3-20-21.9-34.9-21.9c-8.5,0-16.6,2.7-23.4,7.9
		c-6.5,5-11.4,12-13.8,19.9l-0.3,0.9H227c-0.6,2.3-0.9,4.7-1.1,7h4.5l-0.1,1.3c-0.1,0.7-0.1,1.4-0.1,2.1c0,0.7,0,1.3,0.1,2.1
		l0.1,1.3h-4.5c0.2,2.4,0.6,4.7,1.1,7h4.6l0.3,0.9c2.4,7.9,7.3,14.9,13.8,19.9c6.8,5.1,14.9,7.9,23.4,7.9
		c20.2,0,36.9-15.6,38.6-35.7h-69.2L238.4,129.1z M298.1,137.2l-0.7,1.7c-4.8,11.5-15.9,18.8-28.3,18.8c-12.4,0-23.5-7.4-28.3-18.8
		l-0.7-1.7H298.1z"/>
	<path id="GRO_x5F_ramka_1_" class="st2" d="M268.7,75.4c29.1,0,52.7,23,52.7,51.5c0,28.4-23.6,51.5-52.7,51.5
		c-29.1,0-52.7-23-52.7-51.5C216,98.4,239.6,75.4,268.7,75.4L268.7,75.4z M268.7,79.7c26.7,0,48.3,21.1,48.3,47.2
		c0,26.1-21.6,47.2-48.3,47.2s-48.3-21.1-48.3-47.2C220.4,100.8,242,79.7,268.7,79.7L268.7,79.7z"/>
	<g>
		<g id="Smart_x5F_K_x5F_White_7_">
			<g>
				<path class="st3" d="M346.7,139.7l14.1,0c-0.2,2.2-1,4.1-2.6,5.6c-1.5,1.3-3.4,2.2-5.5,2.2c-1.8,0-3.5-0.6-4.9-1.7
					c-1.4-1-2.4-2.5-2.9-4.2l-0.9,0c-0.2-0.7-0.3-1.3-0.3-2l0.9,0c0-0.3,0-0.6,0-0.8l-0.9,0c0-0.7,0.1-1.3,0.3-2l0.9,0
					c0.2-0.8,0.6-1.6,1.1-2.3c1.5-2.2,4-3.5,6.7-3.5c1.6,0,3,0.4,4.3,1.2c1.5,1,2.4,2.1,3.2,3.7l-2.4,0c-1.2-1.8-2.9-2.8-5.1-2.8
					c-2.4,0-4.5,1.4-5.5,3.6l13.3,0c0.2,0.7,0.3,1.2,0.3,2l-14.1,0C346.7,139.1,346.7,139.4,346.7,139.7L346.7,139.7z M358.2,141.6
					l-11,0c1,2.2,3.1,3.6,5.5,3.6S357.2,143.8,358.2,141.6L358.2,141.6z"/>
			</g>
			<g>
				<polygon class="st4" points="344.2,151.7 361.9,151.7 361.9,155.5 344.2,155.5 				"/>
			</g>
			<g>
				<polygon class="st4" points="344.2,158 361.9,158 361.9,161.8 344.2,161.8 				"/>
			</g>
			<g>
				<polygon class="st4" points="344.2,164.8 361.9,164.8 361.9,168.6 344.3,168.6 				"/>
			</g>
			<g>
				<path class="st4" d="M361.8,149.2l5.5,6.5c0,0,6.4-9.6,6.5-9.8c0-0.1-1.2-2.9-1.2-2.9l-5.5,8.8l-4.1-5.4L361.8,149.2z"/>
			</g>
			<g>
				<path class="st3" d="M364.2,159l3.3,3.3c0,0,3.9-4.9,3.9-5c0-0.1-0.7-1.5-0.7-1.5l-3.4,4.5l-2.5-2.8L364.2,159z"/>
			</g>
			<g>
				<path class="st3" d="M364.2,165.1l3.3,3.3c0,0,3.9-4.9,3.9-5c0-0.1-0.7-1.5-0.7-1.5l-3.4,4.5l-2.5-2.8L364.2,165.1z"/>
			</g>
		</g>
		<path class="st5" d="M338.6,176.2l-0.2-51.3l40.2,0l0.2,51.3L338.6,176.2z M340.9,127.4l0.2,46.3l35.2,0l-0.2-46.3L340.9,127.4z"
			/>
		<polygon class="st0" points="385.3,182.6 375.9,182.6 375.9,180.3 383,180.3 383,120.6 376.4,120.6 376.4,118.4 385.3,118.4 		"/>
		<polygon class="st0" points="341.9,182.6 332.2,182.6 332.2,118.4 342.2,118.4 342.2,120.6 334.5,120.6 334.5,180.3 341.9,180.3 
					"/>
	</g>
	<g>
		<g id="Smart_x5F_K_x5F_White_6_">
			<g>
				<path class="st3" d="M257.8,210.1l14.1,0c-0.2,2.2-1,4.1-2.6,5.6c-1.5,1.3-3.4,2.2-5.5,2.2c-1.8,0-3.5-0.6-4.9-1.7
					c-1.4-1-2.4-2.5-2.9-4.2l-0.9,0c-0.2-0.7-0.3-1.3-0.3-2l0.9,0c0-0.3,0-0.6,0-0.8l-0.9,0c0-0.7,0.1-1.3,0.3-2l0.9,0
					c0.2-0.8,0.6-1.6,1.1-2.3c1.5-2.2,4-3.5,6.7-3.5c1.6,0,3,0.4,4.3,1.2c1.5,1,2.4,2.1,3.2,3.7l-2.4,0c-1.2-1.8-2.9-2.8-5.1-2.8
					c-2.4,0-4.5,1.4-5.5,3.6l13.3,0c0.2,0.7,0.3,1.2,0.3,2l-14.1,0C257.8,209.6,257.8,209.8,257.8,210.1L257.8,210.1z M269.3,212.1
					l-11,0c1,2.2,3.1,3.6,5.5,3.6C266.2,215.7,268.4,214.3,269.3,212.1L269.3,212.1z"/>
			</g>
			<g>
				<polygon class="st4" points="255.3,222.2 273,222.2 273,226 255.4,226 				"/>
			</g>
			<g>
				<polygon class="st4" points="255.4,228.5 273,228.5 273.1,232.3 255.4,232.3 				"/>
			</g>
			<g>
				<polygon class="st4" points="255.4,235.2 273.1,235.2 273.1,239 255.4,239 				"/>
			</g>
			<g>
				<path class="st4" d="M273,219.6l5.5,6.5c0,0,6.4-9.6,6.5-9.8c0-0.1-1.2-2.9-1.2-2.9l-5.5,8.8l-4.1-5.4L273,219.6z"/>
			</g>
			<g>
				<path class="st3" d="M275.3,229.4l3.3,3.3c0,0,3.9-4.9,3.9-5c0-0.1-0.7-1.5-0.7-1.5l-3.4,4.5L276,228L275.3,229.4z"/>
			</g>
			<g>
				<path class="st3" d="M275.3,235.5l3.3,3.3c0,0,3.9-4.9,3.9-5c0-0.1-0.7-1.5-0.7-1.5l-3.4,4.5l-2.5-2.8L275.3,235.5z"/>
			</g>
		</g>
		<path class="st5" d="M249.8,246.6l-0.2-51.3l40.2,0l0.2,51.3L249.8,246.6z M252.1,197.8l0.2,46.3l35.2,0l-0.2-46.3L252.1,197.8z"
			/>
		<polygon class="st0" points="296.4,253 287,253 287,250.7 294.1,250.7 294.1,191.1 287.6,191.1 287.6,188.8 296.4,188.8 		"/>
		<polygon class="st0" points="253,253 243.4,253 243.4,188.8 253.3,188.8 253.3,191.1 245.6,191.1 245.6,250.7 253,250.7 		"/>
	</g>
	<g>
		<g id="Smart_x5F_K_x5F_White_5_">
			<g>
				<path class="st3" d="M257.6,21.3l14.1,0c-0.2,2.2-1,4.1-2.6,5.6c-1.5,1.3-3.4,2.2-5.5,2.2c-1.8,0-3.5-0.6-4.9-1.7
					c-1.4-1-2.4-2.5-2.9-4.2l-0.9,0c-0.2-0.7-0.3-1.3-0.3-2l0.9,0c0-0.3,0-0.6,0-0.8l-0.9,0c0-0.7,0.1-1.3,0.3-2l0.9,0
					c0.2-0.8,0.6-1.6,1.1-2.3c1.5-2.2,4-3.5,6.7-3.5c1.6,0,3,0.4,4.3,1.2c1.5,1,2.4,2.1,3.2,3.7l-2.4,0c-1.2-1.8-2.9-2.8-5.1-2.8
					c-2.4,0-4.5,1.4-5.5,3.6l13.3,0c0.2,0.7,0.3,1.2,0.3,2l-14.1,0C257.6,20.8,257.6,21,257.6,21.3L257.6,21.3z M269.1,23.3l-11,0
					c1,2.2,3.1,3.6,5.5,3.6C266,26.9,268.1,25.5,269.1,23.3L269.1,23.3z"/>
			</g>
			<g>
				<polygon class="st4" points="255.1,33.4 272.8,33.4 272.8,37.2 255.1,37.2 				"/>
			</g>
			<g>
				<polygon class="st4" points="255.1,39.7 272.8,39.7 272.8,43.5 255.2,43.5 				"/>
			</g>
			<g>
				<polygon class="st4" points="255.2,46.4 272.8,46.4 272.9,50.2 255.2,50.2 				"/>
			</g>
			<g>
				<path class="st4" d="M272.8,30.8l5.5,6.5c0,0,6.4-9.6,6.5-9.8c0-0.1-1.2-2.9-1.2-2.9l-5.5,8.8l-4.1-5.4L272.8,30.8z"/>
			</g>
			<g>
				<path class="st3" d="M275.1,40.6l3.3,3.3c0,0,3.9-4.9,3.9-5c0-0.1-0.7-1.5-0.7-1.5l-3.4,4.5l-2.5-2.8L275.1,40.6z"/>
			</g>
			<g>
				<path class="st3" d="M275.1,46.7l3.3,3.3c0,0,3.9-4.9,3.9-5c0-0.1-0.7-1.5-0.7-1.5l-3.4,4.5l-2.5-2.8L275.1,46.7z"/>
			</g>
		</g>
		<polygon class="st0" points="296.2,64.2 286.8,64.2 286.8,61.9 293.9,61.9 293.9,2.3 287.3,2.3 287.3,0 296.2,0 		"/>
		<polygon class="st0" points="252.8,64.2 243.1,64.2 243.1,0 253.1,0 253.1,2.3 245.4,2.3 245.4,61.9 252.8,61.9 		"/>
		<path class="st5" d="M249.5,57.8l-0.2-51.3l40.2,0l0.2,51.3L249.5,57.8z M251.9,9l0.2,46.3l35.2,0L287,9L251.9,9z"/>
	</g>
	<g>
		<g id="Smart_x5F_K_x5F_White_4_">
			<g>
				<path class="st3" d="M167.5,100.6l14.1,0c-0.2,2.2-1,4.1-2.6,5.6c-1.5,1.3-3.4,2.2-5.5,2.2c-1.8,0-3.5-0.6-4.9-1.7
					c-1.4-1-2.4-2.5-2.9-4.2l-0.9,0c-0.2-0.7-0.3-1.3-0.3-2l0.9,0c0-0.3,0-0.6,0-0.8l-0.9,0c0-0.7,0.1-1.3,0.3-2l0.9,0
					c0.2-0.8,0.6-1.6,1.1-2.3c1.5-2.2,4-3.5,6.7-3.5c1.6,0,3,0.4,4.3,1.2c1.5,1,2.4,2.1,3.2,3.7l-2.4,0c-1.2-1.8-2.9-2.8-5.1-2.8
					c-2.4,0-4.5,1.4-5.5,3.6l13.3,0c0.2,0.7,0.3,1.2,0.3,2l-14.1,0C167.5,100.1,167.5,100.3,167.5,100.6L167.5,100.6z M179,102.6
					l-11,0c1,2.2,3.1,3.6,5.5,3.6C175.9,106.2,178,104.8,179,102.6L179,102.6z"/>
			</g>
			<g>
				<polygon class="st4" points="165,112.7 182.7,112.7 182.7,116.5 165,116.5 				"/>
			</g>
			<g>
				<polygon class="st4" points="165,119 182.7,119 182.7,122.8 165,122.8 				"/>
			</g>
			<g>
				<polygon class="st4" points="165.1,125.7 182.7,125.7 182.7,129.5 165.1,129.5 				"/>
			</g>
			<g>
				<path class="st4" d="M182.7,110.1l5.5,6.5c0,0,6.4-9.6,6.5-9.8c0-0.1-1.2-2.9-1.2-2.9l-5.5,8.8l-4.1-5.4L182.7,110.1z"/>
			</g>
			<g>
				<path class="st3" d="M185,119.9l3.3,3.3c0,0,3.9-4.9,3.9-5c0-0.1-0.7-1.5-0.7-1.5l-3.4,4.5l-2.5-2.8L185,119.9z"/>
			</g>
			<g>
				<path class="st3" d="M185,126l3.3,3.3c0,0,3.9-4.9,3.9-5c0-0.1-0.7-1.5-0.7-1.5l-3.4,4.5l-2.5-2.8L185,126z"/>
			</g>
		</g>
		<path class="st5" d="M159.4,137.1l-0.2-51.3l40.2,0l0.2,51.3L159.4,137.1z M161.7,88.3l0.2,46.3l35.2,0l-0.2-46.3L161.7,88.3z"/>
		<polygon class="st0" points="162.7,143.5 153,143.5 153,79.3 163,79.3 163,81.6 155.3,81.6 155.3,141.2 162.7,141.2 		"/>
		<polygon class="st0" points="206.1,143.5 196.7,143.5 196.7,141.2 203.8,141.2 203.8,81.6 197.2,81.6 197.2,79.3 206.1,79.3 		"/>
	</g>
	<path class="st0" d="M244.6,236.3h-5.7v-2.3h5.7V236.3z M233.2,236.3h-5.7v-2.3h5.7V236.3z M221.9,236.3h-5.7v-2.3h5.7V236.3z
		 M210.5,236.3h-5.7v-2.3h5.7V236.3z M199.1,236.3h-2.7v-2.3h2.7V236.3z"/>
	<path class="st0" d="M338.6,236.3H333v-2.3h5.7V236.3z M327.3,236.3h-5.7v-2.3h5.7V236.3z M315.9,236.3h-5.7v-2.3h5.7V236.3z
		 M304.6,236.3h-5.7v-2.3h5.7V236.3z"/>
	<path class="st0" d="M399.7,223.1l-1.2-1.9l3.9-2.5l1.2,1.9L399.7,223.1z M408.4,217.6l-1.2-1.9l4.8-3.1l1.2,1.9L408.4,217.6z
		 M418,211.4l-1.2-1.9l4.8-3.1l1.2,1.9L418,211.4z M427.5,205.2l-1.2-1.9l4.8-3.1l1.2,1.9L427.5,205.2z M437,199.1l-1.2-1.9l4.8-3.1
		l1.2,1.9L437,199.1z M446.6,192.9l-1.2-1.9l4.8-3.1l1.2,1.9L446.6,192.9z M456.1,186.8l-1.2-1.9l4.8-3.1l1.2,1.9L456.1,186.8z"/>
	<path class="st0" d="M488.9,140.5h-2.3v-5.7h2.3V140.5z M488.9,129.2h-2.3v-5.7h2.3V129.2z M488.9,117.8h-2.3v-5.7h2.3V117.8z"/>
	<path class="st0" d="M451.8,64.7l-3.7-2.1l1.1-2l3.7,2.1L451.8,64.7z M443.2,59.8l-4.9-2.8l1.1-2l4.9,2.8L443.2,59.8z M433.3,54.2
		l-4.9-2.8l1.1-2l4.9,2.8L433.3,54.2z M423.4,48.6l-4.9-2.8l1.1-2l4.9,2.8L423.4,48.6z M413.6,43l-4.9-2.8l1.1-2l4.9,2.8L413.6,43z
		 M403.7,37.4l-4.9-2.8l1.1-2l4.9,2.8L403.7,37.4z"/>
	<path class="st0" d="M334.8,23.5h-5.7v-2.3h5.7V23.5z M323.4,23.5h-5.7v-2.3h5.7V23.5z M312.1,23.5h-5.7v-2.3h5.7V23.5z
		 M300.7,23.5H295v-2.3h5.7V23.5z"/>
	<path class="st0" d="M244.4,23.5h-2.3v-2.3h2.3V23.5z M236.4,23.5h-5.7v-2.3h5.7V23.5z M225,23.5h-5.7v-2.3h5.7V23.5z M213.7,23.5
		H208v-2.3h5.7V23.5z M202.3,23.5h-5.7v-2.3h5.7V23.5z"/>
	<path class="st0" d="M73.9,70.5l-1.1-2l5-2.8l1.1,2L73.9,70.5z M83.8,65l-1.1-2l5-2.8l1.1,2L83.8,65z M93.7,59.4l-1.1-2l5-2.8
		l1.1,2L93.7,59.4z M103.6,53.8l-1.1-2l5-2.8l1.1,2L103.6,53.8z M113.5,48.3l-1.1-2l5-2.8l1.1,2L113.5,48.3z M123.4,42.7l-1.1-2
		l5-2.8l1.1,2L123.4,42.7z M133.4,37.2l-1.1-2l4.3-2.4l1.1,2L133.4,37.2z"/>
	<path class="st0" d="M50.4,147.1h-2.3v-5.7h2.3V147.1z M50.4,135.8h-2.3v-5.7h2.3V135.8z M50.4,124.4h-2.3v-5.7h2.3V124.4z
		 M50.4,113h-2.3v-5.7h2.3V113z M50.4,101.7h-2.3V96h2.3V101.7z"/>
	<path class="st0" d="M133.9,223.3l-4.7-3.2l1.3-1.9l4.7,3.2L133.9,223.3z M124.5,217l-4.7-3.2l1.3-1.9l4.7,3.2L124.5,217z
		 M115.1,210.6l-4.7-3.2l1.3-1.9l4.7,3.2L115.1,210.6z M105.6,204.3l-4.7-3.2l1.3-1.9l4.7,3.2L105.6,204.3z M96.2,197.9l-4.7-3.2
		l1.3-1.9l4.7,3.2L96.2,197.9z M86.8,191.6l-4.7-3.2l1.3-1.9l4.7,3.2L86.8,191.6z M77.4,185.3l-1.3-0.9l1.3-1.9l1.3,0.9L77.4,185.3z
		"/>
	<g>
		<g>
			<path class="st6" d="M98.1,16h2.4c1.1,0,1.9,0.2,2.4,0.5c0.5,0.3,0.7,0.9,0.7,1.6c0,0.5-0.1,0.9-0.4,1.2
				c-0.3,0.3-0.7,0.5-1.2,0.6V20c1.3,0.2,1.9,0.9,1.9,2c0,0.8-0.3,1.3-0.8,1.8c-0.5,0.4-1.2,0.6-2.1,0.6h-2.9V16z M99.1,19.6h1.6
				c0.7,0,1.2-0.1,1.5-0.3c0.3-0.2,0.5-0.6,0.5-1.1c0-0.5-0.2-0.8-0.5-1s-0.9-0.3-1.6-0.3h-1.4V19.6z M99.1,20.5v3.2h1.8
				c0.7,0,1.2-0.1,1.5-0.4c0.3-0.3,0.5-0.7,0.5-1.2c0-0.5-0.2-0.9-0.5-1.2c-0.4-0.2-0.9-0.4-1.6-0.4H99.1z"/>
			<path class="st6" d="M113,20.2c0,1.3-0.3,2.4-1,3.2c-0.7,0.8-1.6,1.2-2.8,1.2c-1.2,0-2.2-0.4-2.9-1.1c-0.7-0.8-1-1.8-1-3.2
				c0-1.4,0.3-2.4,1-3.2c0.7-0.8,1.6-1.1,2.9-1.1c1.2,0,2.2,0.4,2.8,1.2C112.7,17.8,113,18.9,113,20.2z M106.3,20.2
				c0,1.1,0.2,2,0.7,2.6s1.2,0.9,2.1,0.9c0.9,0,1.6-0.3,2.1-0.9c0.5-0.6,0.7-1.5,0.7-2.6c0-1.1-0.2-2-0.7-2.6
				c-0.5-0.6-1.2-0.9-2.1-0.9c-0.9,0-1.6,0.3-2.1,0.9C106.6,18.2,106.3,19.1,106.3,20.2z"/>
			<path class="st6" d="M122.2,20.2c0,1.3-0.3,2.4-1,3.2c-0.7,0.8-1.6,1.2-2.8,1.2c-1.2,0-2.2-0.4-2.9-1.1c-0.7-0.8-1-1.8-1-3.2
				c0-1.4,0.3-2.4,1-3.2c0.7-0.8,1.6-1.1,2.9-1.1c1.2,0,2.2,0.4,2.8,1.2C121.9,17.8,122.2,18.9,122.2,20.2z M115.5,20.2
				c0,1.1,0.2,2,0.7,2.6s1.2,0.9,2.1,0.9c0.9,0,1.6-0.3,2.1-0.9c0.5-0.6,0.7-1.5,0.7-2.6c0-1.1-0.2-2-0.7-2.6
				c-0.5-0.6-1.2-0.9-2.1-0.9c-0.9,0-1.6,0.3-2.1,0.9C115.8,18.2,115.5,19.1,115.5,20.2z"/>
			<path class="st6" d="M130.2,24.4h-1.2l-3.1-4.1l-0.9,0.8v3.3h-1V16h1v4.2l3.8-4.2h1.2l-3.4,3.7L130.2,24.4z"/>
			<path class="st6" d="M135.1,24.4l-2.9-7.5h0c0.1,0.6,0.1,1.3,0.1,2.1v5.4h-0.9V16h1.5l2.7,7h0l2.7-7h1.5v8.4h-1V19
				c0-0.6,0-1.3,0.1-2h0l-2.9,7.5H135.1z"/>
			<path class="st6" d="M147.3,24.4l-1-2.7h-3.4l-1,2.7h-1l3.3-8.5h0.8l3.3,8.5H147.3z M146,20.9l-1-2.6c-0.1-0.3-0.3-0.7-0.4-1.2
				c-0.1,0.4-0.2,0.8-0.4,1.2l-1,2.6H146z"/>
			<path class="st6" d="M155.6,24.4h-1.2l-3.1-4.1l-0.9,0.8v3.3h-1V16h1v4.2l3.8-4.2h1.2l-3.4,3.7L155.6,24.4z"/>
			<path class="st6" d="M161.5,24.4h-4.7V16h4.7v0.9h-3.7v2.7h3.5v0.9h-3.5v3.1h3.7V24.4z"/>
			<path class="st6" d="M164.3,20.9v3.5h-1V16h2.3c1,0,1.8,0.2,2.3,0.6c0.5,0.4,0.7,1,0.7,1.8c0,1.1-0.6,1.9-1.7,2.3l2.3,3.8h-1.2
				l-2-3.5H164.3z M164.3,20.1h1.3c0.7,0,1.2-0.1,1.5-0.4s0.5-0.7,0.5-1.2c0-0.6-0.2-1-0.5-1.2s-0.9-0.4-1.6-0.4h-1.3V20.1z"/>
			<path class="st6" d="M175.4,22.2c0,0.7-0.3,1.3-0.8,1.7c-0.5,0.4-1.3,0.6-2.2,0.6c-1,0-1.8-0.1-2.3-0.4v-0.9
				c0.3,0.1,0.7,0.3,1.1,0.3c0.4,0.1,0.8,0.1,1.2,0.1c0.7,0,1.1-0.1,1.5-0.4s0.5-0.6,0.5-1c0-0.3-0.1-0.5-0.2-0.7
				c-0.1-0.2-0.3-0.4-0.6-0.5c-0.3-0.2-0.7-0.3-1.3-0.5c-0.8-0.3-1.3-0.6-1.7-1s-0.5-0.9-0.5-1.5c0-0.6,0.2-1.2,0.7-1.6
				c0.5-0.4,1.1-0.6,1.9-0.6c0.8,0,1.6,0.2,2.3,0.5l-0.3,0.9c-0.7-0.3-1.4-0.4-2-0.4c-0.5,0-0.9,0.1-1.2,0.3
				c-0.3,0.2-0.4,0.5-0.4,0.9c0,0.3,0.1,0.5,0.2,0.7c0.1,0.2,0.3,0.4,0.5,0.5c0.3,0.2,0.6,0.3,1.2,0.5c0.9,0.3,1.5,0.7,1.8,1
				C175.2,21.2,175.4,21.6,175.4,22.2z"/>
		</g>
	</g>
	<path class="st5" d="M193.2,35.1H79.7c-2.6,0-4.7-2.1-4.7-4.7V11.5c0-2.6,2.1-4.7,4.7-4.7h113.5c2.6,0,4.7,2.1,4.7,4.7v18.9
		C197.8,33,195.7,35.1,193.2,35.1z M79.7,9.4c-1.2,0-2.2,1-2.2,2.2v18.9c0,1.2,1,2.2,2.2,2.2h113.5c1.2,0,2.2-1,2.2-2.2V11.5
		c0-1.2-1-2.2-2.2-2.2H79.7z"/>
	<g>
		<g>
			<path class="st6" d="M375.2,24.4l-1-2.7h-3.4l-1,2.7h-1L372,16h0.8l3.3,8.5H375.2z M373.8,20.9l-1-2.6c-0.1-0.3-0.3-0.7-0.4-1.2
				c-0.1,0.4-0.2,0.8-0.4,1.2l-1,2.6H373.8z"/>
			<path class="st6" d="M378.3,24.4h-1V16h4.7v0.9h-3.7V20h3.5v0.9h-3.5V24.4z"/>
			<path class="st6" d="M384.4,24.4h-1V16h4.7v0.9h-3.7V20h3.5v0.9h-3.5V24.4z"/>
			<path class="st6" d="M389.5,24.4V16h1v8.4H389.5z"/>
			<path class="st6" d="M392.8,24.4V16h1v7.5h3.7v0.9H392.8z"/>
			<path class="st6" d="M399,24.4V16h1v8.4H399z"/>
			<path class="st6" d="M407.6,24.4l-1-2.7h-3.4l-1,2.7h-1l3.3-8.5h0.8l3.3,8.5H407.6z M406.2,20.9l-1-2.6c-0.1-0.3-0.3-0.7-0.4-1.2
				c-0.1,0.4-0.2,0.8-0.4,1.2l-1,2.6H406.2z"/>
			<path class="st6" d="M412.3,24.4h-1v-7.6h-2.7V16h6.3v0.9h-2.7V24.4z"/>
			<path class="st6" d="M421,24.4h-4.7V16h4.7v0.9h-3.7v2.7h3.5v0.9h-3.5v3.1h3.7V24.4z"/>
			<path class="st6" d="M427.6,22.2c0,0.7-0.3,1.3-0.8,1.7c-0.5,0.4-1.3,0.6-2.2,0.6c-1,0-1.8-0.1-2.3-0.4v-0.9
				c0.3,0.1,0.7,0.3,1.1,0.3s0.8,0.1,1.2,0.1c0.7,0,1.1-0.1,1.5-0.4s0.5-0.6,0.5-1c0-0.3-0.1-0.5-0.2-0.7c-0.1-0.2-0.3-0.4-0.6-0.5
				s-0.7-0.3-1.3-0.5c-0.8-0.3-1.3-0.6-1.7-1c-0.3-0.4-0.5-0.9-0.5-1.5c0-0.6,0.2-1.2,0.7-1.6c0.5-0.4,1.1-0.6,1.9-0.6
				c0.8,0,1.6,0.2,2.3,0.5l-0.3,0.9c-0.7-0.3-1.4-0.4-2-0.4c-0.5,0-0.9,0.1-1.2,0.3c-0.3,0.2-0.4,0.5-0.4,0.9c0,0.3,0.1,0.5,0.2,0.7
				c0.1,0.2,0.3,0.4,0.5,0.5s0.6,0.3,1.2,0.5c0.9,0.3,1.5,0.7,1.8,1C427.4,21.2,427.6,21.6,427.6,22.2z"/>
		</g>
	</g>
	<path class="st5" d="M455.2,35.1H341.7c-2.6,0-4.7-2.1-4.7-4.7V11.5c0-2.6,2.1-4.7,4.7-4.7h113.5c2.6,0,4.7,2.1,4.7,4.7v18.9
		C459.8,33,457.7,35.1,455.2,35.1z M341.7,9.4c-1.2,0-2.2,1-2.2,2.2v18.9c0,1.2,1,2.2,2.2,2.2h113.5c1.2,0,2.2-1,2.2-2.2V11.5
		c0-1.2-1-2.2-2.2-2.2H341.7z"/>
	<g>
		<g>
			<path class="st6" d="M371.2,235c0,1.4-0.4,2.5-1.1,3.2c-0.8,0.7-1.8,1.1-3.3,1.1h-2.3v-8.4h2.6c1.3,0,2.3,0.4,3.1,1.1
				S371.2,233.7,371.2,235z M370.2,235c0-1.1-0.3-1.9-0.8-2.5c-0.6-0.6-1.4-0.8-2.5-0.8h-1.4v6.7h1.2c1.2,0,2-0.3,2.6-0.9
				C369.9,237,370.2,236.1,370.2,235z"/>
			<path class="st6" d="M377.8,239.3h-4.7v-8.4h4.7v0.9h-3.7v2.7h3.5v0.9h-3.5v3.1h3.7V239.3z"/>
			<path class="st6" d="M384.5,230.8h1.1l-3,8.4h-1l-3-8.4h1l1.9,5.5c0.2,0.6,0.4,1.2,0.5,1.8c0.1-0.6,0.3-1.2,0.5-1.9L384.5,230.8z
				"/>
			<path class="st6" d="M391.4,239.3h-4.7v-8.4h4.7v0.9h-3.7v2.7h3.5v0.9h-3.5v3.1h3.7V239.3z"/>
			<path class="st6" d="M393.3,239.3v-8.4h1v7.5h3.7v0.9H393.3z"/>
			<path class="st6" d="M406.7,235c0,1.3-0.3,2.4-1,3.2c-0.7,0.8-1.6,1.2-2.8,1.2c-1.2,0-2.2-0.4-2.9-1.1c-0.7-0.8-1-1.8-1-3.2
				c0-1.4,0.3-2.4,1-3.2s1.6-1.1,2.9-1.1c1.2,0,2.2,0.4,2.8,1.2C406.4,232.6,406.7,233.7,406.7,235z M400,235c0,1.1,0.2,2,0.7,2.6
				c0.5,0.6,1.2,0.9,2.1,0.9c0.9,0,1.6-0.3,2.1-0.9c0.5-0.6,0.7-1.5,0.7-2.6c0-1.1-0.2-2-0.7-2.6c-0.5-0.6-1.2-0.9-2.1-0.9
				c-0.9,0-1.6,0.3-2.1,0.9C400.2,233.1,400,233.9,400,235z"/>
			<path class="st6" d="M413.9,233.3c0,0.9-0.3,1.5-0.9,2c-0.6,0.5-1.4,0.7-2.5,0.7h-1v3.3h-1v-8.4h2.2
				C412.9,230.8,413.9,231.7,413.9,233.3z M409.6,235.1h0.9c0.9,0,1.5-0.1,1.9-0.4c0.4-0.3,0.6-0.7,0.6-1.3c0-0.6-0.2-1-0.5-1.2
				c-0.4-0.3-0.9-0.4-1.7-0.4h-1.1V235.1z"/>
			<path class="st6" d="M420.4,239.3h-4.7v-8.4h4.7v0.9h-3.7v2.7h3.5v0.9h-3.5v3.1h3.7V239.3z"/>
			<path class="st6" d="M423.3,235.8v3.5h-1v-8.4h2.3c1,0,1.8,0.2,2.3,0.6c0.5,0.4,0.7,1,0.7,1.8c0,1.1-0.6,1.9-1.7,2.3l2.3,3.8
				h-1.2l-2-3.5H423.3z M423.3,234.9h1.3c0.7,0,1.2-0.1,1.5-0.4c0.3-0.3,0.5-0.7,0.5-1.2c0-0.6-0.2-1-0.5-1.2
				c-0.3-0.2-0.9-0.4-1.6-0.4h-1.3V234.9z"/>
			<path class="st6" d="M434.3,237c0,0.7-0.3,1.3-0.8,1.7s-1.3,0.6-2.2,0.6c-1,0-1.8-0.1-2.3-0.4v-0.9c0.3,0.1,0.7,0.3,1.1,0.3
				c0.4,0.1,0.8,0.1,1.2,0.1c0.7,0,1.1-0.1,1.5-0.4c0.3-0.2,0.5-0.6,0.5-1c0-0.3-0.1-0.5-0.2-0.7c-0.1-0.2-0.3-0.4-0.6-0.5
				c-0.3-0.2-0.7-0.3-1.3-0.5c-0.8-0.3-1.3-0.6-1.7-1c-0.3-0.4-0.5-0.9-0.5-1.5c0-0.6,0.2-1.2,0.7-1.6c0.5-0.4,1.1-0.6,1.9-0.6
				c0.8,0,1.6,0.2,2.3,0.5l-0.3,0.9c-0.7-0.3-1.4-0.4-2-0.4c-0.5,0-0.9,0.1-1.2,0.3c-0.3,0.2-0.4,0.5-0.4,0.9c0,0.3,0.1,0.5,0.2,0.7
				c0.1,0.2,0.3,0.4,0.5,0.5c0.3,0.2,0.6,0.3,1.2,0.5c0.9,0.3,1.5,0.7,1.8,1C434.2,236,434.3,236.5,434.3,237z"/>
		</g>
	</g>
	<path class="st5" d="M455.9,249.3H342.4c-2.6,0-4.7-2.1-4.7-4.7v-18.9c0-2.6,2.1-4.7,4.7-4.7h113.5c2.6,0,4.7,2.1,4.7,4.7v18.9
		C460.5,247.2,458.4,249.3,455.9,249.3z M342.4,223.6c-1.2,0-2.2,1-2.2,2.2v18.9c0,1.2,1,2.2,2.2,2.2h113.5c1.2,0,2.2-1,2.2-2.2
		v-18.9c0-1.2-1-2.2-2.2-2.2H342.4z"/>
	<g>
		<g>
			<path class="st6" d="M99.4,235.8v3.5h-1v-8.4h2.3c1,0,1.8,0.2,2.3,0.6c0.5,0.4,0.7,1,0.7,1.8c0,1.1-0.6,1.9-1.7,2.3l2.3,3.8h-1.2
				l-2-3.5H99.4z M99.4,234.9h1.3c0.7,0,1.2-0.1,1.5-0.4c0.3-0.3,0.5-0.7,0.5-1.2c0-0.6-0.2-1-0.5-1.2c-0.3-0.2-0.9-0.4-1.6-0.4
				h-1.3V234.9z"/>
			<path class="st6" d="M105.7,239.3v-8.4h1v8.4H105.7z"/>
			<path class="st6" d="M113.8,237c0,0.7-0.3,1.3-0.8,1.7c-0.5,0.4-1.3,0.6-2.2,0.6c-1,0-1.8-0.1-2.3-0.4v-0.9
				c0.3,0.1,0.7,0.3,1.1,0.3c0.4,0.1,0.8,0.1,1.2,0.1c0.7,0,1.1-0.1,1.5-0.4c0.3-0.2,0.5-0.6,0.5-1c0-0.3-0.1-0.5-0.2-0.7
				c-0.1-0.2-0.3-0.4-0.6-0.5c-0.3-0.2-0.7-0.3-1.3-0.5c-0.8-0.3-1.3-0.6-1.7-1c-0.3-0.4-0.5-0.9-0.5-1.5c0-0.6,0.2-1.2,0.7-1.6
				c0.5-0.4,1.1-0.6,1.9-0.6c0.8,0,1.6,0.2,2.3,0.5l-0.3,0.9c-0.7-0.3-1.4-0.4-2-0.4c-0.5,0-0.9,0.1-1.2,0.3
				c-0.3,0.2-0.4,0.5-0.4,0.9c0,0.3,0.1,0.5,0.2,0.7c0.1,0.2,0.3,0.4,0.5,0.5c0.3,0.2,0.6,0.3,1.2,0.5c0.9,0.3,1.5,0.7,1.8,1
				C113.6,236,113.8,236.5,113.8,237z"/>
			<path class="st6" d="M121.6,239.3h-1.2l-3.1-4.1l-0.9,0.8v3.3h-1v-8.4h1v4.2l3.8-4.2h1.2l-3.4,3.7L121.6,239.3z"/>
			<path class="st6" d="M125.8,230.8h2.4c1.1,0,1.9,0.2,2.4,0.5c0.5,0.3,0.7,0.9,0.7,1.6c0,0.5-0.1,0.9-0.4,1.2
				c-0.3,0.3-0.7,0.5-1.2,0.6v0.1c1.3,0.2,1.9,0.9,1.9,2c0,0.8-0.3,1.3-0.8,1.8c-0.5,0.4-1.2,0.6-2.1,0.6h-2.9V230.8z M126.8,234.5
				h1.6c0.7,0,1.2-0.1,1.5-0.3c0.3-0.2,0.5-0.6,0.5-1.1c0-0.5-0.2-0.8-0.5-1c-0.3-0.2-0.9-0.3-1.6-0.3h-1.4V234.5z M126.8,235.3v3.2
				h1.8c0.7,0,1.2-0.1,1.5-0.4c0.3-0.3,0.5-0.7,0.5-1.2c0-0.5-0.2-0.9-0.5-1.2c-0.4-0.2-0.9-0.4-1.6-0.4H126.8z"/>
			<path class="st6" d="M138.8,239.3l-1-2.7h-3.4l-1,2.7h-1l3.3-8.5h0.8l3.3,8.5H138.8z M137.4,235.7l-1-2.6
				c-0.1-0.3-0.3-0.7-0.4-1.2c-0.1,0.4-0.2,0.8-0.4,1.2l-1,2.6H137.4z"/>
			<path class="st6" d="M144.6,231.6c-0.9,0-1.7,0.3-2.2,0.9c-0.5,0.6-0.8,1.5-0.8,2.5c0,1.1,0.3,2,0.8,2.6c0.5,0.6,1.3,0.9,2.2,0.9
				c0.6,0,1.3-0.1,2-0.3v0.9c-0.6,0.2-1.3,0.3-2.2,0.3c-1.2,0-2.2-0.4-2.9-1.1c-0.7-0.8-1-1.8-1-3.2c0-0.9,0.2-1.6,0.5-2.3
				c0.3-0.7,0.8-1.2,1.4-1.5c0.6-0.4,1.3-0.5,2.2-0.5c0.9,0,1.7,0.2,2.3,0.5l-0.4,0.8C145.9,231.7,145.2,231.6,144.6,231.6z"/>
			<path class="st6" d="M154.5,239.3h-1.2l-3.1-4.1l-0.9,0.8v3.3h-1v-8.4h1v4.2l3.8-4.2h1.2l-3.4,3.7L154.5,239.3z"/>
			<path class="st6" d="M160.4,239.3h-4.7v-8.4h4.7v0.9h-3.7v2.7h3.5v0.9h-3.5v3.1h3.7V239.3z"/>
			<path class="st6" d="M163.2,235.8v3.5h-1v-8.4h2.3c1,0,1.8,0.2,2.3,0.6c0.5,0.4,0.7,1,0.7,1.8c0,1.1-0.6,1.9-1.7,2.3l2.3,3.8H167
				l-2-3.5H163.2z M163.2,234.9h1.3c0.7,0,1.2-0.1,1.5-0.4c0.3-0.3,0.5-0.7,0.5-1.2c0-0.6-0.2-1-0.5-1.2c-0.3-0.2-0.9-0.4-1.6-0.4
				h-1.3V234.9z"/>
			<path class="st6" d="M174.3,237c0,0.7-0.3,1.3-0.8,1.7c-0.5,0.4-1.3,0.6-2.2,0.6c-1,0-1.8-0.1-2.3-0.4v-0.9
				c0.3,0.1,0.7,0.3,1.1,0.3c0.4,0.1,0.8,0.1,1.2,0.1c0.7,0,1.1-0.1,1.5-0.4c0.3-0.2,0.5-0.6,0.5-1c0-0.3-0.1-0.5-0.2-0.7
				c-0.1-0.2-0.3-0.4-0.6-0.5c-0.3-0.2-0.7-0.3-1.3-0.5c-0.8-0.3-1.3-0.6-1.7-1c-0.3-0.4-0.5-0.9-0.5-1.5c0-0.6,0.2-1.2,0.7-1.6
				c0.5-0.4,1.1-0.6,1.9-0.6c0.8,0,1.6,0.2,2.3,0.5l-0.3,0.9c-0.7-0.3-1.4-0.4-2-0.4c-0.5,0-0.9,0.1-1.2,0.3
				c-0.3,0.2-0.4,0.5-0.4,0.9c0,0.3,0.1,0.5,0.2,0.7c0.1,0.2,0.3,0.4,0.5,0.5c0.3,0.2,0.6,0.3,1.2,0.5c0.9,0.3,1.5,0.7,1.8,1
				C174.1,236,174.3,236.5,174.3,237z"/>
		</g>
	</g>
	<path class="st5" d="M192.8,249.3H79.3c-2.6,0-4.7-2.1-4.7-4.7v-18.9c0-2.6,2.1-4.7,4.7-4.7h113.5c2.6,0,4.7,2.1,4.7,4.7v18.9
		C197.5,247.2,195.4,249.3,192.8,249.3z M79.3,223.6c-1.2,0-2.2,1-2.2,2.2v18.9c0,1.2,1,2.2,2.2,2.2h113.5c1.2,0,2.2-1,2.2-2.2
		v-18.9c0-1.2-1-2.2-2.2-2.2H79.3z"/>
	<g>
		<path class="st6" d="M420,74.5h2.9v4.1c-0.4,0.1-0.9,0.3-1.4,0.3c-0.5,0.1-1,0.1-1.6,0.1c-1.3,0-2.3-0.4-3-1.1
			c-0.7-0.8-1.1-1.8-1.1-3.2c0-0.9,0.2-1.6,0.5-2.3c0.4-0.7,0.9-1.2,1.5-1.5c0.7-0.3,1.4-0.5,2.3-0.5c0.9,0,1.7,0.2,2.5,0.5
			l-0.4,0.9c-0.8-0.3-1.5-0.5-2.2-0.5c-1,0-1.8,0.3-2.4,0.9c-0.6,0.6-0.9,1.5-0.9,2.5c0,1.1,0.3,2,0.8,2.6s1.4,0.9,2.4,0.9
			c0.6,0,1.2-0.1,1.7-0.2v-2.6H420V74.5z"/>
		<path class="st6" d="M430.2,79l-1-2.7h-3.4l-1,2.7h-1l3.3-8.5h0.8l3.3,8.5H430.2z M428.8,75.4l-1-2.6c-0.1-0.3-0.3-0.7-0.4-1.2
			c-0.1,0.4-0.2,0.8-0.4,1.2l-1,2.6H428.8z"/>
		<path class="st6" d="M436.1,79l-2.9-7.5h0c0.1,0.6,0.1,1.3,0.1,2.1V79h-0.9v-8.4h1.5l2.7,7h0l2.7-7h1.5V79h-1v-5.4
			c0-0.6,0-1.3,0.1-2h0l-2.9,7.5H436.1z"/>
		<path class="st6" d="M443,79v-8.4h1V79H443z"/>
		<path class="st6" d="M452.9,79h-1.1l-4.6-7.1h0c0.1,0.8,0.1,1.6,0.1,2.3V79h-0.9v-8.4h1.1l4.6,7h0c0-0.1,0-0.4-0.1-1
			c0-0.6,0-1,0-1.2v-4.8h0.9V79z"/>
		<path class="st6" d="M458.9,74.5h2.9v4.1c-0.4,0.1-0.9,0.3-1.4,0.3c-0.5,0.1-1,0.1-1.6,0.1c-1.3,0-2.3-0.4-3-1.1s-1.1-1.8-1.1-3.2
			c0-0.9,0.2-1.6,0.5-2.3c0.4-0.7,0.9-1.2,1.5-1.5c0.7-0.3,1.4-0.5,2.3-0.5c0.9,0,1.7,0.2,2.5,0.5l-0.4,0.9
			c-0.8-0.3-1.5-0.5-2.2-0.5c-1,0-1.8,0.3-2.4,0.9s-0.9,1.5-0.9,2.5c0,1.1,0.3,2,0.8,2.6c0.6,0.6,1.4,0.9,2.4,0.9
			c0.6,0,1.2-0.1,1.7-0.2v-2.6h-1.9V74.5z"/>
		<path class="st6" d="M466.9,79v-8.4h1v7.5h3.7V79H466.9z"/>
		<path class="st6" d="M478.3,79l-1-2.7h-3.4l-1,2.7h-1l3.3-8.5h0.8l3.3,8.5H478.3z M477,75.4l-1-2.6c-0.1-0.3-0.3-0.7-0.4-1.2
			c-0.1,0.4-0.2,0.8-0.4,1.2l-1,2.6H477z"/>
		<path class="st6" d="M480.5,70.5h2.4c1.1,0,1.9,0.2,2.4,0.5s0.7,0.9,0.7,1.6c0,0.5-0.1,0.9-0.4,1.2c-0.3,0.3-0.7,0.5-1.2,0.6v0.1
			c1.3,0.2,1.9,0.9,1.9,2c0,0.8-0.3,1.3-0.8,1.8c-0.5,0.4-1.2,0.6-2.1,0.6h-2.9V70.5z M481.5,74.1h1.6c0.7,0,1.2-0.1,1.5-0.3
			s0.5-0.6,0.5-1.1c0-0.5-0.2-0.8-0.5-1c-0.3-0.2-0.9-0.3-1.6-0.3h-1.4V74.1z M481.5,75v3.2h1.8c0.7,0,1.2-0.1,1.5-0.4
			c0.3-0.3,0.5-0.7,0.5-1.2c0-0.5-0.2-0.9-0.5-1.2c-0.4-0.2-0.9-0.4-1.6-0.4H481.5z"/>
		<path class="st6" d="M495.5,74.7c0,1.3-0.3,2.4-1,3.2c-0.7,0.8-1.6,1.2-2.8,1.2c-1.2,0-2.2-0.4-2.9-1.1s-1-1.8-1-3.2
			c0-1.4,0.3-2.4,1-3.2c0.7-0.8,1.6-1.1,2.9-1.1c1.2,0,2.2,0.4,2.8,1.2C495.1,72.3,495.5,73.4,495.5,74.7z M488.8,74.7
			c0,1.1,0.2,2,0.7,2.6c0.5,0.6,1.2,0.9,2.1,0.9c0.9,0,1.6-0.3,2.1-0.9c0.5-0.6,0.7-1.5,0.7-2.6c0-1.1-0.2-2-0.7-2.6
			c-0.5-0.6-1.2-0.9-2.1-0.9c-0.9,0-1.6,0.3-2.1,0.9C489,72.7,488.8,73.6,488.8,74.7z"/>
		<path class="st6" d="M498.3,75.4V79h-1v-8.4h2.3c1,0,1.8,0.2,2.3,0.6c0.5,0.4,0.7,1,0.7,1.8c0,1.1-0.6,1.9-1.7,2.3l2.3,3.8h-1.2
			l-2-3.5H498.3z M498.3,74.6h1.3c0.7,0,1.2-0.1,1.5-0.4c0.3-0.3,0.5-0.7,0.5-1.2c0-0.6-0.2-1-0.5-1.2c-0.3-0.2-0.9-0.4-1.6-0.4
			h-1.3V74.6z"/>
		<path class="st6" d="M510,79l-1-2.7h-3.4l-1,2.7h-1l3.3-8.5h0.8L511,79H510z M508.6,75.4l-1-2.6c-0.1-0.3-0.3-0.7-0.4-1.2
			c-0.1,0.4-0.2,0.8-0.4,1.2l-1,2.6H508.6z"/>
		<path class="st6" d="M514.7,79h-1v-7.6h-2.7v-0.9h6.3v0.9h-2.7V79z"/>
		<path class="st6" d="M526,74.7c0,1.3-0.3,2.4-1,3.2c-0.7,0.8-1.6,1.2-2.8,1.2c-1.2,0-2.2-0.4-2.9-1.1s-1-1.8-1-3.2
			c0-1.4,0.3-2.4,1-3.2c0.7-0.8,1.6-1.1,2.9-1.1c1.2,0,2.2,0.4,2.8,1.2C525.6,72.3,526,73.4,526,74.7z M519.3,74.7
			c0,1.1,0.2,2,0.7,2.6c0.5,0.6,1.2,0.9,2.1,0.9c0.9,0,1.6-0.3,2.1-0.9s0.7-1.5,0.7-2.6c0-1.1-0.2-2-0.7-2.6
			c-0.5-0.6-1.2-0.9-2.1-0.9c-0.9,0-1.6,0.3-2.1,0.9C519.5,72.7,519.3,73.6,519.3,74.7z"/>
		<path class="st6" d="M528.8,75.4V79h-1v-8.4h2.3c1,0,1.8,0.2,2.3,0.6c0.5,0.4,0.7,1,0.7,1.8c0,1.1-0.6,1.9-1.7,2.3l2.3,3.8h-1.2
			l-2-3.5H528.8z M528.8,74.6h1.3c0.7,0,1.2-0.1,1.5-0.4s0.5-0.7,0.5-1.2c0-0.6-0.2-1-0.5-1.2c-0.3-0.2-0.9-0.4-1.6-0.4h-1.3V74.6z"
			/>
		<path class="st6" d="M535.2,79v-8.4h1V79H535.2z"/>
		<path class="st6" d="M543.2,79h-4.7v-8.4h4.7v0.9h-3.7v2.7h3.5V75h-3.5v3.1h3.7V79z"/>
		<path class="st6" d="M549.8,76.7c0,0.7-0.3,1.3-0.8,1.7c-0.5,0.4-1.3,0.6-2.2,0.6c-1,0-1.8-0.1-2.3-0.4v-0.9
			c0.3,0.1,0.7,0.3,1.1,0.3c0.4,0.1,0.8,0.1,1.2,0.1c0.7,0,1.1-0.1,1.5-0.4c0.3-0.2,0.5-0.6,0.5-1c0-0.3-0.1-0.5-0.2-0.7
			c-0.1-0.2-0.3-0.4-0.6-0.5c-0.3-0.2-0.7-0.3-1.3-0.5c-0.8-0.3-1.3-0.6-1.7-1s-0.5-0.9-0.5-1.5c0-0.6,0.2-1.2,0.7-1.6
			c0.5-0.4,1.1-0.6,1.9-0.6c0.8,0,1.6,0.2,2.3,0.5l-0.3,0.9c-0.7-0.3-1.4-0.4-2-0.4c-0.5,0-0.9,0.1-1.2,0.3
			c-0.3,0.2-0.4,0.5-0.4,0.9c0,0.3,0.1,0.5,0.2,0.7c0.1,0.2,0.3,0.4,0.5,0.5s0.6,0.3,1.2,0.5c0.9,0.3,1.5,0.7,1.8,1
			C549.6,75.7,549.8,76.1,549.8,76.7z"/>
		<path class="st6" d="M442.8,93.1l-1-2.7h-3.4l-1,2.7h-1l3.3-8.5h0.8l3.3,8.5H442.8z M441.5,89.6l-1-2.6c-0.1-0.3-0.3-0.7-0.4-1.2
			c-0.1,0.4-0.2,0.8-0.4,1.2l-1,2.6H441.5z"/>
		<path class="st6" d="M451.6,93.1h-1.1l-4.6-7.1h0c0.1,0.8,0.1,1.6,0.1,2.3v4.8H445v-8.4h1.1l4.6,7h0c0-0.1,0-0.4-0.1-1
			c0-0.6,0-1,0-1.2v-4.8h0.9V93.1z"/>
		<path class="st6" d="M460.6,88.8c0,1.4-0.4,2.5-1.1,3.2c-0.8,0.7-1.8,1.1-3.3,1.1h-2.3v-8.4h2.6c1.3,0,2.3,0.4,3.1,1.1
			C460.3,86.5,460.6,87.5,460.6,88.8z M459.6,88.9c0-1.1-0.3-1.9-0.8-2.5c-0.6-0.6-1.4-0.8-2.5-0.8h-1.4v6.7h1.2
			c1.2,0,2-0.3,2.6-0.9C459.3,90.8,459.6,90,459.6,88.9z"/>
		<path class="st6" d="M469.2,85.5c-0.9,0-1.7,0.3-2.2,0.9s-0.8,1.5-0.8,2.5c0,1.1,0.3,2,0.8,2.6c0.5,0.6,1.3,0.9,2.2,0.9
			c0.6,0,1.3-0.1,2-0.3v0.9c-0.6,0.2-1.3,0.3-2.2,0.3c-1.2,0-2.2-0.4-2.9-1.1c-0.7-0.8-1-1.8-1-3.2c0-0.9,0.2-1.6,0.5-2.3
			c0.3-0.7,0.8-1.2,1.4-1.5c0.6-0.4,1.3-0.5,2.2-0.5c0.9,0,1.7,0.2,2.3,0.5l-0.4,0.8C470.5,85.6,469.8,85.5,469.2,85.5z"/>
		<path class="st6" d="M477.7,93.1H473v-8.4h4.7v0.9H474v2.7h3.5v0.9H474v3.1h3.7V93.1z"/>
		<path class="st6" d="M480.6,89.6v3.5h-1v-8.4h2.3c1,0,1.8,0.2,2.3,0.6c0.5,0.4,0.7,1,0.7,1.8c0,1.1-0.6,1.9-1.7,2.3l2.3,3.8h-1.2
			l-2-3.5H480.6z M480.6,88.8h1.3c0.7,0,1.2-0.1,1.5-0.4c0.3-0.3,0.5-0.7,0.5-1.2c0-0.6-0.2-1-0.5-1.2c-0.3-0.2-0.9-0.4-1.6-0.4
			h-1.3V88.8z"/>
		<path class="st6" d="M489.5,93.1h-1v-7.6h-2.7v-0.9h6.3v0.9h-2.7V93.1z"/>
		<path class="st6" d="M493.5,93.1v-8.4h1v8.4H493.5z"/>
		<path class="st6" d="M497.7,93.1h-1v-8.4h4.7v0.9h-3.7v3.1h3.5v0.9h-3.5V93.1z"/>
		<path class="st6" d="M505,88.9l2.2-4.2h1.1l-2.8,5.2v3.3h-1v-3.2l-2.8-5.2h1.1L505,88.9z"/>
		<path class="st6" d="M509.5,93.1v-8.4h1v8.4H509.5z"/>
		<path class="st6" d="M519.3,93.1h-1.1l-4.6-7.1h0c0.1,0.8,0.1,1.6,0.1,2.3v4.8h-0.9v-8.4h1.1l4.6,7h0c0-0.1,0-0.4-0.1-1
			c0-0.6,0-1,0-1.2v-4.8h0.9V93.1z"/>
		<path class="st6" d="M525.4,88.7h2.9v4.1c-0.4,0.1-0.9,0.3-1.4,0.3c-0.5,0.1-1,0.1-1.6,0.1c-1.3,0-2.3-0.4-3-1.1
			c-0.7-0.8-1.1-1.8-1.1-3.2c0-0.9,0.2-1.6,0.5-2.3c0.4-0.7,0.9-1.2,1.5-1.5c0.7-0.3,1.4-0.5,2.3-0.5c0.9,0,1.7,0.2,2.5,0.5
			l-0.4,0.9c-0.8-0.3-1.5-0.5-2.2-0.5c-1,0-1.8,0.3-2.4,0.9c-0.6,0.6-0.9,1.5-0.9,2.5c0,1.1,0.3,2,0.8,2.6s1.4,0.9,2.4,0.9
			c0.6,0,1.2-0.1,1.7-0.2v-2.6h-1.9V88.7z"/>
		<path class="st6" d="M450.7,107.3l-1-2.7h-3.4l-1,2.7h-1l3.3-8.5h0.8l3.3,8.5H450.7z M449.3,103.7l-1-2.6
			c-0.1-0.3-0.3-0.7-0.4-1.2c-0.1,0.4-0.2,0.8-0.4,1.2l-1,2.6H449.3z"/>
		<path class="st6" d="M459.2,98.9v5.5c0,1-0.3,1.7-0.9,2.3c-0.6,0.5-1.4,0.8-2.4,0.8c-1,0-1.8-0.3-2.4-0.8
			c-0.6-0.6-0.8-1.3-0.8-2.3v-5.4h1v5.5c0,0.7,0.2,1.2,0.6,1.6c0.4,0.4,0.9,0.6,1.7,0.6c0.7,0,1.3-0.2,1.6-0.6
			c0.4-0.4,0.6-0.9,0.6-1.6v-5.5H459.2z"/>
		<path class="st6" d="M464,107.3h-1v-7.6h-2.7v-0.9h6.3v0.9H464V107.3z"/>
		<path class="st6" d="M474.4,107.3h-1v-4H469v4h-1v-8.4h1v3.6h4.4v-3.6h1V107.3z"/>
		<path class="st6" d="M484,103.1c0,1.3-0.3,2.4-1,3.2s-1.6,1.2-2.8,1.2c-1.2,0-2.2-0.4-2.9-1.1s-1-1.8-1-3.2c0-1.4,0.3-2.4,1-3.2
			c0.7-0.8,1.6-1.1,2.9-1.1c1.2,0,2.2,0.4,2.8,1.2C483.7,100.7,484,101.7,484,103.1z M477.3,103.1c0,1.1,0.2,2,0.7,2.6
			s1.2,0.9,2.1,0.9c0.9,0,1.6-0.3,2.1-0.9c0.5-0.6,0.7-1.5,0.7-2.6c0-1.1-0.2-2-0.7-2.6s-1.2-0.9-2.1-0.9c-0.9,0-1.6,0.3-2.1,0.9
			S477.3,101.9,477.3,103.1z"/>
		<path class="st6" d="M486.9,103.8v3.5h-1v-8.4h2.3c1,0,1.8,0.2,2.3,0.6c0.5,0.4,0.7,1,0.7,1.8c0,1.1-0.6,1.9-1.7,2.3l2.3,3.8h-1.2
			l-2-3.5H486.9z M486.9,103h1.3c0.7,0,1.2-0.1,1.5-0.4c0.3-0.3,0.5-0.7,0.5-1.2c0-0.6-0.2-1-0.5-1.2c-0.3-0.2-0.9-0.4-1.6-0.4h-1.3
			V103z"/>
		<path class="st6" d="M493.2,107.3v-8.4h1v8.4H493.2z"/>
		<path class="st6" d="M499.1,107.3h-1v-7.6h-2.7v-0.9h6.3v0.9h-2.7V107.3z"/>
		<path class="st6" d="M503,107.3v-8.4h1v8.4H503z"/>
		<path class="st6" d="M511,107.3h-4.7v-8.4h4.7v0.9h-3.7v2.7h3.5v0.9h-3.5v3.1h3.7V107.3z"/>
		<path class="st6" d="M517.6,105.1c0,0.7-0.3,1.3-0.8,1.7s-1.3,0.6-2.2,0.6c-1,0-1.8-0.1-2.3-0.4v-0.9c0.3,0.1,0.7,0.3,1.1,0.3
			s0.8,0.1,1.2,0.1c0.7,0,1.1-0.1,1.5-0.4c0.3-0.2,0.5-0.6,0.5-1c0-0.3-0.1-0.5-0.2-0.7c-0.1-0.2-0.3-0.4-0.6-0.5
			c-0.3-0.2-0.7-0.3-1.3-0.5c-0.8-0.3-1.3-0.6-1.7-1c-0.3-0.4-0.5-0.9-0.5-1.5c0-0.6,0.2-1.2,0.7-1.6s1.1-0.6,1.9-0.6
			c0.8,0,1.6,0.2,2.3,0.5l-0.3,0.9c-0.7-0.3-1.4-0.4-2-0.4c-0.5,0-0.9,0.1-1.2,0.3c-0.3,0.2-0.4,0.5-0.4,0.9c0,0.3,0.1,0.5,0.2,0.7
			c0.1,0.2,0.3,0.4,0.5,0.5s0.6,0.3,1.2,0.5c0.9,0.3,1.5,0.7,1.8,1C517.5,104,517.6,104.5,517.6,105.1z"/>
	</g>
	<path class="st5" d="M550.6,113.7H414.4c-2.6,0-4.7-2.1-4.7-4.7V67.4c0-2.6,2.1-4.7,4.7-4.7h136.2c2.6,0,4.7,2.1,4.7,4.7V109
		C555.3,111.6,553.2,113.7,550.6,113.7z M414.4,65.2c-1.2,0-2.2,1-2.2,2.2V109c0,1.2,1,2.2,2.2,2.2h136.2c1.2,0,2.2-1,2.2-2.2V67.4
		c0-1.2-1-2.2-2.2-2.2H414.4z"/>
	<g>
		<path class="st6" d="M471.4,165v3.5h-1V160h2.3c1,0,1.8,0.2,2.3,0.6s0.7,1,0.7,1.8c0,1.1-0.6,1.9-1.7,2.3l2.3,3.8h-1.2l-2-3.5
			H471.4z M471.4,164.1h1.3c0.7,0,1.2-0.1,1.5-0.4c0.3-0.3,0.5-0.7,0.5-1.2c0-0.6-0.2-1-0.5-1.2c-0.3-0.2-0.9-0.4-1.6-0.4h-1.3
			V164.1z"/>
		<path class="st6" d="M482.5,168.5h-4.7V160h4.7v0.9h-3.7v2.7h3.5v0.9h-3.5v3.1h3.7V168.5z"/>
		<path class="st6" d="M488,164h2.9v4.1c-0.4,0.1-0.9,0.3-1.4,0.3c-0.5,0.1-1,0.1-1.6,0.1c-1.3,0-2.3-0.4-3-1.1s-1.1-1.8-1.1-3.2
			c0-0.9,0.2-1.6,0.5-2.3c0.4-0.7,0.9-1.2,1.5-1.5c0.7-0.3,1.4-0.5,2.3-0.5c0.9,0,1.7,0.2,2.5,0.5l-0.4,0.9
			c-0.8-0.3-1.5-0.5-2.2-0.5c-1,0-1.8,0.3-2.4,0.9c-0.6,0.6-0.9,1.5-0.9,2.5c0,1.1,0.3,2,0.8,2.6c0.6,0.6,1.4,0.9,2.4,0.9
			c0.6,0,1.2-0.1,1.7-0.2v-2.6H488V164z"/>
		<path class="st6" d="M499.3,160v5.5c0,1-0.3,1.7-0.9,2.3s-1.4,0.8-2.4,0.8s-1.8-0.3-2.4-0.8c-0.6-0.6-0.8-1.3-0.8-2.3V160h1v5.5
			c0,0.7,0.2,1.2,0.6,1.6c0.4,0.4,0.9,0.6,1.7,0.6c0.7,0,1.3-0.2,1.6-0.6c0.4-0.4,0.6-0.9,0.6-1.6V160H499.3z"/>
		<path class="st6" d="M501.5,168.5V160h1v7.5h3.7v0.9H501.5z"/>
		<path class="st6" d="M513,168.5l-1-2.7h-3.4l-1,2.7h-1l3.3-8.5h0.8l3.3,8.5H513z M511.6,164.9l-1-2.6c-0.1-0.3-0.3-0.7-0.4-1.2
			c-0.1,0.4-0.2,0.8-0.4,1.2l-1,2.6H511.6z"/>
		<path class="st6" d="M517.7,168.5h-1v-7.6h-2.7V160h6.3v0.9h-2.7V168.5z"/>
		<path class="st6" d="M529,164.2c0,1.3-0.3,2.4-1,3.2s-1.6,1.2-2.8,1.2c-1.2,0-2.2-0.4-2.9-1.1s-1-1.8-1-3.2c0-1.4,0.3-2.4,1-3.2
			c0.7-0.8,1.6-1.1,2.9-1.1c1.2,0,2.2,0.4,2.8,1.2S529,162.9,529,164.2z M522.3,164.2c0,1.1,0.2,2,0.7,2.6c0.5,0.6,1.2,0.9,2.1,0.9
			c0.9,0,1.6-0.3,2.1-0.9c0.5-0.6,0.7-1.5,0.7-2.6c0-1.1-0.2-2-0.7-2.6c-0.5-0.6-1.2-0.9-2.1-0.9c-0.9,0-1.6,0.3-2.1,0.9
			C522.5,162.3,522.3,163.1,522.3,164.2z"/>
		<path class="st6" d="M531.8,165v3.5h-1V160h2.3c1,0,1.8,0.2,2.3,0.6c0.5,0.4,0.7,1,0.7,1.8c0,1.1-0.6,1.9-1.7,2.3l2.3,3.8h-1.2
			l-2-3.5H531.8z M531.8,164.1h1.3c0.7,0,1.2-0.1,1.5-0.4s0.5-0.7,0.5-1.2c0-0.6-0.2-1-0.5-1.2c-0.3-0.2-0.9-0.4-1.6-0.4h-1.3V164.1
			z"/>
		<path class="st6" d="M542.9,166.2c0,0.7-0.3,1.3-0.8,1.7c-0.5,0.4-1.3,0.6-2.2,0.6c-1,0-1.8-0.1-2.3-0.4v-0.9
			c0.3,0.1,0.7,0.3,1.1,0.3c0.4,0.1,0.8,0.1,1.2,0.1c0.7,0,1.1-0.1,1.5-0.4c0.3-0.2,0.5-0.6,0.5-1c0-0.3-0.1-0.5-0.2-0.7
			c-0.1-0.2-0.3-0.4-0.6-0.5s-0.7-0.3-1.3-0.5c-0.8-0.3-1.3-0.6-1.7-1s-0.5-0.9-0.5-1.5c0-0.6,0.2-1.2,0.7-1.6
			c0.5-0.4,1.1-0.6,1.9-0.6c0.8,0,1.6,0.2,2.3,0.5l-0.3,0.9c-0.7-0.3-1.4-0.4-2-0.4c-0.5,0-0.9,0.1-1.2,0.3
			c-0.3,0.2-0.4,0.5-0.4,0.9c0,0.3,0.1,0.5,0.2,0.7c0.1,0.2,0.3,0.4,0.5,0.5c0.3,0.2,0.6,0.3,1.2,0.5c0.9,0.3,1.5,0.7,1.8,1
			C542.8,165.2,542.9,165.6,542.9,166.2z"/>
	</g>
	<path class="st5" d="M550.6,184.3h-88.5c-2.6,0-4.7-2.1-4.7-4.7v-29.1c0-2.6,2.1-4.7,4.7-4.7l88.5-0.2c2.6,0,4.7,2.1,4.7,4.7v29.4
		C555.3,182.3,553.2,184.3,550.6,184.3z M550.6,148.2l-88.5,0.2c-1.2,0-2.2,1-2.2,2.2v29.1c0,1.2,1,2.2,2.2,2.2h88.5
		c1.2,0,2.2-1,2.2-2.2v-29.4C552.8,149.1,551.8,148.2,550.6,148.2z"/>
	<g>
		<g>
			<path class="st6" d="M32.5,159.8c0,0.7-0.3,1.3-0.8,1.7s-1.3,0.6-2.2,0.6c-1,0-1.8-0.1-2.3-0.4v-0.9c0.3,0.1,0.7,0.3,1.1,0.3
				c0.4,0.1,0.8,0.1,1.2,0.1c0.7,0,1.1-0.1,1.5-0.4c0.3-0.2,0.5-0.6,0.5-1c0-0.3-0.1-0.5-0.2-0.7c-0.1-0.2-0.3-0.4-0.6-0.5
				c-0.3-0.2-0.7-0.3-1.3-0.5c-0.8-0.3-1.3-0.6-1.7-1c-0.3-0.4-0.5-0.9-0.5-1.5c0-0.6,0.2-1.2,0.7-1.6c0.5-0.4,1.1-0.6,1.9-0.6
				c0.8,0,1.6,0.2,2.3,0.5l-0.3,0.9c-0.7-0.3-1.4-0.4-2-0.4c-0.5,0-0.9,0.1-1.2,0.3c-0.3,0.2-0.4,0.5-0.4,0.9c0,0.3,0.1,0.5,0.2,0.7
				c0.1,0.2,0.3,0.4,0.5,0.5c0.3,0.2,0.6,0.3,1.2,0.5c0.9,0.3,1.5,0.7,1.8,1C32.3,158.8,32.5,159.2,32.5,159.8z"/>
			<path class="st6" d="M38.9,162.1h-4.7v-8.4h4.7v0.9h-3.7v2.7h3.5v0.9h-3.5v3.1h3.7V162.1z"/>
			<path class="st6" d="M41.7,158.6v3.5h-1v-8.4h2.3c1,0,1.8,0.2,2.3,0.6c0.5,0.4,0.7,1,0.7,1.8c0,1.1-0.6,1.9-1.7,2.3l2.3,3.8h-1.2
				l-2-3.5H41.7z M41.7,157.7h1.3c0.7,0,1.2-0.1,1.5-0.4c0.3-0.3,0.5-0.7,0.5-1.2c0-0.6-0.2-1-0.5-1.2c-0.3-0.2-0.9-0.4-1.6-0.4
				h-1.3V157.7z"/>
			<path class="st6" d="M52.9,153.6h1.1l-3,8.4h-1l-3-8.4h1l1.9,5.5c0.2,0.6,0.4,1.2,0.5,1.8c0.1-0.6,0.3-1.2,0.5-1.9L52.9,153.6z"
				/>
			<path class="st6" d="M55.1,162.1v-8.4h1v8.4H55.1z"/>
			<path class="st6" d="M62,154.4c-0.9,0-1.7,0.3-2.2,0.9c-0.5,0.6-0.8,1.5-0.8,2.5c0,1.1,0.3,2,0.8,2.6c0.5,0.6,1.3,0.9,2.2,0.9
				c0.6,0,1.3-0.1,2-0.3v0.9c-0.6,0.2-1.3,0.3-2.2,0.3c-1.2,0-2.2-0.4-2.9-1.1c-0.7-0.8-1-1.8-1-3.2c0-0.9,0.2-1.6,0.5-2.3
				c0.3-0.7,0.8-1.2,1.4-1.5c0.6-0.4,1.3-0.5,2.2-0.5c0.9,0,1.7,0.2,2.3,0.5l-0.4,0.8C63.3,154.5,62.6,154.4,62,154.4z"/>
			<path class="st6" d="M70.5,162.1h-4.7v-8.4h4.7v0.9h-3.7v2.7h3.5v0.9h-3.5v3.1h3.7V162.1z"/>
			<path class="st6" d="M24,170.3c0,0.9-0.3,1.5-0.9,2c-0.6,0.5-1.4,0.7-2.5,0.7h-1v3.3h-1v-8.4h2.2C22.9,167.8,24,168.6,24,170.3z
				 M19.6,172.1h0.9c0.9,0,1.5-0.1,1.9-0.4c0.4-0.3,0.6-0.7,0.6-1.3c0-0.6-0.2-1-0.5-1.2c-0.4-0.3-0.9-0.4-1.7-0.4h-1.1V172.1z"/>
			<path class="st6" d="M26.7,172.7v3.5h-1v-8.4H28c1,0,1.8,0.2,2.3,0.6c0.5,0.4,0.7,1,0.7,1.8c0,1.1-0.6,1.9-1.7,2.3l2.3,3.8h-1.2
				l-2-3.5H26.7z M26.7,171.9H28c0.7,0,1.2-0.1,1.5-0.4c0.3-0.3,0.5-0.7,0.5-1.2c0-0.6-0.2-1-0.5-1.2c-0.3-0.2-0.9-0.4-1.6-0.4h-1.3
				V171.9z"/>
			<path class="st6" d="M40.3,172c0,1.3-0.3,2.4-1,3.2c-0.7,0.8-1.6,1.2-2.8,1.2c-1.2,0-2.2-0.4-2.9-1.1c-0.7-0.8-1-1.8-1-3.2
				c0-1.4,0.3-2.4,1-3.2s1.6-1.1,2.9-1.1c1.2,0,2.2,0.4,2.8,1.2C40,169.6,40.3,170.7,40.3,172z M33.6,172c0,1.1,0.2,2,0.7,2.6
				c0.5,0.6,1.2,0.9,2.1,0.9c0.9,0,1.6-0.3,2.1-0.9c0.5-0.6,0.7-1.5,0.7-2.6c0-1.1-0.2-2-0.7-2.6c-0.5-0.6-1.2-0.9-2.1-0.9
				c-0.9,0-1.6,0.3-2.1,0.9C33.9,170,33.6,170.9,33.6,172z"/>
			<path class="st6" d="M47,167.8h1.1l-3,8.4h-1l-3-8.4h1l1.9,5.5c0.2,0.6,0.4,1.2,0.5,1.8c0.1-0.6,0.3-1.2,0.5-1.9L47,167.8z"/>
			<path class="st6" d="M49.3,176.2v-8.4h1v8.4H49.3z"/>
			<path class="st6" d="M59.3,171.9c0,1.4-0.4,2.5-1.1,3.2c-0.8,0.7-1.8,1.1-3.3,1.1h-2.3v-8.4h2.6c1.3,0,2.3,0.4,3.1,1.1
				C58.9,169.6,59.3,170.6,59.3,171.9z M58.2,172c0-1.1-0.3-1.9-0.8-2.5c-0.6-0.6-1.4-0.8-2.5-0.8h-1.4v6.7h1.2c1.2,0,2-0.3,2.6-0.9
				C57.9,174,58.2,173.1,58.2,172z"/>
			<path class="st6" d="M65.9,176.2h-4.7v-8.4h4.7v0.9h-3.7v2.7h3.5v0.9h-3.5v3.1h3.7V176.2z"/>
			<path class="st6" d="M68.7,172.7v3.5h-1v-8.4H70c1,0,1.8,0.2,2.3,0.6c0.5,0.4,0.7,1,0.7,1.8c0,1.1-0.6,1.9-1.7,2.3l2.3,3.8h-1.2
				l-2-3.5H68.7z M68.7,171.9h1.3c0.7,0,1.2-0.1,1.5-0.4c0.3-0.3,0.5-0.7,0.5-1.2c0-0.6-0.2-1-0.5-1.2c-0.3-0.2-0.9-0.4-1.6-0.4
				h-1.3V171.9z"/>
			<path class="st6" d="M79.8,174c0,0.7-0.3,1.3-0.8,1.7s-1.3,0.6-2.2,0.6c-1,0-1.8-0.1-2.3-0.4V175c0.3,0.1,0.7,0.3,1.1,0.3
				c0.4,0.1,0.8,0.1,1.2,0.1c0.7,0,1.1-0.1,1.5-0.4c0.3-0.2,0.5-0.6,0.5-1c0-0.3-0.1-0.5-0.2-0.7c-0.1-0.2-0.3-0.4-0.6-0.5
				c-0.3-0.2-0.7-0.3-1.3-0.5c-0.8-0.3-1.3-0.6-1.7-1c-0.3-0.4-0.5-0.9-0.5-1.5c0-0.6,0.2-1.2,0.7-1.6c0.5-0.4,1.1-0.6,1.9-0.6
				c0.8,0,1.6,0.2,2.3,0.5l-0.3,0.9c-0.7-0.3-1.4-0.4-2-0.4c-0.5,0-0.9,0.1-1.2,0.3c-0.3,0.2-0.4,0.5-0.4,0.9c0,0.3,0.1,0.5,0.2,0.7
				c0.1,0.2,0.3,0.4,0.5,0.5c0.3,0.2,0.6,0.3,1.2,0.5c0.9,0.3,1.5,0.7,1.8,1C79.6,172.9,79.8,173.4,79.8,174z"/>
		</g>
	</g>
	<path class="st5" d="M93.1,184.3H4.7c-2.6,0-4.7-2.1-4.7-4.7v-29.1c0-2.6,2.1-4.7,4.7-4.7l88.5-0.2c2.6,0,4.7,2.1,4.7,4.7v29.4
		C97.8,182.3,95.7,184.3,93.1,184.3z M93.1,148.2l-88.5,0.2c-1.2,0-2.2,1-2.2,2.2v29.1c0,1.2,1,2.2,2.2,2.2h88.5
		c1.2,0,2.2-1,2.2-2.2v-29.4C95.3,149.1,94.3,148.2,93.1,148.2z"/>
	<g>
		<g>
			<path class="st6" d="M44.1,80.1c0,0.9-0.3,1.5-0.9,2c-0.6,0.5-1.4,0.7-2.5,0.7h-1V86h-1v-8.4h2.2C43,77.6,44.1,78.4,44.1,80.1z
				 M39.7,81.9h0.9c0.9,0,1.5-0.1,1.9-0.4c0.4-0.3,0.6-0.7,0.6-1.3c0-0.6-0.2-1-0.5-1.2c-0.4-0.3-0.9-0.4-1.7-0.4h-1.1V81.9z"/>
			<path class="st6" d="M45.8,86v-8.4h1v7.5h3.7V86H45.8z"/>
			<path class="st6" d="M57.3,86l-1-2.7h-3.4l-1,2.7h-1l3.3-8.5H55l3.3,8.5H57.3z M55.9,82.5l-1-2.6c-0.1-0.3-0.3-0.7-0.4-1.2
				c-0.1,0.4-0.2,0.8-0.4,1.2l-1,2.6H55.9z"/>
			<path class="st6" d="M61.6,81.8l2.2-4.2h1.1l-2.8,5.2V86h-1v-3.2l-2.8-5.2h1.1L61.6,81.8z"/>
			<path class="st6" d="M70.7,86H66v-8.4h4.7v0.9H67v2.7h3.5V82H67v3.1h3.7V86z"/>
			<path class="st6" d="M73.6,82.5V86h-1v-8.4h2.3c1,0,1.8,0.2,2.3,0.6c0.5,0.4,0.7,1,0.7,1.8c0,1.1-0.6,1.9-1.7,2.3l2.3,3.8h-1.2
				l-2-3.5H73.6z M73.6,81.7h1.3c0.7,0,1.2-0.1,1.5-0.4c0.3-0.3,0.5-0.7,0.5-1.2c0-0.6-0.2-1-0.5-1.2c-0.3-0.2-0.9-0.4-1.6-0.4h-1.3
				V81.7z"/>
			<path class="st6" d="M84.7,83.8c0,0.7-0.3,1.3-0.8,1.7c-0.5,0.4-1.3,0.6-2.2,0.6c-1,0-1.8-0.1-2.3-0.4v-0.9
				c0.3,0.1,0.7,0.3,1.1,0.3c0.4,0.1,0.8,0.1,1.2,0.1c0.7,0,1.1-0.1,1.5-0.4c0.3-0.2,0.5-0.6,0.5-1c0-0.3-0.1-0.5-0.2-0.7
				c-0.1-0.2-0.3-0.4-0.6-0.5c-0.3-0.2-0.7-0.3-1.3-0.5c-0.8-0.3-1.3-0.6-1.7-1c-0.3-0.4-0.5-0.9-0.5-1.5c0-0.6,0.2-1.2,0.7-1.6
				c0.5-0.4,1.1-0.6,1.9-0.6c0.8,0,1.6,0.2,2.3,0.5l-0.3,0.9c-0.7-0.3-1.4-0.4-2-0.4c-0.5,0-0.9,0.1-1.2,0.3
				c-0.3,0.2-0.4,0.5-0.4,0.9c0,0.3,0.1,0.5,0.2,0.7c0.1,0.2,0.3,0.4,0.5,0.5c0.3,0.2,0.6,0.3,1.2,0.5c0.9,0.3,1.5,0.7,1.8,1
				C84.5,82.7,84.7,83.2,84.7,83.8z"/>
		</g>
	</g>
	<path class="st5" d="M118.1,96.7H4.7C2.1,96.7,0,94.6,0,92V73.1c0-2.6,2.1-4.7,4.7-4.7h113.5c2.6,0,4.7,2.1,4.7,4.7V92
		C122.8,94.6,120.7,96.7,118.1,96.7z M4.7,71c-1.2,0-2.2,1-2.2,2.2V92c0,1.2,1,2.2,2.2,2.2h113.5c1.2,0,2.2-1,2.2-2.2V73.1
		c0-1.2-1-2.2-2.2-2.2H4.7z"/>
</g>
</svg>
